<?xml version="1.0" encoding="utf-8"?>
<!-- Generator: Adobe Illustrator 21.0.2, SVG Export Plug-In . SVG Version: 6.00 Build 0)  -->
<svg version="1.1" id="Layer_1" xmlns="http://www.w3.org/2000/svg" xmlns:xlink="http://www.w3.org/1999/xlink" x="0px" y="0px"
	 viewBox="0 0 566.9 566.9" style="enable-background:new 0 0 566.9 566.9;" xml:space="preserve">
<style type="text/css">
	.st0{fill:none;stroke:#F2F2F2;stroke-width:0.75;stroke-miterlimit:10;}
</style>
<g>
	<path class="st0" d="M303.8,202.1c0,0,57.1,49.2,72,94.8c0,0,17.7,42,5.6,66.6c0,0-19.5,49.2-102,28.7c0,0-56.4-21.5-108.9-73.8
		c0,0-22.5-16.1,0-40.7c0,0,24.3-18.4,39.2-30c0,0,23.8-17.2,43.8-50.2c0,0,11.5-18.4,29.2-11.5L303.8,202.1z"/>
	<path class="st0" d="M302.3,206.1c0,0,53.2,46.4,67,89.4c0,0,16.4,39.6,5.2,62.8c0,0-18.1,46.4-94.9,27.1c0,0-52.4-20.3-101.3-69.6
		c0,0-21-15.2,0-38.4c0,0,22.6-17.4,36.5-28.3c0,0,22.2-16.2,40.8-47.4c0,0,10.7-17.4,27.2-10.9L302.3,206.1z"/>
	<path class="st0" d="M262.2,295.2c0,0,17.4,8.7,30.2-1.3c0,0,11-9.7,0-26.1c0,0-9.7-13.6-20.7-12.9c0,0-18.6,1.8-19.2,24.5
		C252.4,279.4,250.4,290.2,262.2,295.2z"/>
	<path class="st0" d="M277.7,303.3c0,0,24.2,2,25.9-18.6c0,0,1.8-10.8-16.3-28c0,0-8.2-6.7-15.4-6.3c0,0-13,0-19.6,14.6
		c0,0-5.4,10.2-4.5,19.5C247.8,284.5,248,302.5,277.7,303.3z"/>
	<path class="st0" d="M260.8,304.6c0,0,27.9,10.2,42.8-4.4c0,0,9.4-8.7,2.4-25.6c0,0-15.8-28.9-34.2-28.4c0,0-22.7-1.4-28.7,39.5
		C243.1,285.7,243.4,301.2,260.8,304.6z"/>
	<path class="st0" d="M270.8,242.5c0,0,19.4-1,35.9,25.7c0,0,10.2,13.4,6.1,28.8c0,0-5.2,17.5-31.3,15.2c0,0-39.8,0.2-42.8-24.6
		C238.7,287.6,241.9,246.7,270.8,242.5z"/>
	<path class="st0" d="M270.6,237.5c0,0,35.7,0,48.2,51c0,0,7.2,28.4-32.5,29.5c0,0-47.4-0.4-52.5-27.1
		C233.7,290.8,241,241.6,270.6,237.5z"/>
	<path class="st0" d="M270.1,232.9c0,0,43,3.1,55.3,61.5c0,0,3.3,29.2-35.1,29.5c0,0-58.9-3.8-62-28.9c0,0-0.5-10.2,6.9-23.6
		C235.3,271.3,251.7,233.6,270.1,232.9z"/>
	<path class="st0" d="M269.6,228.3c0,0,46.5,1.2,61.1,68c0,0,5.4,32.6-38.4,33.2c0,0-65.7-4.9-69.9-35.4c0,0,1.5-10.2,8.5-23
		C230.8,271.1,251.2,230.2,269.6,228.3z"/>
	<path class="st0" d="M297.3,336.8c0,0,60.7,0.7,33.6-60.9c0,0-30.3-52.8-60.9-52c0,0-14.7-2.9-39.6,40.7c0,0-12.8,16.7-13.8,31
		C216.6,295.6,211.8,326.3,297.3,336.8z"/>
	<path class="st0" d="M298.5,343.5c0,0,50.7,3.7,44.6-44.8c0,0-8-35.6-45.8-68.7c0,0-16.2-11.3-27.2-11.5c0,0-17.9-3.6-52,58.9
		c0,0-16.4,19.8,0,35C218.1,312.4,251.7,341.7,298.5,343.5z"/>
	<path class="st0" d="M302.1,351.5c0,0,54,3.8,48.2-46.4c0,0-3.1-34.1-43.5-71.2c0,0-22.2-20.7-33.6-20.7c0,0-14.8-6.1-55,56.6
		c0,0-27.9,24.6-9,42.7C209.1,312.4,240.7,346.1,302.1,351.5z"/>
	<path class="st0" d="M305.5,358.9c0,0,49.2,2.6,51.7-41c0,0-1.8-31-19.3-54c0,0-42.5-56.4-66.2-56.1c0,0-8.5-5.9-36.6,32.8
		c0,0-27.8,35.8-32.5,42.6c0,0-24.7,21.4,22.7,48.8C225.3,332,271.1,357.9,305.5,358.9z"/>
	<path class="st0" d="M273.1,202.6c0,0,14.1-4.4,52.4,39.8c0,0,32.2,29.3,38.3,79.8c0,0,4.9,42.8-52.5,45.1c0,0-33.6,6.1-104-41
		c0,0-19-10.5-19-28.2c0,0-1.5-8.5,9.7-17.8c0,0,54.6-64.7,59.4-70.1C257.6,210.3,263.5,203.1,273.1,202.6z"/>
	<path class="st0" d="M273.1,197.1c0,0,7.3-3.8,33.8,20c0,0,44.8,39.1,54.6,73.7c0,0,23.7,45.2-3.5,71.5c0,0-31.3,29.4-86.1,7.1
		c0,0-91.8-39.7-92.8-68.6c0,0-5.7-15,31.7-42.5c0,0,39.3-40.7,46.3-53.2C257.1,205.2,263.6,196.5,273.1,197.1z"/>
	<circle class="st0" cx="274.2" cy="278.2" r="6.5"/>
</g>
</svg>
