<?xml version="1.0" encoding="utf-8"?>
<!-- Generator: Adobe Illustrator 21.0.2, SVG Export Plug-In . SVG Version: 6.00 Build 0)  -->
<svg version="1.1" id="Layer_1" xmlns="http://www.w3.org/2000/svg" xmlns:xlink="http://www.w3.org/1999/xlink" x="0px" y="0px"
	 viewBox="0 0 1000 1000" style="enable-background:new 0 0 1000 1000;" xml:space="preserve">
<style type="text/css">
	.st0{fill:none;stroke:#F2F2F2;stroke-miterlimit:10;}
</style>
<path id="Facebook_1_" class="st0" d="M451.1,394.3c0,9.2,0,50,0,50h-36.7v61.2h36.7v167.8h75.3V505.5h50.5c0,0,4.7-29.3,7-61.4
	c-6.6,0-57.3,0-57.3,0s0-35.6,0-41.8c0-6.3,8.2-14.7,16.3-14.7s25.2,0,41,0c0-8.3,0-37.1,0-63.7c-21.1,0-45.2,0-55.8,0
	C449.3,324,451.1,385.2,451.1,394.3z"/>
</svg>
