<?xml version="1.0" encoding="utf-8"?>
<!-- Generator: Adobe Illustrator 21.0.2, SVG Export Plug-In . SVG Version: 6.00 Build 0)  -->
<svg version="1.1" id="Layer_1" xmlns="http://www.w3.org/2000/svg" xmlns:xlink="http://www.w3.org/1999/xlink" x="0px" y="0px"
	 viewBox="0 0 1000 1000" style="enable-background:new 0 0 1000 1000;" xml:space="preserve">
<style type="text/css">
	.st0{fill:#F2F2F2;}
</style>
<g>
	<path class="st0" d="M288.5,553.9c-0.7,0.1-1.2,0.1-1.6-0.1c-0.4-0.2-0.8-0.3-1-0.5c-0.5-0.6-0.8-1.2-0.9-1.8
		c-0.1-0.6-0.1-1-0.1-1.1v-62.9c0-0.8,0.4-1.2,1.1-1.4c0.8-0.1,1.2,0.2,1.2,1v63c-0.1,0.1-0.1,0.3,0,0.6c0.1,0.3,0.2,0.5,0.4,0.6
		c0.2,0.2,0.5,0.3,1,0.2c0.7-0.1,1.2-0.4,1.3-0.9c0.2-0.4,0.3-0.8,0.3-1v-27.5c0-0.8,0.4-1.2,1.1-1.4l21.4-3.8v-30.1
		c0-0.1,0-0.3,0-0.6c0-0.3,0-0.7,0.1-1.2c0.1-0.5,0.2-0.9,0.3-1.4c0.2-0.5,0.4-1,0.8-1.4c0.7-0.9,1.5-1.4,2.6-1.6
		c1.1-0.2,1.9,0,2.6,0.7c0.7,0.7,1,1.5,1.1,2.5c0.1,1,0.1,1.6,0.1,1.8V547c0,0.8-0.4,1.3-1.1,1.4c-0.7,0.1-1.1-0.2-1.1-1.1v-61.5
		c0-0.3,0-0.7-0.1-1.3c-0.1-0.6-0.3-1-0.5-1.3c-0.2-0.2-0.5-0.3-0.9-0.2c-0.4,0.1-0.7,0.2-0.9,0.5c-0.3,0.4-0.5,0.9-0.6,1.6
		c-0.1,0.6-0.1,1-0.1,1.2v31.4c0,0.8-0.4,1.3-1.1,1.4l-21.4,3.8v26.2c0,0.8-0.3,1.8-0.9,2.8C290.9,553,289.9,553.6,288.5,553.9z"/>
	<path class="st0" d="M364.3,540.7c-0.7,0.1-1.2,0.1-1.7-0.2c-0.8-0.3-1.3-0.8-1.6-1.5c-0.3-0.6-0.4-1-0.5-1.1L350.3,502
		c-0.2-0.7,0-1.3,0.8-1.6c0.7-0.4,1.2-0.2,1.4,0.6l10.2,36c0.1,0.2,0.2,0.4,0.3,0.7c0.2,0.3,0.4,0.5,0.7,0.6c0.3,0.1,0.8,0,1.3-0.2
		c0.4-0.3,0.8-0.5,0.9-0.9c0.1-0.3,0.1-0.6,0.1-1c-0.1-0.3-0.1-0.5-0.2-0.6v-0.1l-15.6-55.1L334.2,545c-0.2,0.8-0.7,1.2-1.3,1
		c-0.7-0.1-1-0.5-0.8-1.3l17.1-68.8c0.1-0.6,0.4-1,1-1.1c0.6-0.1,1,0.1,1.1,0.7l16.6,58.9c0.1,0.2,0.2,0.6,0.3,1.2
		c0.1,0.7,0,1.4-0.3,2.2c-0.2,0.3-0.4,0.7-0.8,1.1c-0.3,0.4-0.8,0.8-1.5,1.2C365.1,540.4,364.7,540.6,364.3,540.7z"/>
	<path class="st0" d="M415.1,531.6l-34,6c-0.7,0.1-1.1-0.2-1.1-1v-30.1c0-0.8,0.4-1.3,1.1-1.4l11.7-2.1c0.1,0,0.3-0.1,0.6-0.1
		c0.3-0.1,0.5-0.3,0.8-0.5c0.2-0.3,0.3-0.7,0.3-1.1c0-0.8-0.2-1.3-0.7-1.4c-0.5-0.1-0.8-0.1-0.9-0.1l-11.8,2.1
		c-0.7,0.1-1.1-0.2-1.1-1v-30.1c0-0.8,0.4-1.2,1.1-1.4l34-6c0.7-0.1,1.1,0.2,1.1,1c0,0.8-0.4,1.3-1.1,1.4l-32.9,5.8v27.7l10.8-1.9
		c0.8-0.1,1.6,0,2.4,0.5c0.8,0.5,1.3,1.5,1.3,2.9c0,0.7-0.1,1.3-0.3,1.8c-0.2,0.5-0.4,0.9-0.7,1.2c-0.6,0.7-1.2,1.1-1.8,1.3
		c-0.6,0.2-1,0.3-1.1,0.3l-10.5,1.9v27.8l32.9-5.8c0.7-0.1,1.1,0.2,1.1,1C416.2,531.1,415.8,531.5,415.1,531.6z"/>
	<path class="st0" d="M459.2,523.9c-0.4,0.1-0.8,0-0.9-0.4l-19.1-28c-0.3-0.4-0.3-0.8,0-1.2l16.2-33.4c0.1-0.1,0.2-0.4,0.3-0.9
		c0.1-0.4-0.1-0.8-0.5-1c-0.3-0.2-0.5-0.3-0.7-0.2c-0.2,0.1-0.3,0.1-0.4,0.1c-0.3,0.2-0.5,0.4-0.8,0.8c-0.2,0.3-0.4,0.6-0.4,0.7
		L435.4,496V524c-0.1,0.8-0.4,1.8-1,2.8c-0.6,1-1.5,1.7-2.9,1.9c-0.7,0.1-1.2,0.1-1.6-0.1c-0.4-0.2-0.8-0.4-1-0.6
		c-0.5-0.5-0.8-1.1-0.9-1.7c-0.1-0.6-0.1-1-0.1-1.1v-62.9c0-0.8,0.4-1.3,1.1-1.4c0.7-0.1,1.1,0.2,1.1,1.1v62.9c0,0.1,0,0.3,0.1,0.6
		c0.1,0.3,0.2,0.5,0.4,0.7c0.2,0.2,0.5,0.3,1,0.2c0.8-0.1,1.2-0.5,1.4-1c0.1-0.5,0.2-0.8,0.3-1v-28.3c0-0.3,0-0.5,0.1-0.6l17.7-35.9
		c0.1-0.1,0.3-0.4,0.7-1.1c0.4-0.7,1-1.2,1.8-1.7c0.3-0.2,0.7-0.3,1.2-0.4c0.5-0.1,1,0,1.6,0.3c0.7,0.3,1.2,0.9,1.5,1.7
		c0.2,0.7,0.1,1.4-0.1,2.1c-0.2,0.7-0.4,1.1-0.4,1.2l-15.9,32.7l18.7,27.6c0.4,0.6,0.3,1.1-0.3,1.7
		C459.6,523.7,459.4,523.8,459.2,523.9z"/>
	<path class="st0" d="M489.8,518.6c-0.7,0.1-1.2,0.1-1.6-0.1c-0.4-0.2-0.7-0.3-1-0.5c-0.6-0.6-0.9-1.2-1-1.8c-0.1-0.6-0.1-1,0-1.2
		v-61.7l-12.9,2.3c-0.7,0.1-1.1-0.2-1.1-1.1c0-0.8,0.4-1.2,1.1-1.4l14-2.5c0.7-0.1,1.1,0.2,1.1,1v63c0,0.1,0,0.3,0.1,0.6
		c0.1,0.3,0.2,0.5,0.3,0.7c0.2,0.2,0.6,0.3,1,0.2c0.8-0.1,1.3-0.5,1.4-1c0.2-0.5,0.3-0.8,0.3-0.9v-63.1c0-0.8,0.4-1.2,1.2-1.4
		l13.5-2.4c0.8-0.1,1.2,0.2,1.2,1c0,0.8-0.4,1.3-1.2,1.5l-12.4,2.2v61.9c-0.1,0.8-0.4,1.8-1,2.8
		C492.1,517.7,491.2,518.3,489.8,518.6z"/>
	<path class="st0" d="M522.6,512.8c-0.7,0.1-1.2,0.1-1.6-0.1c-0.4-0.2-0.8-0.3-1-0.5c-0.6-0.6-0.9-1.2-0.9-1.8
		c-0.1-0.6-0.1-1-0.1-1.1v-12.4c0-0.8,0.4-1.2,1.1-1.4c0.8-0.1,1.2,0.2,1.2,1v12.5c-0.1,0.1-0.1,0.3,0,0.6c0.1,0.3,0.2,0.5,0.4,0.6
		c0.2,0.2,0.5,0.3,1,0.2c0.8-0.1,1.3-0.5,1.4-1c0.2-0.5,0.3-0.8,0.3-0.9v-63.1c0-0.8,0.4-1.2,1.1-1.4l16.5-2.9
		c1.3-0.1,2.4-0.1,3.3,0c0.9,0.1,2,0.3,3.1,0.7c1.1,0.4,2.1,1,3.1,1.8c0.9,0.8,1.7,2,2.3,3.5c0.6,1.5,1,3.3,1,5.6
		c0,4-1.1,7.4-3.4,10.1c-0.9,1.2-2,2.1-3,2.8c-1.1,0.7-2,1.3-3,1.7c-0.9,0.4-1.7,0.7-2.3,0.9c-0.6,0.1-1,0.2-1,0.2l-7.3,1.3
		c-0.1,0-0.3,0.1-0.6,0.2c-0.3,0.1-0.6,0.2-0.9,0.5c-0.3,0.2-0.6,0.5-0.8,0.9c-0.3,0.4-0.4,0.9-0.4,1.5c0,0.8-0.4,1.2-1.1,1.4
		c-0.8,0.1-1.2-0.2-1.2-1c0-1.4,0.4-2.7,1.3-3.7c0.7-0.9,1.5-1.5,2.3-1.8c0.8-0.3,1.3-0.4,1.4-0.4l7.3-1.3c1.1-0.2,2-0.5,2.8-0.9
		c0.8-0.3,1.7-0.8,2.6-1.4c0.9-0.6,1.7-1.4,2.5-2.4c1.8-2.2,2.7-5,2.7-8.3c0-2.8-0.5-4.9-1.6-6.2c-1.1-1.4-2.2-2.3-3.5-2.8
		c-1.3-0.5-2.5-0.7-3.6-0.7c-1.1,0-1.7,0.1-1.8,0.1l-15.4,2.7v61.9c-0.1,0.8-0.4,1.8-1,2.8C524.9,511.9,524,512.5,522.6,512.8z"/>
	<path class="st0" d="M570,504.4c-0.7,0.1-1.2,0.1-1.6-0.1c-0.4-0.2-0.8-0.3-1-0.5c-0.5-0.6-0.8-1.2-0.9-1.8c-0.1-0.6-0.1-1-0.1-1.1
		v-12.4c0-0.8,0.4-1.2,1.1-1.4c0.8-0.1,1.2,0.2,1.2,1v12.5c-0.1,0.1-0.1,0.3,0,0.6c0.1,0.3,0.2,0.5,0.4,0.6c0.2,0.2,0.5,0.3,1,0.2
		c0.7-0.1,1.2-0.4,1.3-0.9c0.2-0.4,0.3-0.8,0.3-1V437c0-0.8,0.4-1.2,1.1-1.4c0.7-0.1,1.1,0.2,1.1,1v63.1c-0.1,0.8-0.4,1.8-1,2.8
		C572.3,503.5,571.4,504.2,570,504.4z"/>
	<path class="st0" d="M617,496c-0.4,0.1-0.8,0-0.9-0.4l-19.1-28c-0.3-0.4-0.3-0.8,0-1.2l16.2-33.4c0.1-0.1,0.2-0.4,0.3-0.9
		c0.1-0.4-0.1-0.8-0.5-1c-0.3-0.2-0.5-0.3-0.7-0.2c-0.2,0.1-0.3,0.1-0.4,0.1c-0.3,0.2-0.5,0.4-0.8,0.8c-0.2,0.3-0.4,0.6-0.4,0.7
		l-17.6,35.7v28.1c-0.1,0.8-0.4,1.8-1,2.8c-0.6,1-1.5,1.7-2.9,1.9c-0.7,0.1-1.2,0.1-1.6-0.1c-0.4-0.2-0.8-0.4-1-0.6
		c-0.5-0.5-0.8-1.1-0.9-1.7c-0.1-0.6-0.1-1-0.1-1.1v-62.9c0-0.8,0.4-1.3,1.1-1.4c0.7-0.1,1.1,0.2,1.1,1.1V497c0,0.1,0,0.3,0.1,0.6
		c0.1,0.3,0.2,0.5,0.4,0.7c0.2,0.2,0.5,0.3,1,0.2c0.8-0.1,1.2-0.5,1.4-1c0.1-0.5,0.2-0.8,0.3-1v-28.3c0-0.3,0-0.5,0.1-0.6l17.7-35.9
		c0.1-0.1,0.3-0.4,0.7-1.1c0.4-0.7,1-1.2,1.8-1.7c0.3-0.2,0.7-0.3,1.2-0.4c0.5-0.1,1,0,1.6,0.3c0.7,0.3,1.2,0.9,1.5,1.7
		c0.2,0.7,0.1,1.4-0.1,2.1c-0.2,0.7-0.4,1.1-0.4,1.2l-15.9,32.7l18.7,27.6c0.4,0.6,0.3,1.1-0.3,1.7C617.3,495.9,617.1,496,617,496z"
		/>
	<path class="st0" d="M664.9,487.6l-34,6c-0.7,0.1-1.1-0.2-1.1-1v-30.1c0-0.8,0.4-1.3,1.1-1.4l11.7-2.1c0.1,0,0.3-0.1,0.6-0.1
		c0.3-0.1,0.5-0.3,0.8-0.5c0.2-0.3,0.3-0.7,0.3-1.1c0-0.8-0.2-1.3-0.7-1.4c-0.5-0.1-0.8-0.1-0.9-0.1l-11.8,2.1
		c-0.7,0.1-1.1-0.2-1.1-1v-30.1c0-0.8,0.4-1.2,1.1-1.4l34-6c0.7-0.1,1.1,0.2,1.1,1c0,0.8-0.4,1.3-1.1,1.4l-32.9,5.8v27.7l10.8-1.9
		c0.8-0.1,1.6,0,2.4,0.5c0.8,0.5,1.3,1.5,1.3,2.9c0,0.7-0.1,1.3-0.3,1.8c-0.2,0.5-0.4,0.9-0.7,1.2c-0.6,0.7-1.2,1.1-1.8,1.3
		c-0.6,0.2-1,0.3-1.1,0.3l-10.5,1.9v27.8l32.9-5.8c0.7-0.1,1.1,0.2,1.1,1C666,487,665.6,487.5,664.9,487.6z"/>
	<path class="st0" d="M713.2,479.2l-34.5,6.1c-0.4,0.1-0.8-0.1-0.9-0.5c-0.3-0.3-0.3-0.7,0-1.2c1.7-3,3.5-6.3,5.4-9.9
		c1.9-3.6,3.7-7.2,5.4-10.6c1.6-3.4,3-6.5,4.1-9.1c1.1-2.7,1.6-4.6,1.6-5.6c0-0.7-0.3-1.6-0.8-2.9c-0.5-1.3-1.2-2.7-2-4.4
		c-0.9-1.7-1.9-3.4-3-5.3c-1.1-1.9-2.3-3.8-3.5-5.8c-1.2-2-2.5-3.9-3.7-5.7c-1.2-1.9-2.4-3.6-3.5-5.2c-0.3-0.4-0.3-0.8,0-1.2
		c0.2-0.4,0.5-0.7,0.9-0.8l31.8-5.6c0.8-0.1,1.6,0.1,2.5,0.6c0.9,0.5,1.3,1.5,1.3,2.9c0,0.7-0.1,1.3-0.3,1.8
		c-0.2,0.5-0.4,0.9-0.7,1.2c-0.6,0.7-1.2,1.2-1.8,1.3c-0.6,0.2-1,0.3-1.1,0.3l-11.6,2c-0.8,0.1-1.2-0.2-1.2-1c0-0.8,0.4-1.2,1.2-1.4
		l11.7-2.1c0.1,0,0.3-0.1,0.6-0.2c0.3-0.1,0.5-0.3,0.8-0.5c0.2-0.4,0.3-0.8,0.3-1.1c0-0.8-0.2-1.2-0.6-1.4c-0.4-0.1-0.7-0.2-1-0.1
		l-29.7,5.2c0.7,1,1.5,2.2,2.6,3.8c1,1.6,2.1,3.3,3.3,5.1c1.2,1.8,2.3,3.7,3.5,5.7c1.2,2,2.2,3.9,3.2,5.7c0.9,1.8,1.7,3.5,2.3,5
		c0.6,1.5,0.9,2.7,0.9,3.6c0,0.9-0.3,2.2-0.9,3.9c-0.6,1.7-1.4,3.7-2.3,5.8c-0.9,2.2-2,4.4-3.2,6.8c-1.2,2.4-2.3,4.7-3.5,7
		c-1.2,2.3-2.3,4.4-3.3,6.3c-1,1.9-1.9,3.5-2.6,4.7l32.4-5.7c0.7-0.1,1.1,0.2,1.1,1.1C714.3,478.6,714,479,713.2,479.2z"/>
	<path class="st0" d="M375.6,635.5l-34.5,6.1c-0.4,0.1-0.8-0.1-0.9-0.5c-0.3-0.3-0.3-0.7,0-1.2c1.7-3,3.5-6.3,5.4-9.9
		c1.9-3.6,3.7-7.2,5.4-10.6c1.6-3.4,3-6.5,4.1-9.1c1.1-2.7,1.6-4.6,1.6-5.6c0-0.7-0.3-1.6-0.8-2.9c-0.5-1.3-1.2-2.7-2-4.4
		c-0.9-1.7-1.9-3.4-3-5.3c-1.1-1.9-2.3-3.8-3.5-5.8c-1.2-2-2.5-3.9-3.7-5.7c-1.2-1.9-2.4-3.6-3.5-5.2c-0.3-0.4-0.3-0.8,0-1.2
		c0.2-0.4,0.5-0.7,0.9-0.8l31.8-5.6c0.8-0.1,1.6,0.1,2.5,0.6c0.9,0.5,1.3,1.5,1.3,2.9c0,0.7-0.1,1.3-0.3,1.8
		c-0.2,0.5-0.4,0.9-0.7,1.2c-0.6,0.7-1.2,1.2-1.8,1.3c-0.6,0.2-1,0.3-1.1,0.3l-11.6,2c-0.8,0.1-1.2-0.2-1.2-1c0-0.8,0.4-1.2,1.2-1.4
		l11.7-2.1c0.1,0,0.3-0.1,0.6-0.2c0.3-0.1,0.5-0.3,0.8-0.5c0.2-0.4,0.3-0.8,0.3-1.1c0-0.8-0.2-1.2-0.6-1.4c-0.4-0.1-0.7-0.2-1-0.1
		l-29.7,5.2c0.7,1,1.5,2.2,2.6,3.8c1,1.6,2.1,3.3,3.3,5.1c1.2,1.8,2.3,3.7,3.5,5.7c1.2,2,2.2,3.9,3.2,5.7c0.9,1.8,1.7,3.5,2.3,5
		c0.6,1.5,0.9,2.7,0.9,3.6c0,0.9-0.3,2.2-0.9,3.9c-0.6,1.7-1.4,3.7-2.3,5.8c-0.9,2.2-2,4.4-3.2,6.8c-1.2,2.4-2.3,4.7-3.5,7
		c-1.2,2.3-2.3,4.4-3.3,6.3c-1,1.9-1.9,3.5-2.6,4.7l32.4-5.7c0.7-0.1,1.1,0.2,1.1,1.1C376.7,634.9,376.3,635.4,375.6,635.5z"/>
	<path class="st0" d="M419.8,627.6c-0.4,0.1-0.8,0-0.9-0.4l-19.1-28c-0.3-0.4-0.3-0.8,0-1.2l16.2-33.4c0.1-0.1,0.2-0.4,0.3-0.9
		c0.1-0.4-0.1-0.8-0.5-1c-0.3-0.2-0.5-0.3-0.7-0.2c-0.2,0.1-0.3,0.1-0.4,0.1c-0.3,0.2-0.5,0.4-0.8,0.8c-0.2,0.3-0.4,0.6-0.4,0.7
		l-17.6,35.7v28.1c-0.1,0.8-0.4,1.8-1,2.8c-0.6,1-1.5,1.7-2.9,1.9c-0.7,0.1-1.2,0.1-1.6-0.1c-0.4-0.2-0.8-0.4-1-0.6
		c-0.5-0.5-0.8-1.1-0.9-1.7c-0.1-0.6-0.1-1-0.1-1.1v-62.9c0-0.8,0.4-1.3,1.1-1.4c0.7-0.1,1.1,0.2,1.1,1.1v62.9c0,0.1,0,0.3,0.1,0.6
		c0.1,0.3,0.2,0.5,0.4,0.7c0.2,0.2,0.5,0.3,1,0.2c0.8-0.1,1.2-0.5,1.4-1c0.1-0.5,0.2-0.8,0.3-1v-28.3c0-0.3,0-0.5,0.1-0.6l17.7-35.9
		c0.1-0.1,0.3-0.4,0.7-1.1c0.4-0.7,1-1.2,1.8-1.7c0.3-0.2,0.7-0.3,1.2-0.4c0.5-0.1,1,0,1.6,0.3c0.7,0.3,1.2,0.9,1.5,1.7
		c0.2,0.7,0.1,1.4-0.1,2.1c-0.2,0.7-0.4,1.1-0.4,1.2L402,598.1l18.7,27.6c0.4,0.6,0.3,1.1-0.3,1.7
		C420.1,627.5,419.9,627.6,419.8,627.6z"/>
	<path class="st0" d="M450.9,622.2c-3,0.5-5.5,0.5-7.6,0c-2.1-0.5-3.8-1.3-5.1-2.4c-1.4-1.1-2.4-2.4-3.1-3.8
		c-0.7-1.4-1.3-2.8-1.6-4.1c-0.4-1.3-0.6-2.4-0.6-3.3c-0.1-0.9-0.1-1.4-0.1-1.4v-37.9c0-0.8,0.4-1.2,1.1-1.4c0.8-0.1,1.2,0.2,1.2,1
		v37.9c0,0.1,0,0.6,0.1,1.4c0.1,0.8,0.2,1.8,0.5,2.9c0.3,1.1,0.8,2.3,1.4,3.5c0.6,1.3,1.6,2.3,2.8,3.3c1.2,0.9,2.7,1.6,4.5,2
		c1.8,0.4,4,0.4,6.6-0.1c2.6-0.5,4.8-1.2,6.6-2.3c1.8-1.1,3.3-2.3,4.5-3.6c1.2-1.3,2.1-2.8,2.8-4.2c0.6-1.5,1.1-2.8,1.4-4
		c0.3-1.2,0.5-2.2,0.5-3.1c0.1-0.8,0.1-1.3,0.1-1.4v-35.4c0-0.1-0.1-0.8-0.3-2.1c-0.2-1.3-0.7-2.6-1.5-3.9c-0.8-1.3-2.2-2.5-4-3.4
		c-1.8-0.9-4.4-1.1-7.7-0.5c-2.2,0.4-4,1-5.5,1.8c-1.5,0.8-2.7,1.8-3.7,2.8c-1,1.1-1.7,2.2-2.3,3.3c-0.5,1.1-0.9,2.2-1.2,3.1
		c-0.3,0.9-0.4,1.7-0.5,2.4c-0.1,0.7-0.1,1-0.1,1.1v16.1c0,0.8-0.4,1.2-1.2,1.4c-0.7,0.1-1.1-0.2-1.1-1v-16.1c0.1-1.5,0.3-2.8,0.6-4
		c0.3-1.2,0.8-2.4,1.4-3.8c0.6-1.4,1.5-2.7,2.6-3.9c1.1-1.3,2.6-2.4,4.3-3.4c1.8-1,3.9-1.8,6.5-2.2c2.6-0.5,4.8-0.5,6.6-0.1
		c1.8,0.4,3.3,1,4.4,1.9c1.1,0.9,2,1.9,2.7,3c0.6,1.1,1.1,2.2,1.4,3.3c0.3,1,0.5,2.3,0.6,3.8v35.4c0,0.1,0,0.5-0.1,1.4
		c-0.1,0.9-0.3,2.1-0.6,3.5c-0.4,1.4-0.9,3-1.7,4.7c-0.8,1.7-1.8,3.3-3.1,4.9c-1.3,1.6-3,3-5.1,4.2
		C456.4,620.8,453.9,621.7,450.9,622.2z"/>
	<path class="st0" d="M498.4,613.9c-0.7,0.1-1.2,0.1-1.6-0.1c-0.4-0.2-0.7-0.3-1-0.5c-0.6-0.6-0.9-1.2-1-1.8c-0.1-0.6-0.1-1-0.1-1.1
		v-27.6l-13.8-32.4c-0.1-0.3-0.1-0.6,0-0.9c0.1-0.3,0.3-0.6,0.6-0.7c0.3-0.2,0.6-0.2,0.8-0.1c0.3,0.1,0.5,0.2,0.6,0.5l14,32.7
		c0,0.1,0,0.1,0,0.2c0,0.1,0,0.1,0,0.3V610c0,0.1,0,0.3,0,0.6c0,0.3,0.2,0.5,0.4,0.7c0.3,0.2,0.7,0.2,1,0.2c0.8-0.1,1.3-0.5,1.4-1
		c0.2-0.5,0.3-0.9,0.3-1v-28c0-0.2,0-0.4,0.1-0.5l13.5-37.3c0.3-0.8,0.8-1.1,1.5-1c0.3,0.1,0.5,0.3,0.6,0.6c0.1,0.3,0.1,0.6,0,0.9
		l-13.5,37.1v27.8c0,0.8-0.3,1.8-0.9,2.8C500.8,613,499.8,613.6,498.4,613.9z"/>
	<path class="st0" d="M528.7,608.5c-0.7,0.1-1.1-0.2-1.1-1v-66c0-0.8,0.4-1.2,1.1-1.4l33.2-5.9c0.7-0.1,1.1,0.2,1.1,1v63.1
		c-0.1,0.8-0.4,1.8-1,2.8c-0.6,1-1.5,1.7-2.9,1.9c-0.7,0.1-1.2,0.1-1.6-0.1c-0.4-0.2-0.8-0.4-1-0.6c-0.6-0.5-0.9-1.1-0.9-1.7
		c-0.1-0.6-0.1-1-0.1-1.1v-45.8c0-0.8,0.4-1.2,1.1-1.4c0.7-0.1,1.1,0.2,1.1,1v45.8c0,0.1,0,0.3,0.1,0.6c0.1,0.3,0.2,0.5,0.4,0.7
		c0.2,0.2,0.5,0.3,1,0.2c0.8-0.1,1.2-0.5,1.4-1c0.1-0.5,0.2-0.9,0.3-1V537l-31,5.5v64.7C529.7,607.9,529.4,608.4,528.7,608.5z"/>
	<path class="st0" d="M609.7,594.1l-34,6c-0.7,0.1-1.1-0.2-1.1-1V569c0-0.8,0.4-1.3,1.1-1.4l11.7-2.1c0.1,0,0.3-0.1,0.6-0.1
		c0.3-0.1,0.5-0.3,0.8-0.5c0.2-0.3,0.3-0.7,0.3-1.1c0-0.8-0.2-1.3-0.7-1.4c-0.5-0.1-0.8-0.1-0.9-0.1l-11.8,2.1
		c-0.7,0.1-1.1-0.2-1.1-1v-30.1c0-0.8,0.4-1.2,1.1-1.4l34-6c0.7-0.1,1.1,0.2,1.1,1c0,0.8-0.4,1.3-1.1,1.4l-32.9,5.8v27.7l10.8-1.9
		c0.8-0.1,1.6,0,2.4,0.5c0.8,0.5,1.3,1.5,1.3,2.9c0,0.7-0.1,1.3-0.3,1.8c-0.2,0.5-0.4,0.9-0.7,1.2c-0.6,0.7-1.2,1.1-1.8,1.3
		c-0.6,0.2-1,0.3-1.1,0.3l-10.5,1.9v27.8l32.9-5.8c0.7-0.1,1.1,0.2,1.1,1C610.8,593.6,610.4,594,609.7,594.1z"/>
	<path class="st0" d="M658,585.7l-34.5,6.1c-0.4,0.1-0.8-0.1-0.9-0.5c-0.3-0.3-0.3-0.7,0-1.2c1.7-3,3.5-6.3,5.4-9.9
		c1.9-3.6,3.7-7.2,5.4-10.6c1.6-3.4,3-6.5,4.1-9.1c1.1-2.7,1.6-4.6,1.6-5.6c0-0.7-0.3-1.6-0.8-2.9c-0.5-1.3-1.2-2.7-2-4.4
		c-0.9-1.7-1.9-3.4-3-5.3c-1.1-1.9-2.3-3.8-3.5-5.8c-1.2-2-2.5-3.9-3.7-5.7c-1.2-1.9-2.4-3.6-3.5-5.2c-0.3-0.4-0.3-0.8,0-1.2
		c0.2-0.4,0.5-0.7,0.9-0.8l31.8-5.6c0.8-0.1,1.6,0.1,2.5,0.6c0.9,0.5,1.3,1.5,1.3,2.9c0,0.7-0.1,1.3-0.3,1.8
		c-0.2,0.5-0.4,0.9-0.7,1.2c-0.6,0.7-1.2,1.2-1.8,1.3c-0.6,0.2-1,0.3-1.1,0.3l-11.6,2c-0.8,0.1-1.2-0.2-1.2-1c0-0.8,0.4-1.2,1.2-1.4
		l11.7-2.1c0.1,0,0.3-0.1,0.6-0.2c0.3-0.1,0.5-0.3,0.8-0.5c0.2-0.4,0.3-0.8,0.3-1.1c0-0.8-0.2-1.2-0.6-1.4c-0.4-0.1-0.7-0.2-1-0.1
		l-29.7,5.2c0.7,1,1.5,2.2,2.6,3.8c1,1.6,2.1,3.3,3.3,5.1c1.2,1.8,2.3,3.7,3.5,5.7c1.2,2,2.2,3.9,3.2,5.7c0.9,1.8,1.7,3.5,2.3,5
		c0.6,1.5,0.9,2.7,0.9,3.6c0,0.9-0.3,2.2-0.9,3.9c-0.6,1.7-1.4,3.7-2.3,5.8c-0.9,2.2-2,4.4-3.2,6.8c-1.2,2.4-2.3,4.7-3.5,7
		c-1.2,2.3-2.3,4.4-3.3,6.3c-1,1.9-1.9,3.5-2.6,4.7l32.4-5.7c0.7-0.1,1.1,0.2,1.1,1.1C659.1,585.1,658.8,585.6,658,585.7z"/>
</g>
</svg>
