<?xml version="1.0" encoding="utf-8"?>
<!-- Generator: Adobe Illustrator 21.0.2, SVG Export Plug-In . SVG Version: 6.00 Build 0)  -->
<svg version="1.1" id="Layer_1" xmlns="http://www.w3.org/2000/svg" xmlns:xlink="http://www.w3.org/1999/xlink" x="0px" y="0px"
	 viewBox="0 0 1000 1000" style="enable-background:new 0 0 1000 1000;" xml:space="preserve">
<style type="text/css">
	.st0{fill:#F2F2F2;}
</style>
<g>
	<g>
		<g>
			<g>
				<g>
					<path class="st0" d="M192.2,186.5l-0.3,6.6c0,0.4-0.1,0.7-0.1,1.1v7.7c1.3-2.7,2.1-5.7,2.2-8.7l0.3-6.7H192.2z"/>
				</g>
			</g>
			<g>
				<g>
					<path class="st0" d="M208.5,186.5c-2,3.3-3.2,7-3.4,11l-0.4,8.4c-0.4,8.2-5.7,15.5-12.9,18.9v2.3c8.4-3.6,14.6-11.8,15-21.1
						l0.4-8.4c0.2-4,1.6-7.8,3.8-11.1H208.5z"/>
				</g>
			</g>
			<g>
				<g>
					<path class="st0" d="M252.7,186.5c-1.1,0.2-2.2,0.4-3.3,0.5l-8.4,0.4c-12.1,0.6-22.4,10.9-22.9,22.9l-0.4,8.4
						c-0.5,11-9.9,20.4-21,21l-4.8,0.2v2.1l4.9-0.2c12.1-0.6,22.4-10.9,22.9-22.9l0.4-8.4c0.5-11,9.9-20.4,21-21l8.4-0.4
						c3.3-0.2,6.5-1.1,9.4-2.6H252.7z"/>
				</g>
			</g>
			<g>
				<g>
					<path class="st0" d="M281.2,186.5c-3.3,7.4-10.7,12.9-19.1,13.3l-8.4,0.4c-12.1,0.6-22.4,10.9-22.9,22.9l-0.4,8.4
						c-0.5,11-9.9,20.4-21,21L201,253c-3.3,0.2-6.4,1-9.2,2.5v2.3c2.8-1.6,6-2.6,9.3-2.7l8.4-0.4c12.1-0.6,22.4-10.9,22.9-22.9
						l0.4-8.4c0.5-11,9.9-20.4,21-21l8.4-0.4c9.4-0.5,17.8-6.9,21.2-15.4H281.2z"/>
				</g>
			</g>
			<g>
				<g>
					<path class="st0" d="M296.2,186.5l-0.2,5.2c-0.5,11-9.9,20.4-21,21l-8.4,0.4c-12.1,0.6-22.4,10.9-22.9,22.9l-0.4,8.4
						c-0.5,11-9.9,20.4-21,21l-8.4,0.4c-10.3,0.5-19.3,8.1-22.1,17.8v18.6c0.4-1.6,0.7-3.3,0.8-5l0.4-8.4c0.5-11,9.9-20.4,21-21
						l8.4-0.4c12.1-0.6,22.4-10.9,22.9-22.9l0.4-8.4c0.5-11,9.9-20.4,21-21l8.4-0.4c12.1-0.6,22.4-10.9,22.9-22.9l0.3-5.3H296.2z"/>
				</g>
			</g>
			<g>
				<g>
					<path class="st0" d="M311.8,186.5c-1.5,2.9-2.5,6.2-2.7,9.6l-0.4,8.4c-0.5,11-9.9,20.4-21,21l-8.4,0.4
						c-12.1,0.6-22.4,10.9-22.9,22.9l-0.4,8.4c-0.5,11-9.9,20.4-21,21l-8.4,0.4c-12.1,0.6-22.4,10.9-22.9,22.9l-0.4,8.4
						c-0.4,7.7-5,14.6-11.6,18.2v2.3c7.7-3.8,13.2-11.7,13.7-20.5l0.4-8.4c0.5-11,9.9-20.4,21-21l8.4-0.4
						c12.1-0.6,22.4-10.9,22.9-22.9l0.4-8.4c0.5-11,9.9-20.4,21-21l8.4-0.4c12.1-0.6,22.4-10.9,22.9-22.9l0.4-8.4
						c0.2-3.5,1.2-6.8,2.9-9.7H311.8z"/>
				</g>
			</g>
			<g>
				<g>
					<path class="st0" d="M341.3,186.5c-10.4,2.2-18.8,11.6-19.3,22.4l-0.4,8.4c-0.5,11-9.9,20.4-21,21l-8.4,0.4
						c-12.1,0.6-22.4,10.9-22.9,22.9l-0.4,8.4c-0.5,11-9.9,20.4-21,21l-8.4,0.4c-12.1,0.6-22.4,10.9-22.9,22.9l-0.4,8.4
						c-0.5,11-9.9,20.4-21,21l-3.4,0.2v2.1l3.5-0.2c12.1-0.6,22.4-10.9,22.9-22.9l0.4-8.4c0.5-11,9.9-20.4,21-21l8.4-0.4
						c12.1-0.6,22.4-10.9,22.9-22.9l0.4-8.4c0.5-11,9.9-20.4,21-21l8.4-0.4c12.1-0.6,22.4-10.9,22.9-22.9l0.4-8.4
						c0.5-11,9.9-20.4,21-21l8.4-0.4c2.1-0.1,4.2-0.5,6.1-1.2H341.3z"/>
				</g>
			</g>
			<g>
				<g>
					<path class="st0" d="M384.6,186.5c-3.6,6.7-10.6,11.5-18.4,11.9l-8.4,0.4c-12.1,0.6-22.4,10.9-22.9,22.9l-0.4,8.4
						c-0.5,11-9.9,20.4-21,21l-8.4,0.4c-12.1,0.6-22.4,10.9-22.9,22.9l-0.4,8.4c-0.5,11-9.9,20.4-21,21l-8.4,0.4
						c-12.1,0.6-22.4,10.9-22.9,22.9l-0.4,8.4c-0.5,11-9.9,20.4-21,21l-8.4,0.4c-2.7,0.1-5.4,0.8-7.9,1.8v2.3c2.5-1.2,5.2-1.9,8-2
						l8.4-0.4c12.1-0.6,22.4-10.9,22.9-22.9l0.4-8.4c0.5-11,9.9-20.4,21-21l8.4-0.4c12.1-0.6,22.4-10.9,22.9-22.9l0.4-8.4
						c0.5-11,9.9-20.4,21-21l8.4-0.4c12.1-0.6,22.4-10.9,22.9-22.9l0.4-8.4c0.5-11,9.9-20.4,21-21l8.4-0.4c8.9-0.4,16.9-6.2,20.6-14
						H384.6z"/>
				</g>
			</g>
			<g>
				<g>
					<path class="st0" d="M400.2,186.5l-0.2,3.8c-0.5,11-9.9,20.4-21,21l-8.4,0.4c-12.1,0.6-22.4,10.9-22.9,22.9l-0.4,8.4
						c-0.5,11-9.9,20.4-21,21l-8.4,0.4c-12.1,0.6-22.4,10.9-22.9,22.9l-0.4,8.4c-0.5,11-9.9,20.4-21,21l-8.4,0.4
						c-12.1,0.6-22.4,10.9-22.9,22.9l-0.4,8.4c-0.5,11-9.9,20.4-21,21l-8.4,0.4c-9,0.4-17,6.2-20.7,14.1v7.4
						C193,381,202,372.5,212.5,372l8.4-0.4c12.1-0.6,22.4-10.9,22.9-22.9l0.4-8.4c0.5-11,9.9-20.4,21-21l8.4-0.4
						c12.1-0.6,22.4-10.9,22.9-22.9l0.4-8.4c0.5-11,9.9-20.4,21-21l8.4-0.4c12.1-0.6,22.4-10.9,22.9-22.9l0.4-8.4
						c0.5-11,9.9-20.4,21-21l8.4-0.4c12.1-0.6,22.4-10.9,22.9-22.9l0.2-3.9H400.2z"/>
				</g>
			</g>
			<g>
				<g>
					<path class="st0" d="M415.2,186.5c-1.1,2.6-1.8,5.3-2,8.2l-0.4,8.4c-0.5,11-9.9,20.4-21,21l-8.4,0.4
						c-12.1,0.6-22.4,10.9-22.9,22.9l-0.4,8.4c-0.5,11-9.9,20.4-21,21l-8.4,0.4c-12.1,0.6-22.4,10.9-22.9,22.9l-0.4,8.4
						c-0.5,11-9.9,20.4-21,21L278,330c-12.1,0.6-22.4,10.9-22.9,22.9l-0.4,8.4c-0.5,11-9.9,20.4-21,21l-8.4,0.4
						c-12.1,0.6-22.4,10.9-22.9,22.9l-0.4,8.4c-0.3,7.1-4.4,13.5-10.2,17.4v2.5c6.9-4.1,11.9-11.5,12.3-19.7l0.4-8.4
						c0.5-11,9.9-20.4,21-21l8.4-0.4c12.1-0.6,22.4-10.9,22.9-22.9l0.4-8.4c0.5-11,9.9-20.4,21-21l8.4-0.4
						c12.1-0.6,22.4-10.9,22.9-22.9l0.4-8.4c0.5-11,9.9-20.4,21-21l8.4-0.4c12.1-0.6,22.4-10.9,22.9-22.9l0.4-8.4
						c0.5-11,9.9-20.4,21-21l8.4-0.4c12.1-0.6,22.4-10.9,22.9-22.9l0.4-8.4c0.1-2.9,0.9-5.8,2.2-8.3H415.2z"/>
				</g>
			</g>
			<g>
				<g>
					<path class="st0" d="M441.1,186.5c-8.3,3.6-14.5,11.8-15,21.1l-0.4,8.4c-0.5,11-9.9,20.4-21,21l-8.4,0.4
						c-12.1,0.6-22.4,10.9-22.9,22.9l-0.4,8.4c-0.5,11-9.9,20.4-21,21l-8.4,0.4c-12.1,0.6-22.4,10.9-22.9,22.9l-0.4,8.4
						c-0.5,11-9.9,20.4-21,21l-8.4,0.4c-12.1,0.6-22.4,10.9-22.9,22.9l-0.4,8.4c-0.5,11-9.9,20.4-21,21l-8.4,0.4
						c-12.1,0.6-22.4,10.9-22.9,22.9l-0.4,8.4c-0.5,11-9.9,20.4-21,21l-2.1,0.1v2.1l2.2-0.1c12.1-0.6,22.4-10.9,22.9-22.9l0.4-8.4
						c0.5-11,9.9-20.4,21-21l8.4-0.4c12.1-0.6,22.4-10.9,22.9-22.9l0.4-8.4c0.5-11,9.9-20.4,21-21l8.4-0.4
						c12.1-0.6,22.4-10.9,22.9-22.9l0.4-8.4c0.5-11,9.9-20.4,21-21l8.4-0.4c12.1-0.6,22.4-10.9,22.9-22.9l0.4-8.4
						c0.5-11,9.9-20.4,21-21l8.4-0.4c12.1-0.6,22.4-10.9,22.9-22.9l0.4-8.4c0.5-11,9.9-20.4,21-21l4.3-0.2H441.1z"/>
				</g>
			</g>
			<g>
				<g>
					<path class="st0" d="M487.9,186.5c-3.8,6-10.3,10.2-17.6,10.5l-8.4,0.4c-12.1,0.6-22.4,10.9-22.9,22.9l-0.4,8.4
						c-0.5,11-9.9,20.4-21,21l-8.4,0.4c-12.1,0.6-22.4,10.9-22.9,22.9l-0.4,8.4c-0.5,11-9.9,20.4-21,21l-8.4,0.4
						c-12.1,0.6-22.4,10.9-22.9,22.9l-0.4,8.4c-0.5,11-9.9,20.4-21,21l-8.4,0.4c-12.1,0.6-22.4,10.9-22.9,22.9l-0.4,8.4
						c-0.5,11-9.9,20.4-21,21l-8.4,0.4c-12.1,0.6-22.4,10.9-22.9,22.9l-0.4,8.4c-0.5,11-9.9,20.4-21,21l-8.4,0.4
						c-2.2,0.1-4.4,0.6-6.5,1.3v2.2c2.1-0.8,4.3-1.3,6.6-1.4l8.4-0.4c12.1-0.6,22.4-10.9,22.9-22.9l0.4-8.4c0.5-11,9.9-20.4,21-21
						l8.4-0.4c12.1-0.6,22.4-10.9,22.9-22.9l0.4-8.4c0.5-11,9.9-20.4,21-21l8.4-0.4c12.1-0.6,22.4-10.9,22.9-22.9l0.4-8.4
						c0.5-11,9.9-20.4,21-21l8.4-0.4c12.1-0.6,22.4-10.9,22.9-22.9l0.4-8.4c0.5-11,9.9-20.4,21-21l8.4-0.4
						c12.1-0.6,22.4-10.9,22.9-22.9l0.4-8.4c0.5-11,9.9-20.4,21-21l8.4-0.4c8.4-0.4,15.9-5.5,19.9-12.6H487.9z"/>
				</g>
			</g>
			<g>
				<g>
					<path class="st0" d="M504.2,186.5l-0.1,2.4c-0.5,11-9.9,20.4-21,21l-8.4,0.4c-12.1,0.6-22.4,10.9-22.9,22.9l-0.4,8.4
						c-0.5,11-9.9,20.4-21,21L422,263c-12.1,0.6-22.4,10.9-22.9,22.9l-0.4,8.4c-0.5,11-9.9,20.4-21,21l-8.4,0.4
						c-12.1,0.6-22.4,10.9-22.9,22.9l-0.4,8.4c-0.5,11-9.9,20.4-21,21l-8.4,0.4c-12.1,0.6-22.4,10.9-22.9,22.9l-0.4,8.4
						c-0.5,11-9.9,20.4-21,21l-8.4,0.4c-12.1,0.6-22.4,10.9-22.9,22.9l-0.4,8.4c-0.5,11-9.9,20.4-21,21l-8.4,0.4
						c-8,0.4-15.2,5-19.3,11.7v4.6c3.2-7.8,10.8-13.7,19.4-14.1l8.4-0.4c12.1-0.6,22.4-10.9,22.9-22.9l0.4-8.4
						c0.5-11,9.9-20.4,21-21l8.4-0.4c12.1-0.6,22.4-10.9,22.9-22.9l0.4-8.4c0.5-11,9.9-20.4,21-21l8.4-0.4
						c12.1-0.6,22.4-10.9,22.9-22.9l0.4-8.4c0.5-11,9.9-20.4,21-21l8.4-0.4c12.1-0.6,22.4-10.9,22.9-22.9l0.4-8.4
						c0.5-11,9.9-20.4,21-21l8.4-0.4c12.1-0.6,22.4-10.9,22.9-22.9l0.4-8.4c0.5-11,9.9-20.4,21-21l8.4-0.4
						c12.1-0.6,22.4-10.9,22.9-22.9l0.1-2.5H504.2z"/>
				</g>
			</g>
			<g>
				<g>
					<path class="st0" d="M518.8,186.5c-0.8,2.2-1.3,4.5-1.4,6.8l-0.4,8.4c-0.5,11-9.9,20.4-21,21l-8.4,0.4
						c-12.1,0.6-22.4,10.9-22.9,22.9l-0.4,8.4c-0.5,11-9.9,20.4-21,21l-8.4,0.4c-12.1,0.6-22.4,10.9-22.9,22.9l-0.4,8.4
						c-0.5,11-9.9,20.4-21,21l-8.4,0.4c-12.1,0.6-22.4,10.9-22.9,22.9l-0.4,8.4c-0.5,11-9.9,20.4-21,21l-8.4,0.4
						c-12.1,0.6-22.4,10.9-22.9,22.9l-0.4,8.4c-0.5,11-9.9,20.4-21,21l-8.4,0.4c-12.1,0.6-22.4,10.9-22.9,22.9l-0.4,8.4
						c-0.5,11-9.9,20.4-21,21l-8.4,0.4c-12.1,0.6-22.4,10.9-22.9,22.9l-0.4,8.4c-0.3,6.5-3.8,12.5-8.8,16.4v2.6
						c6.2-4.2,10.5-11.2,10.9-18.8l0.4-8.4c0.5-11,9.9-20.4,21-21l8.4-0.4c12.1-0.6,22.4-10.9,22.9-22.9l0.4-8.4
						c0.5-11,9.9-20.4,21-21l8.4-0.4c12.1-0.6,22.4-10.9,22.9-22.9l0.4-8.4c0.5-11,9.9-20.4,21-21l8.4-0.4
						c12.1-0.6,22.4-10.9,22.9-22.9l0.4-8.4c0.5-11,9.9-20.4,21-21l8.4-0.4c12.1-0.6,22.4-10.9,22.9-22.9l0.4-8.4
						c0.5-11,9.9-20.4,21-21l8.4-0.4c12.1-0.6,22.4-10.9,22.9-22.9l0.4-8.4c0.5-11,9.9-20.4,21-21l8.4-0.4
						c12.1-0.6,22.4-10.9,22.9-22.9l0.4-8.4c0.1-2.4,0.7-4.8,1.6-6.9H518.8z"/>
				</g>
			</g>
			<g>
				<g>
					<path class="st0" d="M542.4,186.5c-6.9,4.1-11.8,11.5-12.2,19.7l-0.4,8.4c-0.5,11-9.9,20.4-21,21l-8.4,0.4
						c-12.1,0.6-22.4,10.9-22.9,22.9l-0.4,8.4c-0.5,11-9.9,20.4-21,21l-8.4,0.4c-12.1,0.6-22.4,10.9-22.9,22.9l-0.4,8.4
						c-0.5,11-9.9,20.4-21,21l-8.4,0.4c-12.1,0.6-22.4,10.9-22.9,22.9l-0.4,8.4c-0.5,11-9.9,20.4-21,21l-8.4,0.4
						c-12.1,0.6-22.4,10.9-22.9,22.9l-0.4,8.4c-0.5,11-9.9,20.4-21,21l-8.4,0.4c-12.1,0.6-22.4,10.9-22.9,22.9l-0.4,8.4
						c-0.5,11-9.9,20.4-21,21l-8.4,0.4c-12.1,0.6-22.4,10.9-22.9,22.9l-0.4,8.4c-0.5,11-9.9,20.4-21,21l-0.7,0v2.1l0.8,0
						c12.1-0.6,22.4-10.9,22.9-22.9l0.4-8.4c0.5-11,9.9-20.4,21-21l8.4-0.4c12.1-0.6,22.4-10.9,22.9-22.9l0.4-8.4
						c0.5-11,9.9-20.4,21-21l8.4-0.4c12.1-0.6,22.4-10.9,22.9-22.9l0.4-8.4c0.5-11,9.9-20.4,21-21l8.4-0.4
						c12.1-0.6,22.4-10.9,22.9-22.9l0.4-8.4c0.5-11,9.9-20.4,21-21l8.4-0.4c12.1-0.6,22.4-10.9,22.9-22.9l0.4-8.4
						c0.5-11,9.9-20.4,21-21l8.4-0.4c12.1-0.6,22.4-10.9,22.9-22.9l0.4-8.4c0.5-11,9.9-20.4,21-21l8.4-0.4
						c12.1-0.6,22.4-10.9,22.9-22.9l0.4-8.4c0.4-9,6.7-16.9,15-19.8H542.4z"/>
				</g>
			</g>
			<g>
				<g>
					<path class="st0" d="M591,186.5c-3.9,5.2-10,8.8-16.6,9.2l-8.4,0.4c-12.1,0.6-22.4,10.9-22.9,22.9l-0.4,8.4
						c-0.5,11-9.9,20.4-21,21l-8.4,0.4c-12.1,0.6-22.4,10.9-22.9,22.9l-0.4,8.4c-0.5,11-9.9,20.4-21,21l-8.4,0.4
						c-12.1,0.6-22.4,10.9-22.9,22.9l-0.4,8.4c-0.5,11-9.9,20.4-21,21l-8.4,0.4c-12.1,0.6-22.4,10.9-22.9,22.9l-0.4,8.4
						c-0.5,11-9.9,20.4-21,21L355,407c-12.1,0.6-22.4,10.9-22.9,22.9l-0.4,8.4c-0.5,11-9.9,20.4-21,21l-8.4,0.4
						c-12.1,0.6-22.4,10.9-22.9,22.9l-0.4,8.4c-0.5,11-9.9,20.4-21,21l-8.4,0.4c-12.1,0.6-22.4,10.9-22.9,22.9l-0.4,8.4
						c-0.5,11-9.9,20.4-21,21l-8.4,0.4c-1.8,0.1-3.5,0.4-5.1,0.9v2.2c1.7-0.5,3.4-0.9,5.2-1l8.4-0.4c12.1-0.6,22.4-10.9,22.9-22.9
						l0.4-8.4c0.5-11,9.9-20.4,21-21l8.4-0.4c12.1-0.6,22.4-10.9,22.9-22.9l0.4-8.4c0.5-11,9.9-20.4,21-21l8.4-0.4
						c12.1-0.6,22.4-10.9,22.9-22.9l0.4-8.4c0.5-11,9.9-20.4,21-21l8.4-0.4c12.1-0.6,22.4-10.9,22.9-22.9l0.4-8.4
						c0.5-11,9.9-20.4,21-21l8.4-0.4c12.1-0.6,22.4-10.9,22.9-22.9l0.4-8.4c0.5-11,9.9-20.4,21-21l8.4-0.4
						c12.1-0.6,22.4-10.9,22.9-22.9l0.4-8.4c0.5-11,9.9-20.4,21-21l8.4-0.4c12.1-0.6,22.4-10.9,22.9-22.9l0.4-8.4
						c0.5-11,9.9-20.4,21-21l8.4-0.4c7.8-0.4,14.9-4.9,19.1-11.3H591z"/>
				</g>
			</g>
			<g>
				<g>
					<path class="st0" d="M608.2,186.5l0,1c-0.5,11-9.9,20.4-21,21l-8.4,0.4c-12.1,0.6-22.4,10.9-22.9,22.9l-0.4,8.4
						c-0.5,11-9.9,20.4-21,21l-8.4,0.4c-12.1,0.6-22.4,10.9-22.9,22.9l-0.4,8.4c-0.5,11-9.9,20.4-21,21l-8.4,0.4
						c-12.1,0.6-22.4,10.9-22.9,22.9l-0.4,8.4c-0.5,11-9.9,20.4-21,21l-8.4,0.4c-12.1,0.6-22.4,10.9-22.9,22.9l-0.4,8.4
						c-0.5,11-9.9,20.4-21,21l-8.4,0.4c-12.1,0.6-22.4,10.9-22.9,22.9l-0.4,8.4c-0.5,11-9.9,20.4-21,21l-8.4,0.4
						c-12.1,0.6-22.4,10.9-22.9,22.9l-0.4,8.4c-0.5,11-9.9,20.4-21,21l-8.4,0.4c-12.1,0.6-22.4,10.9-22.9,22.9l-0.4,8.4
						c-0.5,11-9.9,20.4-21,21l-8.4,0.4c-7.2,0.3-13.7,4.1-17.9,9.7v3.7c3.7-6.4,10.5-10.9,18-11.3l8.4-0.4
						c12.1-0.6,22.4-10.9,22.9-22.9l0.4-8.4c0.5-11,9.9-20.4,21-21l8.4-0.4c12.1-0.6,22.4-10.9,22.9-22.9l0.4-8.4
						c0.5-11,9.9-20.4,21-21l8.4-0.4c12.1-0.6,22.4-10.9,22.9-22.9l0.4-8.4c0.5-11,9.9-20.4,21-21l8.4-0.4
						c12.1-0.6,22.4-10.9,22.9-22.9l0.4-8.4c0.5-11,9.9-20.4,21-21l8.4-0.4c12.1-0.6,22.4-10.9,22.9-22.9l0.4-8.4
						c0.5-11,9.9-20.4,21-21l8.4-0.4c12.1-0.6,22.4-10.9,22.9-22.9l0.4-8.4c0.5-11,9.9-20.4,21-21l8.4-0.4
						c12.1-0.6,22.4-10.9,22.9-22.9l0.4-8.4c0.5-11,9.9-20.4,21-21l8.4-0.4c12.1-0.6,22.4-10.9,23-22.9l0.1-1.1H608.2z"/>
				</g>
			</g>
			<g>
				<g>
					<path class="st0" d="M622.4,186.5c-0.5,1.8-0.9,3.6-1,5.5l-0.4,8.4c-0.5,11-9.9,20.4-21,21l-8.4,0.4
						c-12.1,0.6-22.4,10.9-22.9,22.9l-0.4,8.4c-0.5,11-9.9,20.4-21,21l-8.4,0.4c-12.1,0.6-22.4,10.9-22.9,22.9l-0.4,8.4
						c-0.5,11-9.9,20.4-21,21l-8.4,0.4c-12.1,0.6-22.4,10.9-22.9,22.9l-0.4,8.4c-0.5,11-9.9,20.4-21,21l-8.4,0.4
						c-12.1,0.6-22.4,10.9-22.9,22.9l-0.4,8.4c-0.5,11-9.9,20.4-21,21l-8.4,0.4c-12.1,0.6-22.4,10.9-22.9,22.9l-0.4,8.4
						c-0.5,11-9.9,20.4-21,21l-8.4,0.4c-12.1,0.6-22.4,10.9-22.9,22.9l-0.4,8.4c-0.5,11-9.9,20.4-21,21l-8.4,0.4
						c-12.1,0.6-22.4,10.9-22.9,22.9l-0.4,8.4c-0.5,11-9.9,20.4-21,21l-8.4,0.4c-12.1,0.6-22.4,10.9-22.9,22.9l-0.4,8.4
						c-0.3,5.9-3.1,11.4-7.4,15.2v2.7c5.5-4.3,9.2-10.7,9.5-17.8l0.4-8.4c0.5-11,9.9-20.4,21-21l8.4-0.4
						c12.1-0.6,22.4-10.9,22.9-22.9l0.4-8.4c0.5-11,9.9-20.4,21-21l8.4-0.4c12.1-0.6,22.4-10.9,22.9-22.9l0.4-8.4
						c0.5-11,9.9-20.4,21-21l8.4-0.4c12.1-0.6,22.4-10.9,22.9-22.9l0.4-8.4c0.5-11,9.9-20.4,21-21l8.4-0.4
						c12.1-0.6,22.4-10.9,22.9-22.9l0.4-8.4c0.5-11,9.9-20.4,21-21l8.4-0.4c12.1-0.6,22.4-10.9,22.9-22.9l0.4-8.4
						c0.5-11,9.9-20.4,21-21l8.4-0.4c12.1-0.6,22.4-10.9,22.9-22.9l0.4-8.4c0.5-11,9.9-20.4,21-21l8.4-0.4
						c12.1-0.6,22.4-10.9,22.9-22.9l0.4-8.4c0.5-11,9.9-20.4,21-21l8.4-0.4c12.1-0.6,22.4-10.9,22.9-22.9l0.4-8.4
						c0.1-1.9,0.5-3.8,1.1-5.6H622.4z"/>
				</g>
			</g>
			<g>
				<g>
					<path class="st0" d="M644.4,186.5c-5.8,4.2-9.8,10.9-10.1,18.3l-0.4,8.4c-0.5,11-9.9,20.4-21,21l-8.4,0.4
						c-12.1,0.6-22.4,10.9-22.9,22.9l-0.4,8.4c-0.5,11-9.9,20.4-21,21l-8.4,0.4c-12.1,0.6-22.4,10.9-22.9,22.9l-0.4,8.4
						c-0.5,11-9.9,20.4-21,21l-8.4,0.4c-12.1,0.6-22.4,10.9-22.9,22.9l-0.4,8.4c-0.5,11-9.9,20.4-21,21l-8.4,0.4
						c-12.1,0.6-22.4,10.9-22.9,22.9l-0.4,8.4c-0.5,11-9.9,20.4-21,21l-8.4,0.4c-12.1,0.6-22.4,10.9-22.9,22.9l-0.4,8.4
						c-0.5,11-9.9,20.4-21,21l-8.4,0.4c-12.1,0.6-22.4,10.9-22.9,22.9l-0.4,8.4c-0.5,11-9.9,20.4-21,21l-8.4,0.4
						c-12.1,0.6-22.4,10.9-22.9,22.9l-0.4,8.4c-0.5,11-9.9,20.4-21,21l-8.4,0.4c-12.1,0.6-22.4,10.9-22.9,22.9l-0.4,8.4
						c-0.5,10.8-9.5,20-20.3,20.9v2.1c11.8-0.9,21.8-11,22.4-22.9l0.4-8.4c0.5-11,9.9-20.4,21-21l8.4-0.4
						c12.1-0.6,22.4-10.9,22.9-22.9l0.4-8.4c0.5-11,9.9-20.4,21-21l8.4-0.4c12.1-0.6,22.4-10.9,22.9-22.9l0.4-8.4
						c0.5-11,9.9-20.4,21-21l8.4-0.4c12.1-0.6,22.4-10.9,22.9-22.9l0.4-8.4c0.5-11,9.9-20.4,21-21l8.4-0.4
						c12.1-0.6,22.4-10.9,22.9-22.9l0.4-8.4c0.5-11,9.9-20.4,21-21l8.4-0.4c12.1-0.6,22.4-10.9,22.9-22.9l0.4-8.4
						c0.5-11,9.9-20.4,21-21l8.4-0.4c12.1-0.6,22.4-10.9,22.9-22.9l0.4-8.4c0.5-11,9.9-20.4,21-21l8.4-0.4
						c12.1-0.6,22.4-10.9,22.9-22.9l0.4-8.4c0.5-11,9.9-20.4,21-21l8.4-0.4c12.1-0.6,22.4-10.9,23-22.9l0.4-8.4
						c0.4-7.8,5.2-14.8,11.9-18.4H644.4z"/>
				</g>
			</g>
			<g>
				<g>
					<path class="st0" d="M694,186.5c-3.9,4.5-9.5,7.5-15.5,7.8l-8.4,0.4c-12.1,0.6-22.4,10.9-22.9,22.9l-0.4,8.4
						c-0.5,11-9.9,20.4-21,21l-8.4,0.4c-12.1,0.6-22.4,10.9-22.9,22.9l-0.4,8.4c-0.5,11-9.9,20.4-21,21l-8.4,0.4
						c-12.1,0.6-22.4,10.9-22.9,22.9l-0.4,8.4c-0.5,11-9.9,20.4-21,21l-8.4,0.4c-12.1,0.6-22.4,10.9-22.9,22.9l-0.4,8.4
						c-0.5,11-9.9,20.4-21,21l-8.4,0.4c-12.1,0.6-22.4,10.9-22.9,22.9l-0.4,8.4c-0.5,11-9.9,20.4-21,21l-8.4,0.4
						c-12.1,0.6-22.4,10.9-22.9,22.9l-0.4,8.4c-0.5,11-9.9,20.4-21,21l-8.4,0.4c-12.1,0.6-22.4,10.9-22.9,22.9l-0.4,8.4
						c-0.5,11-9.9,20.4-21,21l-8.4,0.4c-12.1,0.6-22.4,10.9-22.9,22.9l-0.4,8.4c-0.5,11-9.9,20.4-21,21l-8.4,0.4
						c-12.1,0.6-22.4,10.9-22.9,22.9l-0.4,8.4c-0.5,11-9.9,20.4-21,21l-8.4,0.4c-1.3,0.1-2.5,0.3-3.7,0.5v2.1
						c1.2-0.3,2.5-0.5,3.8-0.6l8.4-0.4c12.1-0.6,22.4-10.9,22.9-22.9l0.4-8.4c0.5-11,9.9-20.4,21-21l8.4-0.4
						c12.1-0.6,22.4-10.9,22.9-22.9l0.4-8.4c0.5-11,9.9-20.4,21-21l8.4-0.4c12.1-0.6,22.4-10.9,22.9-22.9l0.4-8.4
						c0.5-11,9.9-20.4,21-21l8.4-0.4c12.1-0.6,22.4-10.9,22.9-22.9l0.4-8.4c0.5-11,9.9-20.4,21-21l8.4-0.4
						c12.1-0.6,22.4-10.9,22.9-22.9l0.4-8.4c0.5-11,9.9-20.4,21-21l8.4-0.4c12.1-0.6,22.4-10.9,22.9-22.9l0.4-8.4
						c0.5-11,9.9-20.4,21-21l8.4-0.4c12.1-0.6,22.4-10.9,22.9-22.9l0.4-8.4c0.5-11,9.9-20.4,21-21l8.4-0.4
						c12.1-0.6,22.4-10.9,22.9-22.9l0.4-8.4c0.5-11,9.9-20.4,21-21l8.4-0.4c12.1-0.6,22.4-10.9,22.9-22.9l0.4-8.4
						c0.5-11,9.9-20.4,21-21l8.4-0.4c7.3-0.4,13.9-4.2,18.1-9.9H694z"/>
				</g>
			</g>
			<g>
				<g>
					<path class="st0" d="M712.2,186.5c-0.7,10.9-10,20.1-20.9,20.6l-8.4,0.4c-12.1,0.6-22.4,10.9-22.9,22.9l-0.4,8.4
						c-0.5,11-9.9,20.4-21,21l-8.4,0.4c-12.1,0.6-22.4,10.9-22.9,22.9l-0.4,8.4c-0.5,11-9.9,20.4-21,21l-8.4,0.4
						c-12.1,0.6-22.4,10.9-22.9,22.9l-0.4,8.4c-0.5,11-9.9,20.4-21,21l-8.4,0.4c-12.1,0.6-22.4,10.9-22.9,22.9l-0.4,8.4
						c-0.5,11-9.9,20.4-21,21l-8.4,0.4c-12.1,0.6-22.4,10.9-22.9,22.9l-0.4,8.4c-0.5,11-9.9,20.4-21,21l-8.4,0.4
						c-12.1,0.6-22.4,10.9-22.9,22.9l-0.4,8.4c-0.5,11-9.9,20.4-21,21l-8.4,0.4c-12.1,0.6-22.4,10.9-22.9,22.9l-0.4,8.4
						c-0.5,11-9.9,20.4-21,21l-8.4,0.4c-12.1,0.6-22.4,10.9-22.9,22.9l-0.4,8.4c-0.5,11-9.9,20.4-21,21l-8.4,0.4
						c-12.1,0.6-22.4,10.9-22.9,22.9l-0.4,8.4c-0.5,11-9.9,20.4-21,21l-8.4,0.4c-6.4,0.3-12.4,3.4-16.6,8v3.3
						c3.9-5.3,10-8.9,16.7-9.2l8.4-0.4c12.1-0.6,22.4-10.9,22.9-22.9l0.4-8.4c0.5-11,9.9-20.4,21-21l8.4-0.4
						c12.1-0.6,22.4-10.9,22.9-22.9l0.4-8.4c0.5-11,9.9-20.4,21-21l8.4-0.4c12.1-0.6,22.4-10.9,22.9-22.9l0.4-8.4
						c0.5-11,9.9-20.4,21-21l8.4-0.4c12.1-0.6,22.4-10.9,22.9-22.9l0.4-8.4c0.5-11,9.9-20.4,21-21l8.4-0.4
						c12.1-0.6,22.4-10.9,22.9-22.9l0.4-8.4c0.5-11,9.9-20.4,21-21l8.4-0.4c12.1-0.6,22.4-10.9,22.9-22.9l0.4-8.4
						c0.5-11,9.9-20.4,21-21l8.4-0.4c12.1-0.6,22.4-10.9,22.9-22.9l0.4-8.4c0.5-11,9.9-20.4,21-21l8.4-0.4
						c12.1-0.6,22.4-10.9,22.9-22.9l0.4-8.4c0.5-11,9.9-20.4,21-21l8.4-0.4c12.1-0.6,22.4-10.9,23-22.9l0.4-8.4
						c0.5-11,9.9-20.4,21-21l8.4-0.4c12-0.6,22.2-10.7,22.9-22.7H712.2z"/>
				</g>
			</g>
			<g>
				<g>
					<path class="st0" d="M726.1,186.5c-0.3,1.3-0.5,2.7-0.6,4.1l-0.4,8.4c-0.5,11-9.9,20.4-21,21l-8.4,0.4
						c-12.1,0.6-22.4,10.9-22.9,22.9l-0.4,8.4c-0.5,11-9.9,20.4-21,21l-8.4,0.4c-12.1,0.6-22.4,10.9-22.9,22.9l-0.4,8.4
						c-0.5,11-9.9,20.4-21,21l-8.4,0.4c-12.1,0.6-22.4,10.9-22.9,22.9l-0.4,8.4c-0.5,11-9.9,20.4-21,21l-8.4,0.4
						c-12.1,0.6-22.4,10.9-22.9,22.9l-0.4,8.4c-0.5,11-9.9,20.4-21,21l-8.4,0.4c-12.1,0.6-22.4,10.9-22.9,22.9l-0.4,8.4
						c-0.5,11-9.9,20.4-21,21l-8.4,0.4c-12.1,0.6-22.4,10.9-22.9,22.9l-0.4,8.4c-0.5,11-9.9,20.4-21,21l-8.4,0.4
						c-12.1,0.6-22.4,10.9-22.9,22.9l-0.4,8.4c-0.5,11-9.9,20.4-21,21l-8.4,0.4c-12.1,0.6-22.4,10.9-22.9,22.9l-0.4,8.4
						c-0.5,11-9.9,20.4-21,21l-8.4,0.4c-12.1,0.6-22.4,10.9-22.9,22.9l-0.4,8.4c-0.5,11-9.9,20.4-21,21l-8.4,0.4
						c-12.1,0.6-22.4,10.9-22.9,22.9l-0.4,8.4c-0.3,5.3-2.5,10.2-6.1,13.9v2.9c4.7-4.2,7.8-10.2,8.2-16.7l0.4-8.4
						c0.5-11,9.9-20.4,21-21l8.4-0.4c12.1-0.6,22.4-10.9,22.9-22.9l0.4-8.4c0.5-11,9.9-20.4,21-21l8.4-0.4
						c12.1-0.6,22.4-10.9,22.9-22.9l0.4-8.4c0.5-11,9.9-20.4,21-21l8.4-0.4c12.1-0.6,22.4-10.9,22.9-22.9l0.4-8.4
						c0.5-11,9.9-20.4,21-21l8.4-0.4c12.1-0.6,22.4-10.9,22.9-22.9l0.4-8.4c0.5-11,9.9-20.4,21-21l8.4-0.4
						c12.1-0.6,22.4-10.9,22.9-22.9l0.4-8.4c0.5-11,9.9-20.4,21-21l8.4-0.4c12.1-0.6,22.4-10.9,22.9-22.9l0.4-8.4
						c0.5-11,9.9-20.4,21-21l8.4-0.4c12.1-0.6,22.4-10.9,22.9-22.9l0.4-8.4c0.5-11,9.9-20.4,21-21l8.4-0.4
						c12.1-0.6,22.4-10.9,22.9-22.9l0.4-8.4c0.5-11,9.9-20.4,21-21l8.4-0.4c12.1-0.6,22.4-10.9,22.9-22.9l0.4-8.4
						c0.5-11,9.9-20.4,21-21l8.4-0.4c12.1-0.6,22.4-10.9,22.9-22.9l0.4-8.4c0.1-1.4,0.3-2.8,0.6-4.2H726.1z"/>
				</g>
			</g>
			<g>
				<g>
					<path class="st0" d="M746.7,186.5c-4.8,4.2-8.1,10.3-8.4,16.9l-0.4,8.4c-0.5,11-9.9,20.4-21,21l-8.4,0.4
						c-12.1,0.6-22.4,10.9-22.9,22.9l-0.4,8.4c-0.5,11-9.9,20.4-21,21l-8.4,0.4c-12.1,0.6-22.4,10.9-22.9,22.9l-0.4,8.4
						c-0.5,11-9.9,20.4-21,21l-8.4,0.4c-12.1,0.6-22.4,10.9-22.9,22.9l-0.4,8.4c-0.5,11-9.9,20.4-21,21l-8.4,0.4
						c-12.1,0.6-22.4,10.9-22.9,22.9l-0.4,8.4c-0.5,11-9.9,20.4-21,21l-8.4,0.4c-12.1,0.6-22.4,10.9-22.9,22.9l-0.4,8.4
						c-0.5,11-9.9,20.4-21,21l-8.4,0.4c-12.1,0.6-22.4,10.9-22.9,22.9l-0.4,8.4c-0.5,11-9.9,20.4-21,21l-8.4,0.4
						c-12.1,0.6-22.4,10.9-22.9,22.9l-0.4,8.4c-0.5,11-9.9,20.4-21,21l-8.4,0.4c-12.1,0.6-22.4,10.9-22.9,22.9l-0.4,8.4
						c-0.5,11-9.9,20.4-21,21l-8.4,0.4c-12.1,0.6-22.4,10.9-22.9,22.9l-0.4,8.4c-0.5,11-9.9,20.4-21,21l-8.4,0.4
						c-12.1,0.6-22.4,10.9-22.9,22.9l-0.4,8.4c-0.5,10.3-8.8,19.2-18.9,20.8v2.1c11.2-1.5,20.4-11.3,21-22.8l0.4-8.4
						c0.5-11,9.9-20.4,21-21l8.4-0.4c12.1-0.6,22.4-10.9,22.9-22.9l0.4-8.4c0.5-11,9.9-20.4,21-21l8.4-0.4
						c12.1-0.6,22.4-10.9,22.9-22.9l0.4-8.4c0.5-11,9.9-20.4,21-21l8.4-0.4c12.1-0.6,22.4-10.9,22.9-22.9l0.4-8.4
						c0.5-11,9.9-20.4,21-21l8.4-0.4c12.1-0.6,22.4-10.9,22.9-22.9l0.4-8.4c0.5-11,9.9-20.4,21-21l8.4-0.4
						c12.1-0.6,22.4-10.9,22.9-22.9l0.4-8.4c0.5-11,9.9-20.4,21-21l8.4-0.4c12.1-0.6,22.4-10.9,22.9-22.9l0.4-8.4
						c0.5-11,9.9-20.4,21-21l8.4-0.4c12.1-0.6,22.4-10.9,22.9-22.9l0.4-8.4c0.5-11,9.9-20.4,21-21l8.4-0.4
						c12.1-0.6,22.4-10.9,22.9-22.9l0.4-8.4c0.5-11,9.9-20.4,21-21l8.4-0.4c12.1-0.6,22.4-10.9,22.9-22.9l0.4-8.4
						c0.5-11,9.9-20.4,21-21l8.4-0.4c12.1-0.6,22.4-10.9,22.9-22.9l0.4-8.4c0.3-6.9,4.1-13.2,9.6-17H746.7z"/>
				</g>
			</g>
			<g>
				<g>
					<path class="st0" d="M796.8,186.5c-3.8,3.7-8.8,6.1-14.2,6.4l-8.4,0.4c-12.1,0.6-22.4,10.9-22.9,22.9l-0.4,8.4
						c-0.5,11-9.9,20.4-21,21l-8.4,0.4c-12.1,0.6-22.4,10.9-23,22.9l-0.4,8.4c-0.5,11-9.9,20.4-21,21l-8.4,0.4
						c-12.1,0.6-22.4,10.9-22.9,22.9l-0.4,8.4c-0.5,11-9.9,20.4-21,21l-8.4,0.4c-12.1,0.6-22.4,10.9-22.9,22.9l-0.4,8.4
						c-0.5,11-9.9,20.4-21,21l-8.4,0.4c-12.1,0.6-22.4,10.9-22.9,22.9l-0.4,8.4c-0.5,11-9.9,20.4-21,21l-8.4,0.4
						c-12.1,0.6-22.4,10.9-22.9,22.9l-0.4,8.4c-0.5,11-9.9,20.4-21,21l-8.4,0.4c-12.1,0.6-22.4,10.9-22.9,22.9l-0.4,8.4
						c-0.5,11-9.9,20.4-21,21l-8.4,0.4c-12.1,0.6-22.4,10.9-22.9,22.9l-0.4,8.4c-0.5,11-9.9,20.4-21,21l-8.4,0.4
						c-12.1,0.6-22.4,10.9-22.9,22.9l-0.4,8.4c-0.5,11-9.9,20.4-21,21l-8.4,0.4c-12.1,0.6-22.4,10.9-22.9,22.9l-0.4,8.4
						c-0.5,11-9.9,20.4-21,21l-8.4,0.4c-12.1,0.6-22.4,10.9-22.9,22.9l-0.4,8.4c-0.5,11-9.9,20.4-21,21l-8.4,0.4
						c-0.8,0-1.6,0.1-2.4,0.2v2.1c0.8-0.1,1.6-0.2,2.5-0.3l8.4-0.4c12.1-0.6,22.4-10.9,22.9-22.9l0.4-8.4c0.5-11,9.9-20.4,21-21
						l8.4-0.4c12.1-0.6,22.4-10.9,22.9-22.9l0.4-8.4c0.5-11,9.9-20.4,21-21l8.4-0.4c12.1-0.6,22.4-10.9,22.9-22.9l0.4-8.4
						c0.5-11,9.9-20.4,21-21l8.4-0.4c12.1-0.6,22.4-10.9,22.9-22.9l0.4-8.4c0.5-11,9.9-20.4,21-21l8.4-0.4
						c12.1-0.6,22.4-10.9,22.9-22.9l0.4-8.4c0.5-11,9.9-20.4,21-21l8.4-0.4c12.1-0.6,22.4-10.9,22.9-22.9l0.4-8.4
						c0.5-11,9.9-20.4,21-21l8.4-0.4c12.1-0.6,22.4-10.9,22.9-22.9l0.4-8.4c0.5-11,9.9-20.4,21-21l8.4-0.4
						c12.1-0.6,22.4-10.9,22.9-22.9l0.4-8.4c0.5-11,9.9-20.4,21-21l8.4-0.4c12.1-0.6,22.4-10.9,22.9-22.9l0.4-8.4
						c0.5-11,9.9-20.4,21-21l8.4-0.4c12.1-0.6,22.4-10.9,22.9-22.9l0.4-8.4c0.5-11,9.9-20.4,21-21l8.4-0.4
						c12.1-0.6,22.4-10.9,22.9-22.9l0.4-8.4c0.5-11,9.9-20.4,21-21l8.4-0.4c6.6-0.3,12.7-3.6,17-8.5H796.8z"/>
				</g>
			</g>
			<g>
				<g>
					<path class="st0" d="M809,200c-3.7,3.4-8.5,5.5-13.6,5.8l-8.4,0.4c-12.1,0.6-22.4,10.9-22.9,22.9l-0.4,8.4
						c-0.5,11-9.9,20.4-21,21l-8.4,0.4c-12.1,0.6-22.4,10.9-22.9,22.9l-0.4,8.4c-0.5,11-9.9,20.4-21,21l-8.4,0.4
						c-12.1,0.6-22.4,10.9-22.9,22.9l-0.4,8.4c-0.5,11-9.9,20.4-21,21l-8.4,0.4c-12.1,0.6-22.4,10.9-22.9,22.9l-0.4,8.4
						c-0.5,11-9.9,20.4-21,21l-8.4,0.4c-12.1,0.6-22.4,10.9-22.9,22.9l-0.4,8.4c-0.5,11-9.9,20.4-21,21l-8.4,0.4
						c-12.1,0.6-22.4,10.9-22.9,22.9l-0.4,8.4c-0.5,11-9.9,20.4-21,21l-8.4,0.4c-12.1,0.6-22.4,10.9-22.9,22.9l-0.4,8.4
						c-0.5,11-9.9,20.4-21,21l-8.4,0.4c-12.1,0.6-22.4,10.9-22.9,22.9l-0.4,8.4c-0.5,11-9.9,20.4-21,21l-8.4,0.4
						c-12.1,0.6-22.4,10.9-22.9,22.9l-0.4,8.4c-0.5,11-9.9,20.4-21,21l-8.4,0.4c-12.1,0.6-22.4,10.9-22.9,22.9l-0.4,8.4
						c-0.5,11-9.9,20.4-21,21l-8.4,0.4c-12.1,0.6-22.4,10.9-22.9,22.9l-0.4,8.4c-0.5,11-9.9,20.4-21,21l-8.4,0.4
						c-5.8,0.3-11.1,2.8-15.2,6.6v3c3.9-4.3,9.3-7.2,15.3-7.5l8.4-0.4c12.1-0.6,22.4-10.9,22.9-22.9l0.4-8.4c0.5-11,9.9-20.4,21-21
						l8.4-0.4c12.1-0.6,22.4-10.9,22.9-22.9l0.4-8.4c0.5-11,9.9-20.4,21-21l8.4-0.4c12.1-0.6,22.4-10.9,22.9-22.9l0.4-8.4
						c0.5-11,9.9-20.4,21-21l8.4-0.4c12.1-0.6,22.4-10.9,22.9-22.9l0.4-8.4c0.5-11,9.9-20.4,21-21l8.4-0.4
						c12.1-0.6,22.4-10.9,22.9-22.9l0.4-8.4c0.5-11,9.9-20.4,21-21l8.4-0.4c12.1-0.6,22.4-10.9,22.9-22.9l0.4-8.4
						c0.5-11,9.9-20.4,21-21l8.4-0.4c12.1-0.6,22.4-10.9,22.9-22.9l0.4-8.4c0.5-11,9.9-20.4,21-21l8.4-0.4
						c12.1-0.6,22.4-10.9,22.9-22.9l0.4-8.4c0.5-11,9.9-20.4,21-21l8.4-0.4c12.1-0.6,22.4-10.9,22.9-22.9l0.4-8.4
						c0.5-11,9.9-20.4,21-21l8.4-0.4c12.1-0.6,22.4-10.9,22.9-22.9l0.4-8.4c0.5-11,9.9-20.4,21-21l8.4-0.4
						c12.1-0.6,22.4-10.9,22.9-22.9l0.4-8.4c0.5-11,9.9-20.4,21-21l8.4-0.4c5-0.2,9.7-2.2,13.5-5.2V200z"/>
				</g>
			</g>
			<g>
				<g>
					<path class="st0" d="M809,218.5c-0.3,0-0.5,0.1-0.8,0.1l-8.4,0.4c-12.1,0.6-22.4,10.9-22.9,22.9l-0.4,8.4
						c-0.5,11-9.9,20.4-21,21l-8.4,0.4c-12.1,0.6-22.4,10.9-22.9,22.9l-0.4,8.4c-0.5,11-9.9,20.4-21,21l-8.4,0.4
						c-12.1,0.6-22.4,10.9-22.9,22.9l-0.4,8.4c-0.5,11-9.9,20.4-21,21l-8.4,0.4c-12.1,0.6-22.4,10.9-22.9,22.9l-0.4,8.4
						c-0.5,11-9.9,20.4-21,21l-8.4,0.4c-12.1,0.6-22.4,10.9-22.9,22.9l-0.4,8.4c-0.5,11-9.9,20.4-21,21l-8.4,0.4
						c-12.1,0.6-22.4,10.9-22.9,22.9l-0.4,8.4c-0.5,11-9.9,20.4-21,21l-8.4,0.4c-12.1,0.6-22.4,10.9-22.9,22.9l-0.4,8.4
						c-0.5,11-9.9,20.4-21,21l-8.4,0.4c-12.1,0.6-22.4,10.9-22.9,22.9l-0.4,8.4c-0.5,11-9.9,20.4-21,21l-8.4,0.4
						c-12.1,0.6-22.4,10.9-22.9,22.9l-0.4,8.4c-0.5,11-9.9,20.4-21,21l-8.4,0.4c-12.1,0.6-22.4,10.9-22.9,22.9l-0.4,8.4
						c-0.5,11-9.9,20.4-21,21l-8.4,0.4c-12.1,0.6-22.4,10.9-22.9,22.9l-0.4,8.4c-0.5,11-9.9,20.4-21,21l-8.4,0.4
						c-9.6,0.5-18.1,7.1-21.5,15.9h2.3c3.2-7.7,10.8-13.4,19.3-13.8l8.4-0.4c12.1-0.6,22.4-10.9,22.9-22.9l0.4-8.4
						c0.5-11,9.9-20.4,21-21l8.4-0.4c12.1-0.6,22.4-10.9,22.9-22.9l0.4-8.4c0.5-11,9.9-20.4,21-21l8.4-0.4
						c12.1-0.6,22.4-10.9,22.9-22.9l0.4-8.4c0.5-11,9.9-20.4,21-21l8.4-0.4c12.1-0.6,22.4-10.9,22.9-22.9l0.4-8.4
						c0.5-11,9.9-20.4,21-21l8.4-0.4c12.1-0.6,22.4-10.9,22.9-22.9l0.4-8.4c0.5-11,9.9-20.4,21-21l8.4-0.4
						c12.1-0.6,22.4-10.9,22.9-22.9l0.4-8.4c0.5-11,9.9-20.4,21-21l8.4-0.4c12.1-0.6,22.4-10.9,22.9-22.9l0.4-8.4
						c0.5-11,9.9-20.4,21-21l8.4-0.4c12.1-0.6,22.4-10.9,22.9-22.9l0.4-8.4c0.5-11,9.9-20.4,21-21l8.4-0.4
						c12.1-0.6,22.4-10.9,22.9-22.9l0.4-8.4c0.5-11,9.9-20.4,21-21l8.4-0.4c12.1-0.6,22.4-10.9,22.9-22.9l0.4-8.4
						c0.5-11,9.9-20.4,21-21l8.4-0.4c12.1-0.6,22.4-10.9,22.9-22.9l0.4-8.4c0.5-11,9.9-20.4,21-21l8.4-0.4c0.2,0,0.4,0,0.7-0.1
						V218.5z"/>
				</g>
			</g>
			<g>
				<g>
					<path class="st0" d="M809,232.3c-10.4,2.2-18.8,11.6-19.3,22.4l-0.4,8.4c-0.5,11-9.9,20.4-21,21l-8.4,0.4
						c-12.1,0.6-22.4,10.9-22.9,22.9l-0.4,8.4c-0.5,11-9.9,20.4-21,21l-8.4,0.4c-12.1,0.6-22.4,10.9-22.9,22.9l-0.4,8.4
						c-0.5,11-9.9,20.4-21,21l-8.4,0.4c-12.1,0.6-22.4,10.9-22.9,22.9l-0.4,8.4c-0.5,11-9.9,20.4-21,21l-8.4,0.4
						c-12.1,0.6-22.4,10.9-22.9,22.9l-0.4,8.4c-0.5,11-9.9,20.4-21,21l-8.4,0.4c-12.1,0.6-22.4,10.9-22.9,22.9l-0.4,8.4
						c-0.5,11-9.9,20.4-21,21l-8.4,0.4c-12.1,0.6-22.4,10.9-22.9,22.9l-0.4,8.4c-0.5,11-9.9,20.4-21,21l-8.4,0.4
						c-12.1,0.6-22.4,10.9-22.9,22.9l-0.4,8.4c-0.5,11-9.9,20.4-21,21l-8.4,0.4c-12.1,0.6-22.4,10.9-22.9,22.9l-0.4,8.4
						c-0.5,11-9.9,20.4-21,21l-8.4,0.4c-12.1,0.6-22.4,10.9-22.9,22.9l-0.4,8.4c-0.5,11-9.9,20.4-21,21l-8.4,0.4
						c-12.1,0.6-22.4,10.9-22.9,22.9l-0.4,8.4c-0.5,11-9.9,20.4-21,21l-8.4,0.4c-3.7,0.2-7.3,1.3-10.4,3.1h5.2
						c1.7-0.6,3.5-0.9,5.3-1l8.4-0.4c12.1-0.6,22.4-10.9,22.9-22.9l0.4-8.4c0.5-11,9.9-20.4,21-21l8.4-0.4
						c12.1-0.6,22.4-10.9,22.9-22.9l0.4-8.4c0.5-11,9.9-20.4,21-21l8.4-0.4c12.1-0.6,22.4-10.9,22.9-22.9l0.4-8.4
						c0.5-11,9.9-20.4,21-21l8.4-0.4c12.1-0.6,22.4-10.9,22.9-22.9l0.4-8.4c0.5-11,9.9-20.4,21-21l8.4-0.4
						c12.1-0.6,22.4-10.9,22.9-22.9l0.4-8.4c0.5-11,9.9-20.4,21-21l8.4-0.4c12.1-0.6,22.4-10.9,22.9-22.9l0.4-8.4
						c0.5-11,9.9-20.4,21-21l8.4-0.4c12.1-0.6,22.4-10.9,22.9-22.9l0.4-8.4c0.5-11,9.9-20.4,21-21l8.4-0.4
						c12.1-0.6,22.4-10.9,22.9-22.9l0.4-8.4c0.5-11,9.9-20.4,21-21l8.4-0.4c12.1-0.6,22.4-10.9,22.9-22.9l0.4-8.4
						c0.5-11,9.9-20.4,21-21l8.4-0.4c12.1-0.6,22.4-10.9,23-22.9l0.4-8.4c0.5-11,9.9-20.4,21-21l8.4-0.4
						c12.1-0.6,22.4-10.9,22.9-22.9l0.4-8.4c0.5-9.7,7.9-18.2,17.2-20.4V232.3z"/>
				</g>
			</g>
			<g>
				<g>
					<path class="st0" d="M809,252.6c-3.8,4.1-6.2,9.3-6.5,15l-0.4,8.4c-0.5,11-9.9,20.4-21,21l-8.4,0.4
						c-12.1,0.6-22.4,10.9-22.9,22.9l-0.4,8.4c-0.5,11-9.9,20.4-21,21l-8.4,0.4c-12.1,0.6-22.4,10.9-22.9,22.9l-0.4,8.4
						c-0.5,11-9.9,20.4-21,21l-8.4,0.4c-12.1,0.6-22.4,10.9-22.9,22.9l-0.4,8.4c-0.5,11-9.9,20.4-21,21l-8.4,0.4
						c-12.1,0.6-22.4,10.9-22.9,22.9l-0.4,8.4c-0.5,11-9.9,20.4-21,21l-8.4,0.4c-12.1,0.6-22.4,10.9-22.9,22.9l-0.4,8.4
						c-0.5,11-9.9,20.4-21,21l-8.4,0.4c-12.1,0.6-22.4,10.9-22.9,22.9l-0.4,8.4c-0.5,11-9.9,20.4-21,21l-8.4,0.4
						c-12.1,0.6-22.4,10.9-22.9,22.9l-0.4,8.4c-0.5,11-9.9,20.4-21,21l-8.4,0.4c-12.1,0.6-22.4,10.9-22.9,22.9l-0.4,8.4
						c-0.5,11-9.9,20.4-21,21l-8.4,0.4c-12.1,0.6-22.4,10.9-22.9,22.9l-0.4,8.4c-0.5,11-9.9,20.4-21,21l-8.4,0.4
						c-12.1,0.6-22.4,10.9-22.9,22.9l-0.4,8.4c-0.2,4.3-1.7,8.3-4.2,11.6h2.5c2.2-3.4,3.6-7.3,3.8-11.5l0.4-8.4
						c0.5-11,9.9-20.4,21-21l8.4-0.4c12.1-0.6,22.4-10.9,22.9-22.9l0.4-8.4c0.5-11,9.9-20.4,21-21l8.4-0.4
						c12.1-0.6,22.4-10.9,22.9-22.9l0.4-8.4c0.5-11,9.9-20.4,21-21l8.4-0.4c12.1-0.6,22.4-10.9,22.9-22.9l0.4-8.4
						c0.5-11,9.9-20.4,21-21l8.4-0.4c12.1-0.6,22.4-10.9,22.9-22.9l0.4-8.4c0.5-11,9.9-20.4,21-21l8.4-0.4
						c12.1-0.6,22.4-10.9,22.9-22.9l0.4-8.4c0.5-11,9.9-20.4,21-21l8.4-0.4c12.1-0.6,22.4-10.9,22.9-22.9l0.4-8.4
						c0.5-11,9.9-20.4,21-21l8.4-0.4c12.1-0.6,22.4-10.9,22.9-22.9l0.4-8.4c0.5-11,9.9-20.4,21-21l8.4-0.4
						c12.1-0.6,22.4-10.9,22.9-22.9l0.4-8.4c0.5-11,9.9-20.4,21-21l8.4-0.4c12.1-0.6,22.4-10.9,22.9-22.9l0.4-8.4
						c0.5-11,9.9-20.4,21-21l8.4-0.4c12.1-0.6,22.4-10.9,22.9-22.9l0.4-8.4c0.2-4.4,1.8-8.5,4.4-11.9V252.6z"/>
				</g>
			</g>
			<g>
				<g>
					<path class="st0" d="M809,302.7c-3.8,4.1-9.2,6.9-15,7.2l-8.4,0.4c-12.1,0.6-22.4,10.9-23,22.9l-0.4,8.4
						c-0.5,11-9.9,20.4-21,21l-8.4,0.4c-12.1,0.6-22.4,10.9-22.9,22.9l-0.4,8.4c-0.5,11-9.9,20.4-21,21l-8.4,0.4
						c-12.1,0.6-22.4,10.9-22.9,22.9l-0.4,8.4c-0.5,11-9.9,20.4-21,21l-8.4,0.4c-12.1,0.6-22.4,10.9-22.9,22.9l-0.4,8.4
						c-0.5,11-9.9,20.4-21,21l-8.4,0.4c-12.1,0.6-22.4,10.9-22.9,22.9l-0.4,8.4c-0.5,11-9.9,20.4-21,21l-8.4,0.4
						c-12.1,0.6-22.4,10.9-22.9,22.9l-0.4,8.4c-0.5,11-9.9,20.4-21,21l-8.4,0.4c-12.1,0.6-22.4,10.9-22.9,22.9l-0.4,8.4
						c-0.5,11-9.9,20.4-21,21l-8.4,0.4c-12.1,0.6-22.4,10.9-22.9,22.9l-0.4,8.4c-0.5,11-9.9,20.4-21,21l-8.4,0.4
						c-12.1,0.6-22.4,10.9-22.9,22.9l-0.4,8.4c-0.5,11-9.9,20.4-21,21l-8.4,0.4c-12.1,0.6-22.4,10.9-22.9,22.9l-0.3,7.2h2.1l0.3-7.1
						c0.5-11,9.9-20.4,21-21l8.4-0.4c12.1-0.6,22.4-10.9,22.9-22.9l0.4-8.4c0.5-11,9.9-20.4,21-21l8.4-0.4
						c12.1-0.6,22.4-10.9,22.9-22.9l0.4-8.4c0.5-11,9.9-20.4,21-21l8.4-0.4c12.1-0.6,22.4-10.9,22.9-22.9l0.4-8.4
						c0.5-11,9.9-20.4,21-21l8.4-0.4c12.1-0.6,22.4-10.9,22.9-22.9l0.4-8.4c0.5-11,9.9-20.4,21-21l8.4-0.4
						c12.1-0.6,22.4-10.9,22.9-22.9l0.4-8.4c0.5-11,9.9-20.4,21-21l8.4-0.4c12.1-0.6,22.4-10.9,22.9-22.9l0.4-8.4
						c0.5-11,9.9-20.4,21-21l8.4-0.4c12.1-0.6,22.4-10.9,22.9-22.9l0.4-8.4c0.5-11,9.9-20.4,21-21l8.4-0.4
						c12.1-0.6,22.4-10.9,22.9-22.9l0.4-8.4c0.5-11,9.9-20.4,21-21l8.4-0.4c12.1-0.6,22.4-10.9,23-22.9l0.4-8.4
						c0.5-11,9.9-20.4,21-21l8.4-0.4c5.6-0.3,10.8-2.7,14.9-6.3V302.7z"/>
				</g>
			</g>
			<g>
				<g>
					<path class="st0" d="M809,322.5c-0.7,0.1-1.4,0.2-2.2,0.2l-8.4,0.4c-12.1,0.6-22.4,10.9-22.9,22.9l-0.4,8.4
						c-0.5,11-9.9,20.4-21,21l-8.4,0.4c-12.1,0.6-22.4,10.9-22.9,22.9l-0.4,8.4c-0.5,11-9.9,20.4-21,21l-8.4,0.4
						c-12.1,0.6-22.4,10.9-22.9,22.9l-0.4,8.4c-0.5,11-9.9,20.4-21,21l-8.4,0.4c-12.1,0.6-22.4,10.9-22.9,22.9l-0.4,8.4
						c-0.5,11-9.9,20.4-21,21l-8.4,0.4c-12.1,0.6-22.4,10.9-22.9,22.9l-0.4,8.4c-0.5,11-9.9,20.4-21,21l-8.4,0.4
						c-12.1,0.6-22.4,10.9-22.9,22.9l-0.4,8.4c-0.5,11-9.9,20.4-21,21l-8.4,0.4c-12.1,0.6-22.4,10.9-22.9,22.9l-0.4,8.4
						c-0.5,11-9.9,20.4-21,21l-8.4,0.4c-12.1,0.6-22.4,10.9-22.9,22.9l-0.4,8.4c-0.5,11-9.9,20.4-21,21l-8.4,0.4
						c-12.1,0.6-22.4,10.9-22.9,22.9l-0.4,8.4c-0.5,11-9.9,20.4-21,21l-8.4,0.4c-10.1,0.5-19,7.8-21.9,17.3h2.2
						c2.9-8.4,10.8-14.8,19.8-15.2l8.4-0.4c12.1-0.6,22.4-10.9,22.9-22.9l0.4-8.4c0.5-11,9.9-20.4,21-21l8.4-0.4
						c12.1-0.6,22.4-10.9,22.9-22.9l0.4-8.4c0.5-11,9.9-20.4,21-21l8.4-0.4c12.1-0.6,22.4-10.9,22.9-22.9l0.4-8.4
						c0.5-11,9.9-20.4,21-21l8.4-0.4c12.1-0.6,22.4-10.9,22.9-22.9l0.4-8.4c0.5-11,9.9-20.4,21-21l8.4-0.4
						c12.1-0.6,22.4-10.9,22.9-22.9l0.4-8.4c0.5-11,9.9-20.4,21-21l8.4-0.4c12.1-0.6,22.4-10.9,22.9-22.9l0.4-8.4
						c0.5-11,9.9-20.4,21-21l8.4-0.4c12.1-0.6,22.4-10.9,22.9-22.9l0.4-8.4c0.5-11,9.9-20.4,21-21l8.4-0.4
						c12.1-0.6,22.4-10.9,22.9-22.9l0.4-8.4c0.5-11,9.9-20.4,21-21l8.4-0.4c12.1-0.6,22.4-10.9,22.9-22.9l0.4-8.4
						c0.5-11,9.9-20.4,21-21l8.4-0.4c0.7,0,1.4-0.1,2.1-0.2V322.5z"/>
				</g>
			</g>
			<g>
				<g>
					<path class="st0" d="M809,336.1c-11.1,1.7-20.1,11.4-20.7,22.7l-0.4,8.4c-0.5,11-9.9,20.4-21,21l-8.4,0.4
						c-12.1,0.6-22.4,10.9-22.9,22.9l-0.4,8.4c-0.5,11-9.9,20.4-21,21l-8.4,0.4c-12.1,0.6-22.4,10.9-22.9,22.9l-0.4,8.4
						c-0.5,11-9.9,20.4-21,21l-8.4,0.4c-12.1,0.6-22.4,10.9-22.9,22.9l-0.4,8.4c-0.5,11-9.9,20.4-21,21l-8.4,0.4
						c-12.1,0.6-22.4,10.9-22.9,22.9l-0.4,8.4c-0.5,11-9.9,20.4-21,21l-8.4,0.4c-12.1,0.6-22.4,10.9-22.9,22.9l-0.4,8.4
						c-0.5,11-9.9,20.4-21,21l-8.4,0.4c-12.1,0.6-22.4,10.9-22.9,22.9l-0.4,8.4c-0.5,11-9.9,20.4-21,21l-8.4,0.4
						c-12.1,0.6-22.4,10.9-22.9,22.9l-0.4,8.4c-0.5,11-9.9,20.4-21,21l-8.4,0.4c-12.1,0.6-22.4,10.9-22.9,22.9l-0.4,8.4
						c-0.5,11-9.9,20.4-21,21l-8.4,0.4c-4.6,0.2-8.9,1.9-12.6,4.5h4c2.7-1.4,5.6-2.2,8.7-2.4l8.4-0.4c12.1-0.6,22.4-10.9,22.9-22.9
						l0.4-8.4c0.5-11,9.9-20.4,21-21l8.4-0.4c12.1-0.6,22.4-10.9,22.9-22.9l0.4-8.4c0.5-11,9.9-20.4,21-21l8.4-0.4
						c12.1-0.6,22.4-10.9,22.9-22.9l0.4-8.4c0.5-11,9.9-20.4,21-21l8.4-0.4c12.1-0.6,22.4-10.9,22.9-22.9l0.4-8.4
						c0.5-11,9.9-20.4,21-21l8.4-0.4c12.1-0.6,22.4-10.9,22.9-22.9l0.4-8.4c0.5-11,9.9-20.4,21-21l8.4-0.4
						c12.1-0.6,22.4-10.9,22.9-22.9l0.4-8.4c0.5-11,9.9-20.4,21-21l8.4-0.4c12.1-0.6,22.4-10.9,22.9-22.9l0.4-8.4
						c0.5-11,9.9-20.4,21-21l8.4-0.4c12.1-0.6,22.4-10.9,22.9-22.9l0.4-8.4c0.5-11,9.9-20.4,21-21l8.4-0.4
						c12.1-0.6,22.4-10.9,23-22.9l0.4-8.4c0.5-10.2,8.6-19,18.6-20.7V336.1z"/>
				</g>
			</g>
			<g>
				<g>
					<path class="st0" d="M809,355.3c-4.5,4.2-7.5,10.1-7.9,16.4l-0.4,8.4c-0.5,11-9.9,20.4-21,21l-8.4,0.4
						c-12.1,0.6-22.4,10.9-22.9,22.9l-0.4,8.4c-0.5,11-9.9,20.4-21,21l-8.4,0.4c-12.1,0.6-22.4,10.9-22.9,22.9l-0.4,8.4
						c-0.5,11-9.9,20.4-21,21l-8.4,0.4c-12.1,0.6-22.4,10.9-22.9,22.9l-0.4,8.4c-0.5,11-9.9,20.4-21,21l-8.4,0.4
						c-12.1,0.6-22.4,10.9-22.9,22.9l-0.4,8.4c-0.5,11-9.9,20.4-21,21l-8.4,0.4c-12.1,0.6-22.4,10.9-22.9,22.9l-0.4,8.4
						c-0.5,11-9.9,20.4-21,21l-8.4,0.4c-12.1,0.6-22.4,10.9-22.9,22.9l-0.4,8.4c-0.5,11-9.9,20.4-21,21l-8.4,0.4
						c-12.1,0.6-22.4,10.9-22.9,22.9l-0.4,8.4c-0.5,11-9.9,20.4-21,21l-8.4,0.4c-12.1,0.6-22.4,10.9-22.9,22.9l-0.4,8.4
						c-0.2,4.8-2.2,9.4-5.2,13h2.6c2.7-3.7,4.5-8.2,4.7-12.9l0.4-8.4c0.5-11,9.9-20.4,21-21l8.4-0.4c12.1-0.6,22.4-10.9,22.9-22.9
						l0.4-8.4c0.5-11,9.9-20.4,21-21l8.4-0.4c12.1-0.6,22.4-10.9,22.9-22.9l0.4-8.4c0.5-11,9.9-20.4,21-21l8.4-0.4
						c12.1-0.6,22.4-10.9,22.9-22.9l0.4-8.4c0.5-11,9.9-20.4,21-21l8.4-0.4c12.1-0.6,22.4-10.9,22.9-22.9l0.4-8.4
						c0.5-11,9.9-20.4,21-21l8.4-0.4c12.1-0.6,22.4-10.9,22.9-22.9l0.4-8.4c0.5-11,9.9-20.4,21-21l8.4-0.4
						c12.1-0.6,22.4-10.9,22.9-22.9l0.4-8.4c0.5-11,9.9-20.4,21-21l8.4-0.4c12.1-0.6,22.4-10.9,22.9-22.9l0.4-8.4
						c0.5-11,9.9-20.4,21-21l8.4-0.4c12.1-0.6,22.4-10.9,22.9-22.9l0.4-8.4c0.2-5.1,2.4-9.9,5.8-13.6V355.3z"/>
				</g>
			</g>
			<g>
				<g>
					<path class="st0" d="M809,405.1c-3.9,5-9.8,8.5-16.4,8.8l-8.4,0.4c-12.1,0.6-22.4,10.9-22.9,22.9l-0.4,8.4
						c-0.5,11-9.9,20.4-21,21l-8.4,0.4c-12.1,0.6-22.4,10.9-22.9,22.9l-0.4,8.4c-0.5,11-9.9,20.4-21,21l-8.4,0.4
						c-12.1,0.6-22.4,10.9-22.9,22.9l-0.4,8.4c-0.5,11-9.9,20.4-21,21l-8.4,0.4c-12.1,0.6-22.4,10.9-22.9,22.9l-0.4,8.4
						c-0.5,11-9.9,20.4-21,21l-8.4,0.4c-12.1,0.6-22.4,10.9-22.9,22.9l-0.4,8.4c-0.5,11-9.9,20.4-21,21l-8.4,0.4
						c-12.1,0.6-22.4,10.9-22.9,22.9l-0.4,8.4c-0.5,11-9.9,20.4-21,21l-8.4,0.4c-12.1,0.6-22.4,10.9-22.9,22.9l-0.4,8.4
						c-0.5,11-9.9,20.4-21,21l-8.4,0.4c-12.1,0.6-22.4,10.9-22.9,22.9l-0.4,8.4c0,0,0,0.1,0,0.1h2.1c0,0,0,0,0,0l0.4-8.4
						c0.5-11,9.9-20.4,21-21l8.4-0.4c12.1-0.6,22.4-10.9,22.9-22.9l0.4-8.4c0.5-11,9.9-20.4,21-21l8.4-0.4
						c12.1-0.6,22.4-10.9,22.9-22.9l0.4-8.4c0.5-11,9.9-20.4,21-21l8.4-0.4c12.1-0.6,22.4-10.9,22.9-22.9l0.4-8.4
						c0.5-11,9.9-20.4,21-21l8.4-0.4c12.1-0.6,22.4-10.9,22.9-22.9l0.4-8.4c0.5-11,9.9-20.4,21-21l8.4-0.4
						c12.1-0.6,22.4-10.9,22.9-22.9l0.4-8.4c0.5-11,9.9-20.4,21-21l8.4-0.4c12.1-0.6,22.4-10.9,22.9-22.9l0.4-8.4
						c0.5-11,9.9-20.4,21-21l8.4-0.4c12.1-0.6,22.4-10.9,22.9-22.9l0.4-8.4c0.5-11,9.9-20.4,21-21l8.4-0.4
						c6.3-0.3,12.1-3.3,16.3-7.7V405.1z"/>
				</g>
			</g>
			<g>
				<g>
					<path class="st0" d="M809,426.3c-1.2,0.3-2.3,0.4-3.5,0.5l-8.4,0.4c-12.1,0.6-22.4,10.9-22.9,22.9l-0.4,8.4
						c-0.5,11-9.9,20.4-21,21l-8.4,0.4c-12.1,0.6-22.4,10.9-22.9,22.9l-0.4,8.4c-0.5,11-9.9,20.4-21,21l-8.4,0.4
						c-12.1,0.6-22.4,10.9-22.9,22.9l-0.4,8.4c-0.5,11-9.9,20.4-21,21l-8.4,0.4c-12.1,0.6-22.4,10.9-22.9,22.9l-0.4,8.4
						c-0.5,11-9.9,20.4-21,21l-8.4,0.4c-12.1,0.6-22.4,10.9-22.9,22.9l-0.4,8.4c-0.5,11-9.9,20.4-21,21l-8.4,0.4
						c-12.1,0.6-22.4,10.9-22.9,22.9l-0.4,8.4c-0.5,11-9.9,20.4-21,21l-8.4,0.4c-12.1,0.6-22.4,10.9-22.9,22.9l-0.4,8.4
						c-0.5,11-9.9,20.4-21,21l-8.4,0.4c-10.6,0.5-19.8,8.5-22.3,18.7h2.2c2.4-9,10.7-16.1,20.3-16.6l8.4-0.4
						c12.1-0.6,22.4-10.9,22.9-22.9l0.4-8.4c0.5-11,9.9-20.4,21-21l8.4-0.4c12.1-0.6,22.4-10.9,22.9-22.9l0.4-8.4
						c0.5-11,9.9-20.4,21-21l8.4-0.4c12.1-0.6,22.4-10.9,22.9-22.9l0.4-8.4c0.5-11,9.9-20.4,21-21l8.4-0.4
						c12.1-0.6,22.4-10.9,22.9-22.9l0.4-8.4c0.5-11,9.9-20.4,21-21l8.4-0.4c12.1-0.6,22.4-10.9,22.9-22.9l0.4-8.4
						c0.5-11,9.9-20.4,21-21l8.4-0.4c12.1-0.6,22.4-10.9,22.9-22.9l0.4-8.4c0.5-11,9.9-20.4,21-21l8.4-0.4
						c12.1-0.6,22.4-10.9,22.9-22.9l0.4-8.4c0.5-11,9.9-20.4,21-21l8.4-0.4c1.2-0.1,2.3-0.2,3.4-0.5V426.3z"/>
				</g>
			</g>
			<g>
				<g>
					<path class="st0" d="M809,440.1c-11.7,1-21.5,11.1-22.1,22.9l-0.4,8.4c-0.5,11-9.9,20.4-21,21l-8.4,0.4
						c-12.1,0.6-22.4,10.9-22.9,22.9l-0.4,8.4c-0.5,11-9.9,20.4-21,21l-8.4,0.4c-12.1,0.6-22.4,10.9-22.9,22.9l-0.4,8.4
						c-0.5,11-9.9,20.4-21,21l-8.4,0.4c-12.1,0.6-22.4,10.9-22.9,22.9l-0.4,8.4c-0.5,11-9.9,20.4-21,21l-8.4,0.4
						c-12.1,0.6-22.4,10.9-22.9,22.9l-0.4,8.4c-0.5,11-9.9,20.4-21,21l-8.4,0.4c-12.1,0.6-22.4,10.9-22.9,22.9l-0.4,8.4
						c-0.5,11-9.9,20.4-21,21l-8.4,0.4c-12.1,0.6-22.4,10.9-22.9,22.9l-0.4,8.4c-0.5,11-9.9,20.4-21,21l-8.4,0.4
						c-5.4,0.3-10.4,2.4-14.3,5.8h3.4c3.2-2.2,7-3.6,11-3.7l8.4-0.4c12.1-0.6,22.4-10.9,22.9-22.9l0.4-8.4c0.5-11,9.9-20.4,21-21
						l8.4-0.4c12.1-0.6,22.4-10.9,22.9-22.9l0.4-8.4c0.5-11,9.9-20.4,21-21l8.4-0.4c12.1-0.6,22.4-10.9,22.9-22.9l0.4-8.4
						c0.5-11,9.9-20.4,21-21l8.4-0.4c12.1-0.6,22.4-10.9,22.9-22.9l0.4-8.4c0.5-11,9.9-20.4,21-21l8.4-0.4
						c12.1-0.6,22.4-10.9,22.9-22.9l0.4-8.4c0.5-11,9.9-20.4,21-21l8.4-0.4c12.1-0.6,22.4-10.9,22.9-22.9l0.4-8.4
						c0.5-11,9.9-20.4,21-21l8.4-0.4c12.1-0.6,22.4-10.9,22.9-22.9l0.4-8.4c0.5-10.7,9.4-19.8,20-20.9V440.1z"/>
				</g>
			</g>
			<g>
				<g>
					<path class="st0" d="M809,458.2c-5.3,4.3-8.9,10.6-9.2,17.6l-0.4,8.4c-0.5,11-9.9,20.4-21,21l-8.4,0.4
						c-12.1,0.6-22.4,10.9-22.9,22.9l-0.4,8.4c-0.5,11-9.9,20.4-21,21l-8.4,0.4c-12.1,0.6-22.4,10.9-22.9,22.9l-0.4,8.4
						c-0.5,11-9.9,20.4-21,21l-8.4,0.4c-12.1,0.6-22.4,10.9-22.9,22.9l-0.4,8.4c-0.5,11-9.9,20.4-21,21l-8.4,0.4
						c-12.1,0.6-22.4,10.9-22.9,22.9l-0.4,8.4c-0.5,11-9.9,20.4-21,21l-8.4,0.4c-12.1,0.6-22.4,10.9-22.9,22.9l-0.4,8.4
						c-0.5,11-9.9,20.4-21,21l-8.4,0.4c-12.1,0.6-22.4,10.9-22.9,22.9l-0.4,8.4c-0.3,5.5-2.7,10.6-6.5,14.4h2.8
						c3.4-4,5.5-8.9,5.8-14.3l0.4-8.4c0.5-11,9.9-20.4,21-21l8.4-0.4c12.1-0.6,22.4-10.9,22.9-22.9l0.4-8.4c0.5-11,9.9-20.4,21-21
						l8.4-0.4c12.1-0.6,22.4-10.9,22.9-22.9l0.4-8.4c0.5-11,9.9-20.4,21-21l8.4-0.4c12.1-0.6,22.4-10.9,22.9-22.9l0.4-8.4
						c0.5-11,9.9-20.4,21-21l8.4-0.4c12.1-0.6,22.4-10.9,22.9-22.9l0.4-8.4c0.5-11,9.9-20.4,21-21l8.4-0.4
						c12.1-0.6,22.4-10.9,22.9-22.9l0.4-8.4c0.5-11,9.9-20.4,21-21l8.4-0.4c12.1-0.6,22.4-10.9,22.9-22.9l0.4-8.4
						c0.3-5.8,3-11.1,7.1-15V458.2z"/>
				</g>
			</g>
			<g>
				<g>
					<path class="st0" d="M809,507.2c-3.8,6.1-10.4,10.5-17.8,10.8l-8.4,0.4c-12.1,0.6-22.4,10.9-22.9,22.9l-0.4,8.4
						c-0.5,11-9.9,20.4-21,21l-8.4,0.4c-12.1,0.6-22.4,10.9-22.9,22.9l-0.4,8.4c-0.5,11-9.9,20.4-21,21l-8.4,0.4
						c-12.1,0.6-22.4,10.9-22.9,22.9l-0.4,8.4c-0.5,11-9.9,20.4-21,21l-8.4,0.4c-12.1,0.6-22.4,10.9-22.9,22.9l-0.4,8.4
						c-0.5,11-9.9,20.4-21,21l-8.4,0.4c-12.1,0.6-22.4,10.9-22.9,22.9l-0.4,8.4c-0.5,11-9.9,20.4-21,21l-8.4,0.4
						c-12.1,0.6-22.4,10.9-22.9,22.9l-0.4,8.4c0,0.5-0.1,1-0.2,1.5h2.1c0.1-0.5,0.1-0.9,0.1-1.4l0.4-8.4c0.5-11,9.9-20.4,21-21
						l8.4-0.4c12.1-0.6,22.4-10.9,22.9-22.9l0.4-8.4c0.5-11,9.9-20.4,21-21l8.4-0.4c12.1-0.6,22.4-10.9,22.9-22.9l0.4-8.4
						c0.5-11,9.9-20.4,21-21l8.4-0.4c12.1-0.6,22.4-10.9,22.9-22.9l0.4-8.4c0.5-11,9.9-20.4,21-21l8.4-0.4
						c12.1-0.6,22.4-10.9,22.9-22.9l0.4-8.4c0.5-11,9.9-20.4,21-21l8.4-0.4c12.1-0.6,22.4-10.9,22.9-22.9l0.4-8.4
						c0.5-11,9.9-20.4,21-21l8.4-0.4c7-0.3,13.4-4,17.7-9.3V507.2z"/>
				</g>
			</g>
			<g>
				<g>
					<path class="st0" d="M809,530c-1.6,0.5-3.2,0.8-4.9,0.9l-8.4,0.4c-12.1,0.6-22.4,10.9-22.9,22.9l-0.4,8.4
						c-0.5,11-9.9,20.4-21,21l-8.4,0.4c-12.1,0.6-22.4,10.9-22.9,22.9l-0.4,8.4c-0.5,11-9.9,20.4-21,21l-8.4,0.4
						c-12.1,0.6-22.4,10.9-22.9,22.9l-0.4,8.4c-0.5,11-9.9,20.4-21,21l-8.4,0.4c-12.1,0.6-22.4,10.9-22.9,22.9l-0.4,8.4
						c-0.5,11-9.9,20.4-21,21l-8.4,0.4c-12.1,0.6-22.4,10.9-22.9,22.9l-0.4,8.4c-0.5,11-9.9,20.4-21,21l-8.4,0.4
						c-11.1,0.5-20.7,9.3-22.6,20.1h2.1c1.9-9.7,10.6-17.5,20.6-18l8.4-0.4c12.1-0.6,22.4-10.9,22.9-22.9l0.4-8.4
						c0.5-11,9.9-20.4,21-21l8.4-0.4c12.1-0.6,22.4-10.9,22.9-22.9l0.4-8.4c0.5-11,9.9-20.4,21-21l8.4-0.4
						c12.1-0.6,22.4-10.9,22.9-22.9l0.4-8.4c0.5-11,9.9-20.4,21-21l8.4-0.4c12.1-0.6,22.4-10.9,22.9-22.9l0.4-8.4
						c0.5-11,9.9-20.4,21-21l8.4-0.4c12.1-0.6,22.4-10.9,22.9-22.9l0.4-8.4c0.5-11,9.9-20.4,21-21l8.4-0.4c1.6-0.1,3.3-0.4,4.8-0.8
						V530z"/>
				</g>
			</g>
			<g>
				<g>
					<path class="st0" d="M809,544.1l-0.5,0c-12.1,0.6-22.4,10.9-22.9,22.9l-0.4,8.4c-0.5,11-9.9,20.4-21,21l-8.4,0.4
						c-12.1,0.6-22.4,10.9-22.9,22.9l-0.4,8.4c-0.5,11-9.9,20.4-21,21l-8.4,0.4c-12.1,0.6-22.4,10.9-22.9,22.9l-0.4,8.4
						c-0.5,11-9.9,20.4-21,21l-8.4,0.4c-12.1,0.6-22.4,10.9-22.9,22.9l-0.4,8.4c-0.5,11-9.9,20.4-21,21l-8.4,0.4
						c-12.1,0.6-22.4,10.9-22.9,22.9l-0.4,8.4c-0.5,11-9.9,20.4-21,21l-8.4,0.4c-6.1,0.3-11.7,3-15.8,7.2h3.1
						c3.6-3,8.1-4.9,12.8-5.1l8.4-0.4c12.1-0.6,22.4-10.9,22.9-22.9l0.4-8.4c0.5-11,9.9-20.4,21-21l8.4-0.4
						c12.1-0.6,22.4-10.9,22.9-22.9l0.4-8.4c0.5-11,9.9-20.4,21-21l8.4-0.4c12.1-0.6,22.4-10.9,22.9-22.9l0.4-8.4
						c0.5-11,9.9-20.4,21-21l8.4-0.4c12.1-0.6,22.4-10.9,22.9-22.9l0.4-8.4c0.5-11,9.9-20.4,21-21l8.4-0.4
						c12.1-0.6,22.4-10.9,22.9-22.9l0.4-8.4c0.5-11,9.9-20.4,21-21l0.4,0V544.1z"/>
				</g>
			</g>
			<g>
				<g>
					<path class="st0" d="M809,561.2c-6.1,4.2-10.3,11.1-10.6,18.7l-0.4,8.4c-0.5,11-9.9,20.4-21,21l-8.4,0.4
						c-12.1,0.6-22.4,10.9-22.9,22.9l-0.4,8.4c-0.5,11-9.9,20.4-21,21l-8.4,0.4c-12.1,0.6-22.4,10.9-22.9,22.9l-0.4,8.4
						c-0.5,11-9.9,20.4-21,21l-8.4,0.4c-12.1,0.6-22.4,10.9-22.9,22.9l-0.4,8.4c-0.5,11-9.9,20.4-21,21l-8.4,0.4
						c-12.1,0.6-22.4,10.9-22.9,22.9l-0.4,8.4c-0.3,6.2-3.4,11.9-8,15.7h3.1c4.1-4.1,6.7-9.7,7-15.6l0.4-8.4c0.5-11,9.9-20.4,21-21
						l8.4-0.4c12.1-0.6,22.4-10.9,22.9-22.9l0.4-8.4c0.5-11,9.9-20.4,21-21l8.4-0.4c12.1-0.6,22.4-10.9,22.9-22.9l0.4-8.4
						c0.5-11,9.9-20.4,21-21l8.4-0.4c12.1-0.6,22.4-10.9,22.9-22.9l0.4-8.4c0.5-11,9.9-20.4,21-21l8.4-0.4
						c12.1-0.6,22.4-10.9,22.9-22.9l0.4-8.4c0.3-6.4,3.6-12.3,8.5-16.2V561.2z"/>
				</g>
			</g>
			<g>
				<g>
					<path class="st0" d="M809,608.7c-3.3,7.5-10.8,13-19.1,13.4l-8.4,0.4c-12.1,0.6-22.4,10.9-22.9,22.9l-0.4,8.4
						c-0.5,11-9.9,20.4-21,21l-8.4,0.4c-12.1,0.6-22.4,10.9-22.9,22.9l-0.4,8.4c-0.5,11-9.9,20.4-21,21L676,728
						c-12.1,0.6-22.4,10.9-22.9,22.9l-0.4,8.4c-0.5,11-9.9,20.4-21,21l-8.4,0.4c-12.1,0.6-22.4,10.9-22.9,22.9l-0.4,8.4
						c0,1-0.2,1.9-0.4,2.9h2.1c0.2-0.9,0.3-1.9,0.3-2.8l0.4-8.4c0.5-11,9.9-20.4,21-21l8.4-0.4c12.1-0.6,22.4-10.9,22.9-22.9
						l0.4-8.4c0.5-11,9.9-20.4,21-21l8.4-0.4c12.1-0.6,22.4-10.9,22.9-22.9l0.4-8.4c0.5-11,9.9-20.4,21-21l8.4-0.4
						c12.1-0.6,22.4-10.9,22.9-22.9l0.4-8.4c0.5-11,9.9-20.4,21-21l8.4-0.4c7.8-0.4,14.9-4.8,19-11.2V608.7z"/>
				</g>
			</g>
			<g>
				<g>
					<path class="st0" d="M809,633.6c-2,0.7-4.1,1.2-6.3,1.3l-8.4,0.4c-12.1,0.6-22.4,10.9-22.9,22.9l-0.4,8.4
						c-0.5,11-9.9,20.4-21,21l-8.4,0.4c-12.1,0.6-22.4,10.9-22.9,22.9l-0.4,8.4c-0.5,11-9.9,20.4-21,21l-8.4,0.4
						c-12.1,0.6-22.4,10.9-22.9,22.9l-0.4,8.4c-0.5,11-9.9,20.4-21,21l-8.4,0.4c-11.6,0.6-21.5,10-22.8,21.4h2.1
						c1.3-10.3,10.3-18.8,20.8-19.3l8.4-0.4c12.1-0.6,22.4-10.9,22.9-22.9l0.4-8.4c0.5-11,9.9-20.4,21-21l8.4-0.4
						c12.1-0.6,22.4-10.9,22.9-22.9l0.4-8.4c0.5-11,9.9-20.4,21-21l8.4-0.4c12.1-0.6,22.4-10.9,22.9-22.9l0.4-8.4
						c0.5-11,9.9-20.4,21-21l8.4-0.4c2.1-0.1,4.2-0.5,6.2-1.2V633.6z"/>
				</g>
			</g>
			<g>
				<g>
					<path class="st0" d="M809,648.1l-1.9,0.1c-12.1,0.6-22.4,10.9-22.9,22.9l-0.4,8.4c-0.5,11-9.9,20.4-21,21l-8.4,0.4
						c-12.1,0.6-22.4,10.9-22.9,22.9l-0.4,8.4c-0.5,11-9.9,20.4-21,21l-8.4,0.4c-12.1,0.6-22.4,10.9-22.9,22.9l-0.4,8.4
						c-0.5,11-9.9,20.4-21,21l-8.4,0.4c-6.7,0.3-12.8,3.6-17.1,8.6h2.8c3.8-3.8,8.9-6.2,14.4-6.5l8.4-0.4
						c12.1-0.6,22.4-10.9,22.9-22.9l0.4-8.4c0.5-11,9.9-20.4,21-21l8.4-0.4c12.1-0.6,22.4-10.9,22.9-22.9l0.4-8.4
						c0.5-11,9.9-20.4,21-21l8.4-0.4c12.1-0.6,22.4-10.9,22.9-22.9l0.4-8.4c0.5-11,9.9-20.4,21-21l1.8-0.1V648.1z"/>
				</g>
			</g>
			<g>
				<g>
					<path class="st0" d="M809,664.4c-6.8,4.1-11.6,11.4-12,19.5l-0.4,8.4c-0.5,11-9.9,20.4-21,21l-8.4,0.4
						c-12.1,0.6-22.4,10.9-22.9,22.9l-0.4,8.4c-0.5,11-9.9,20.4-21,21l-8.4,0.4c-12.1,0.6-22.4,10.9-22.9,22.9l-0.4,8.4
						c-0.3,7-4.2,13.3-9.8,17.1h3.4c4.9-4.2,8.2-10.4,8.5-17l0.4-8.4c0.5-11,9.9-20.4,21-21l8.4-0.4c12.1-0.6,22.4-10.9,22.9-22.9
						l0.4-8.4c0.5-11,9.9-20.4,21-21l8.4-0.4c12.1-0.6,22.4-10.9,22.9-22.9l0.4-8.4c0.3-7,4.3-13.3,9.9-17.2V664.4z"/>
				</g>
			</g>
			<g>
				<g>
					<path class="st0" d="M809,708.5c-2,9.6-10.6,17.2-20.5,17.7l-8.4,0.4c-12.1,0.6-22.4,10.9-22.9,22.9l-0.4,8.4
						c-0.5,11-9.9,20.4-21,21l-8.4,0.4c-12.1,0.6-22.4,10.9-22.9,22.9l-0.4,8.4c-0.1,1.5-0.3,2.9-0.7,4.3h2.2
						c0.3-1.4,0.5-2.8,0.6-4.2l0.4-8.4c0.5-11,9.9-20.4,21-21l8.4-0.4c12.1-0.6,22.4-10.9,22.9-22.9l0.4-8.4c0.5-11,9.9-20.4,21-21
						l8.4-0.4c8.8-0.4,16.6-6,20.4-13.6V708.5z"/>
				</g>
			</g>
			<g>
				<g>
					<path class="st0" d="M809,737.1c-2.4,1.1-5,1.7-7.7,1.9l-8.4,0.4c-12.1,0.6-22.4,10.9-22.9,22.9l-0.4,8.4
						c-0.5,11-9.9,20.4-21,21l-8.4,0.4c-12,0.6-22.3,10.8-22.9,22.8h2.1c0.7-10.9,10-20.2,20.9-20.7l8.4-0.4
						c12.1-0.6,22.4-10.9,22.9-22.9l0.4-8.4c0.5-11,9.9-20.4,21-21l8.4-0.4c2.6-0.1,5.2-0.7,7.6-1.7V737.1z"/>
				</g>
			</g>
			<g>
				<g>
					<path class="st0" d="M809,752.1l-3.3,0.2c-12.1,0.6-22.4,10.9-22.9,22.9l-0.4,8.4c-0.5,11-9.9,20.4-21,21L753,805
						c-7.3,0.4-13.9,4.3-18.2,10h2.6c3.9-4.5,9.5-7.6,15.6-7.9l8.4-0.4c12.1-0.6,22.4-10.9,22.9-22.9l0.4-8.4c0.5-11,9.9-20.4,21-21
						l3.2-0.2V752.1z"/>
				</g>
			</g>
			<g>
				<g>
					<path class="st0" d="M809,767.7c-7.5,3.9-12.9,11.6-13.4,20.3l-0.4,8.4c-0.4,7.9-5.3,14.9-12.1,18.5h4
						c5.9-4.2,9.9-11,10.3-18.4l0.4-8.4c0.4-7.6,4.9-14.4,11.3-18.1V767.7z"/>
				</g>
			</g>
			<g>
				<g>
					<path class="st0" d="M809,797.1c-0.3,1.2-0.5,2.5-0.5,3.8l-0.4,8.4c-0.1,2-0.5,3.8-1.1,5.7h2V797.1z"/>
				</g>
			</g>
		</g>
	</g>
</g>
</svg>
