<?xml version="1.0" encoding="utf-8"?>
<!-- Generator: Adobe Illustrator 21.0.2, SVG Export Plug-In . SVG Version: 6.00 Build 0)  -->
<svg version="1.1" id="Layer_1" xmlns="http://www.w3.org/2000/svg" xmlns:xlink="http://www.w3.org/1999/xlink" x="0px" y="0px"
	 viewBox="0 0 566.9 566.9" style="enable-background:new 0 0 566.9 566.9;" xml:space="preserve">
<style type="text/css">
	.st0{fill:#F3F3F3;}
</style>
<g id="XMLID_2_">
	<g id="XMLID_18_">
		<path id="XMLID_19_" class="st0" d="M306.8,275c0.9,1.9,2.1,3.6,3.5,5.1c3.1,3,6.8,4.5,11.5,4.5c2.3,0,6.6-0.4,9.9-4.7v3.6h11.7
			v-53.3h-11.7V254c-2.1-2.3-5.3-4.2-9.7-4.2c-4,0-8.3,1.3-11.6,4.4c-1.3,1.2-2.4,2.7-3.3,4.4v-7.7h-11.7v18.3
			c0,1.5-0.2,3.1-1.7,4.6c-1.3,1.2-2.7,1.4-4.2,1.4c-1.4,0-2.9-0.2-4.1-1.2c-1.5-1.4-1.8-3.4-1.8-4.8v-18.3H272v8.2
			c-0.9-1.6-2-2.9-3-3.9c-2.7-2.6-7.4-5.4-14.6-5.4c-7.1,0-11.8,2.8-14.6,5.4c-2.4,2.3-5,6.1-5,12c0,1.9,0.3,3.8,0.9,5.6h-12.9v-38
			h-12.6v48.8h27.8v-6.4c0.5,0.7,1.2,1.4,1.8,2.1c4.5,4.5,9.8,5.4,14.6,5.4c5.3,0,10.3-1.2,14.6-5.4c1.4-1.4,2.5-2.9,3.3-4.5
			c0.4,1.8,1.2,3.6,2.7,5.2c3.9,4.2,9.9,4.7,14.8,4.7c4.5,0,10.1-0.4,14.1-4.6C305.7,278.3,306.5,276.6,306.8,275z M319.4,261.8
			c1-1,2.7-2.1,5.2-2.1c2.2,0,4,0.8,5.3,2.2c1.2,1.2,2.2,3.4,2.2,5.3c0,2-1,4.2-2.5,5.6c-1.2,1.1-3.1,2-5,2c-1.7,0-3.6-0.6-5.2-2.2
			c-1.5-1.5-2.3-3.4-2.3-5.1C317.1,265.1,318.1,263.1,319.4,261.8z M259.7,272.3c-1.4,1.4-3.3,2.2-5.2,2.2c-2,0-3.9-0.8-5.3-2.2
			c-1.3-1.3-2.3-3.2-2.3-5.2c0-1.9,0.8-3.9,2.3-5.3c1.3-1.2,3.4-2.1,5.3-2.1c1.8,0,3.9,0.9,5.2,2.1c1.5,1.5,2.3,3.6,2.3,5.3
			C262,269,261.2,270.9,259.7,272.3z"/>
	</g>
	<path id="XMLID_17_" class="st0" d="M228.5,283.3c-5.4,0-9.5,3-9.5,7.9c0,3.3,2.5,6.5,6.9,6.5c4.5,0,6.8-3.1,6.8-6.1
		c0-2.2-1.2-6.1-6.1-6.1c-0.7,0-1.3,0.1-1.9,0.2c0.5-1.2,2.8-1.8,4.6-1.8c4.4,0,8.8,2.9,8.8,8.2c0,1.6-0.4,3.2-1.3,4.4
		c-2.3,3.3-7.6,3.4-9.8,3.4h-4.5c-5.5,0-14.2,0.1-19,6.9c-2.2,3.1-3.3,7.1-3.3,11c0,7.4,4.3,12.7,10.7,12.7c4,0,9.6-1.9,9.6-7.6
		c0-4.7-3.6-7.3-7.1-7.3c-3.7,0-7.6,2.6-7.6,7c0,4.3,2.9,6.1,5.9,7c-0.7,0.1-1.2,0.1-1.8,0.1c-4.7,0-7.9-3.8-7.9-8.4
		c0-4,2-10.2,11.5-10.2c10.8,0,14.1,7.5,14.1,11.9c0,9.3-9,15.3-19.6,15.3c-13,0-16.3-9.7-16.3-18.7c0-3.6,0.6-7.2,1.8-9.6
		c2.5-5.1,6.4-5.2,10.4-5.2v-0.4c-1.6-0.1-8.4,0.8-8.4-10.7c0-7.1,2.7-11.5,9.1-11.5c6.1,0.1,9.9,3.8,9.9,8.4c0,3.4-2.8,5.7-6,5.7
		c-2.3,0-4.5-1.5-4.5-4c0-3,2.5-3.3,3.6-3.4c0-0.7-1.1-1.9-3.4-1.9c-3.3,0-5.5,2.1-5.5,5.1c0,3.3,3.6,6.1,7.4,6.1c3.3,0,9-1.9,9-7.9
		c0-3.6-2.9-8.9-13.1-8.9c-11,0-18.7,6.2-18.7,12.7c0,7.5,9,9.7,12.8,10.6c-5,1-10.3,2.3-15,6.4c-3.9,3.5-5.4,7.9-5.4,11.3
		c0,10.6,11.4,17.6,27.1,17.6c15.5,0,25.3-7,25.3-17.5c0-3.2-1.1-6.9-4.2-10.3c13,0,15.9-11,15.9-16.8
		C239.6,285.7,232.9,283.3,228.5,283.3z"/>
	<g id="XMLID_4_">
		<g id="XMLID_7_">
			<path id="XMLID_16_" class="st0" d="M272.5,325.6c-0.9,0.8-1.9,1.6-3.1,2.3c-1.2,0.7-2.7,1.1-4.5,1.1c-2.2,0-4.2-0.5-6-1.5
				c-1.8-1-3.2-2.3-4.4-4c-1.2-1.7-2.1-3.6-2.8-5.8s-1-4.4-1-6.7c0-2.7,0.3-5,1-7s1.6-3.8,2.7-5.2c1.2-1.4,2.5-2.5,4.1-3.2
				c1.6-0.7,3.3-1.1,5.2-1.1c1.2,0,2.2,0.1,3.1,0.4c0.9,0.2,1.8,0.5,2.5,1c0.7,0.4,1.4,0.8,1.9,1.3c0.5,0.5,1,0.9,1.4,1.4l1.8,5.3
				h3.5v-8.4c-0.7-0.5-1.5-0.9-2.4-1.4c-0.9-0.5-1.9-0.9-3.1-1.3c-1.1-0.4-2.4-0.7-3.7-1c-1.3-0.3-2.7-0.4-4.1-0.4
				c-3.3,0.5-6.3,1.2-8.9,2.3c-2.7,1-5,2.4-6.9,4.1c-1.9,1.7-3.4,3.8-4.4,6.2c-1,2.5-1.6,5.3-1.6,8.6c0,3.2,0.6,6.1,1.7,8.6
				c1.1,2.5,2.7,4.6,4.5,6.2c1.9,1.7,4.1,2.9,6.5,3.8s5,1.3,7.7,1.3c1.4-0.2,2.7-0.5,4-0.8c1.3-0.3,2.6-0.7,3.8-1.1
				c1.2-0.4,2.4-0.8,3.4-1.2c1.1-0.4,2-0.8,2.8-1.2l1.3-8.9h-3.3L272.5,325.6z"/>
			<polygon id="XMLID_15_" class="st0" points="291.7,291.5 288.7,291.7 281.4,293.4 281.6,295.7 285.3,295.6 285.3,328.6 
				281.7,329.2 282,331.4 288.7,331.3 295.3,331.4 295.6,329.2 291.7,328.6 			"/>
			<path id="XMLID_12_" class="st0" d="M316.8,326.7c-1.3,0.5-2.5,0.7-3.7,0.7c-1.4,0-2.6-0.3-3.6-0.7c-1.1-0.5-2-1.2-2.7-2.1
				c-0.7-0.9-1.3-2-1.7-3.2c-0.4-1.2-0.6-2.6-0.6-4h16.7v-2.6c0-1.4-0.2-2.8-0.5-4.1c-0.4-1.3-1-2.4-1.8-3.4c-0.8-1-1.8-1.7-3.2-2.3
				c-1.3-0.5-2.9-0.8-4.8-0.8c-4.4,1.1-7.7,2.9-9.8,5.3c-2.1,2.5-3.2,5.6-3.2,9.4c0,2.1,0.3,4,1.1,5.7s1.7,3.1,2.9,4.2
				c1.2,1.1,2.6,2,4.2,2.6c1.6,0.6,3.3,0.9,5.1,0.9c2-0.6,3.9-1.3,5.5-2.1c1.7-0.8,3.2-1.7,4.6-2.8l-1.1-2.3
				C319.2,325.7,318.1,326.2,316.8,326.7z M306.1,309.3c0.9-1.4,2.2-2.1,3.7-2.1c1.9,0,3.1,0.7,3.7,2c0.6,1.3,0.9,3,0.9,5.2
				l-9.9,0.5C304.7,312.6,305.2,310.7,306.1,309.3z"/>
			<path id="XMLID_9_" class="st0" d="M346.8,327.9c-0.3-0.5-0.5-1-0.7-1.5s-0.2-1.5-0.2-2.7v-10.9c0-1.7-0.1-3.1-0.5-4.3
				c-0.3-1.1-0.8-2-1.5-2.7s-1.7-1.1-2.9-1.4c-1.2-0.3-2.8-0.4-4.6-0.4l-10.7,4.6v4.7h5.8l0.9-4.9c0.5-0.3,1.2-0.5,1.9-0.7
				s1.4-0.3,2.2-0.3c1.3,0,2.1,0.4,2.5,1.2c0.4,0.8,0.6,2,0.6,3.7v3l-12.5,4.1c-0.7,0.8-1.2,1.6-1.6,2.5c-0.4,0.9-0.6,1.8-0.6,2.9
				c0,2.3,0.8,4.1,2.4,5.4c1.6,1.3,3.6,2,6.1,2l6.5-4.8l1.8,4.4l8.3-1.7l-0.3-2.2L346.8,327.9L346.8,327.9z M339.4,325.3l-2,1.4
				c-0.4,0.3-0.8,0.5-1.4,0.8s-1.2,0.5-1.9,0.5c-0.7,0-1.4-0.3-2.1-0.8c-0.6-0.5-1-1.6-1-3c0-0.6,0.1-1.2,0.3-1.8
				c0.2-0.6,0.5-1.1,0.9-1.6l7.1-2.9V325.3L339.4,325.3z"/>
			<path id="XMLID_8_" class="st0" d="M361.6,312.7l-0.3-8l-2.6,0.2l-7,1.7l0.3,2.3l3.6-0.3v19.9l-3.6,0.6l0.3,2.2l6.6-0.2l8.7,0.2
				l0.3-2.4l-5.9-0.5v-12.7l1-1.1c0.7-0.9,1.6-1.7,2.5-2.4c0.9-0.7,1.7-1.2,2.4-1.4h4.8v-6.5h-4.8L361.6,312.7z"/>
		</g>
		<g id="XMLID_5_">
			<path id="XMLID_6_" class="st0" d="M376.9,325.8l1.7,0.3l0.3,3.2l-0.3,2.8l-4.4,0.3l-1.6-0.3l-0.3-3.2l0.3-2.8L376.9,325.8z"/>
		</g>
	</g>
	<rect id="XMLID_3_" x="349.2" y="258.8" class="st0" width="29.8" height="6.4"/>
</g>
</svg>
