<?xml version="1.0" encoding="utf-8"?>
<!-- Generator: Adobe Illustrator 21.0.2, SVG Export Plug-In . SVG Version: 6.00 Build 0)  -->
<svg version="1.1" id="Layer_1" xmlns="http://www.w3.org/2000/svg" xmlns:xlink="http://www.w3.org/1999/xlink" x="0px" y="0px"
	 viewBox="0 0 566.9 566.9" style="enable-background:new 0 0 566.9 566.9;" xml:space="preserve">
<style type="text/css">
	.st0{fill:#FFFFFF;}
</style>
<g>
	<path class="st0" d="M282.2,333.8c0.4-1.4,1-2.7,1.3-4.1c0.3-1.4-0.7-1.9-1.8-2.3c0,1.4-0.1,2.7,0,3.9
		C281.7,332.2,282,333,282.2,333.8c-1,1.1-0.8,2.7,0.9,4.4C282.7,336.5,282.4,335.2,282.2,333.8z M223.9,291.7
		c1.9,0.7,2.4-0.4,2.4-2c-2-0.6-0.8-1.9-0.5-2.9c0.5-1.9,1.3-3.7,2-5.7c-3.6,1.7-4.6,3.3-4.2,5.9
		C223.9,288.6,223.9,290.2,223.9,291.7c-0.2,0.9-0.5,1.7-0.8,2.5c0.2,0.1,0.3,0.3,0.5,0.4c0.7-0.4,1.3-0.9,2.2-1.4
		C225,292.6,224.5,292.2,223.9,291.7z M342.4,345.2c-0.9,1.6-0.5,3.2,0.1,4.7C343.7,349,343.7,347.3,342.4,345.2
		c0.4-1.2,0.9-2.5,1.3-3.7c0.1-0.2,0-0.4-0.1-0.6c-0.3-1.7-0.7-3.5-1.1-5.6c2.6,0.8,1.9-0.7,2-1.8c-0.2,0.1-0.4,0.1-0.5,0.2
		c-0.2-2.2-0.4-4.4-0.6-6.6c-1.9,1.1-2.9,11.2-1.1,13.3c-0.4,0.3-0.7,0.5-1.3,0.9c-0.2-0.7-0.3-1.2-0.6-2.1
		C339.6,342.2,341.4,343.5,342.4,345.2z M340,203.5c0.7-0.9,1.5-1.8,2.1-2.7c1.5-2.1,1.4-4.3,0.5-6.8c-1.2-3.4-4.1-6.1-3.9-10.2
		c0.1-2.2-1.1-4.5-1.5-6.8c-0.5-2.3,0.6-4.8,2.1-5.6c0.5-2.2,1-4.1,1.5-6.1c-0.2,0-0.3-0.1-0.5-0.1c-0.2,0.1-0.4,0.3-0.5,0.4
		c-1-1.3-2-2.6-2.8-4c-0.4-0.7-0.3-1.7-0.8-2.3c-1.3-1.6-2.8-3.1-4.2-4.6c-0.1,0.1-0.2,0.3-0.5,0.6c-0.6-1.6-1.3-3-3.3-3.2
		c-0.1-0.3-0.3-0.9-0.6-1.8c-1,2-1,2-2.8,0.9c-2.2-1.4-4.5-2.6-6.8-3.9c-0.2-0.1-0.3-0.3-0.5-0.4c-1.6-1.2-3.2-2.5-4.8-3.7
		c-0.1,0.3-0.1,0.5-0.2,0.8c-0.5,0.2-1,0.4-1.6,0.7c0.4,0.3,0.7,0.5,1.5,1.1c-1.6,0-2.5,0-3.5,0c2.2,0.9,4.4,1.4,6.6,2
		c1.2,0.4,2.3,1,3.3,1.7c2.2,1.5,4.3,3.2,6.5,4.8c0.4,0.3,1.1,0.6,1.4,0.4c1.3-0.9,1.5,0.3,2,0.9c0.2,0.2,0.4,0.4,0.5,0.7
		c1,1.7,2.1,3.4,3.1,5.2c0,0.1-0.1,0.2-0.1,0.3c-0.4-0.2-0.7-0.4-1-0.6c-0.1,0.1-0.3,0.2-0.4,0.3c0.9,1.4,1.8,2.7,2.7,4.1
		c-0.1,0.1-0.3,0.2-0.4,0.3c-1.5-1.5-3-3.1-4.4-4.6c-0.1,0.1-0.3,0.2-0.4,0.3c0.5,1.2,1,2.4,1.3,3.7c0.1,0.4-0.2,1-0.3,1.5
		c-0.5-0.1-1-0.2-1.4-0.5c-0.7-0.4-1.3-1-1.9-1.5c-0.1-0.1-0.2,0-0.3,0c0,0.2,0,0.5,0,0.8c-0.6-0.4-1.2-0.7-1.7-1
		c1.3,1.5,0.1,2.5-0.4,3.1c0.2,1.4,0.3,2.4,0.4,3.5c-1.6-0.3-3.1-0.5-4.8-0.8c0.6-0.3,1-0.6,1.8-1.1c-1.1-0.4-1.8-0.7-2.6-1
		c-0.3,1.4-0.5,2.5-0.6,3c-1.1,0.6-1.9,1.1-2.9,1.6c0.8,0.6,1.3,0.9,1.8,1.3c-2.7,1-3.3,3.7-1.5,6c1.2,1.6,2.4,3.1,1.9,5.4
		c-0.2,1,0.8,2.3,1.3,3.5c0.1,0.2,0.2,0.5,0.2,0.7c0,1.8-0.1,3.5-2.7,3.4c1,1.9,2,3.2,3.9,3.3c1.5,0.1,2.1,0.8,2.8,1.9
		c0.4,0.7,1,1.4,1.7,1.8c1.6,0.9,3.4,1.4,4.8,2.5c4.2,3,6,7.9,8.7,12c0.7,1,0.2,2.8,1,3.8c1.9,2.4,0.7,5.3,1.5,7.9
		c0.1,0.4-0.4,1.2-0.8,1.7c-1.2,1.7-3,2.1-5,2.2c-0.8,0-1.8,0.4-2.2,1c-0.8,1.3-1.3,2.7-1.7,4.1c-0.4,1.4-1.2,2.3-2.6,3
		c-0.6,0.3-0.9,1.4-1.6,2.5c1.1-0.2,1.5-0.3,2.4-0.5c-0.6,1.3-1.3,2.2-1.3,3.1c-0.1,1,0.5,1.9,0.8,2.8c-0.4,0.8-0.9,1.6-1.4,2.6
		c-0.3,0.1-0.9,0.2-1.5,0.4c0.1,0.1,0.3,0.3,0.4,0.4c-1.5,1.6-3.2,3.1-4.8,4.6c0.1,0.7,0.2,1.5,0.3,2c1.2,0.6,2.1,1.1,3,1.6
		c0.4,0.2,0.8,1,0.8,1c-1,1.1,0.1,1.8,0.6,2.5c0.7,1.1,1.6,2,2.5,3.1c0.6,0,1.4-0.1,2.2,0c0.3,0,0.8,0.5,0.8,0.8
		c0.2,1.5,0.1,1.5,1.4,0.8c0.5-0.3,1-0.7,1.4-1.2c2.8-2.9,1.8-6.7,2.2-10.1c0.3-2.9,1.1-5.5,2-8.1c0.6-2,1.5-3.9,1.6-6
		c0.1-2,0.2-4,0.4-6.1c0.2-2.8,0.3-5.5,3.3-7.2c1.8-1,2.2-3.2,1.2-5.3c-1.6-3.4-3.2-6.7-4.7-9.9c0.1-1.3,0.4-2.6,0.4-3.9
		C340.2,206.7,340,205.1,340,203.5L340,203.5z M373.6,331.9c-1.1-0.3-2.2-0.5-3.6-0.9c-0.3,8.7-3,16.8-3.2,25.1
		c-0.2,8.8-3.9,16.7-4.7,25.6c0.5-0.8,0.9-1.9,1.4-2c2.1-0.3,1.3-1.7,1.3-2.8c0-0.9-0.1-1.8,0-2.6c1.1-5.8,2.2-11.7,3.5-17.5
		c0.8-3.4,2.2-6.7,2.8-10.2c0.3-1.7,0.5-2.3,2.4-1.4c0-1,0.3-1.9-0.1-2.4c-0.5-0.8-0.6-1.1,0.4-1.4c0.2-0.1,0.5-0.4,0.6-0.7
		c0.5-1.5,1-3-1-4.1c2.1,0.1,3.1-0.9,2.4-2.8c-0.9-2.3,0.2-4.1,0.7-6.2c0.7-2.4,1-5,1.6-7.9c-1.7,0.5-2.7,0.8-2.6,2.4
		c0,1.3-0.3,2.6-0.6,3.8C374.6,327.9,374.1,329.8,373.6,331.9z M197.4,374.3c0.2,0.1,0.3,0.2,0.5,0.3c1.7-0.8,2.1-2.6,2.7-4.2
		c0.5-1.4,0.5-3.1,1.4-4.3c1.4-1.9,2.1-3.9,2.7-6.2c0.6-2.5,0.9-5.3,2.3-7.2c1.3-1.7,1.6-3.4,2.2-5.2c0.6-1.8,0.3-3.7,1.3-5.4
		c1-1.7,1.2-4.3,2.5-5.4c2.5-2,0.9-4.9,2.6-6.9c0.1-0.1-0.3-0.7-0.4-1.1c-0.2,0-0.5-0.1-0.7-0.1c-0.3,1-0.7,2.1-0.9,3.1
		c-0.1,0.9-0.2,1.5-1.3,2c-1.3,0.6-2.2,1.8-1.8,3.5c0.1,0.4,0,0.9-0.2,1.3c-1.4,2.5-3.2,4.8-3.2,7.8c0,0.3-0.1,0.7-0.3,0.9
		c-2.6,2.2-2.3,5.6-3.3,8.4c-0.9,2.5-1.4,5.2-2.2,7.7C200,367.1,198.7,370.7,197.4,374.3z M271,232.9c0.3-0.1,0.5-0.2,0.8-0.2
		c-0.1-1.4-0.4-2.8-0.3-4.2c0.1-1.4,0.6-2.9,0.8-4c1,0.2,1.7,0.3,2.4,0.4c0.2-0.2,0.4-0.4,0.5-0.7c-0.8-1.3-1.5-2.6-2.3-3.9
		c-0.3-0.4-0.6-0.8-0.8-1.3c-0.5-1.5,0.2-3.7-2.7-3.6c-1,0-2.1-1.1-2.7-1.4c-3.5,1.7-3.1,4.6-3.1,7.2c0,0.9-0.1,1.8,0.2,2.6
		c0.6,1.5,1.5,2.8,2.3,4.2c0.9-1.2,0.1-2.1-0.6-3.2c-1.3-1.8-1-4.9,0.8-6.5c0.3,0.6,0.6,1.1,0.7,1.7c0.7,2.8,1.2,5.7,2,8.5
		C269.4,230.2,270.3,231.5,271,232.9z M353.6,359.6c-0.2,0.1-0.3,0.3-0.5,0.4c0.2,0.7,0.5,1.3,0.7,2c0.2,1.5,2.5,3.1,0,4.6
		c-0.1,0.1-0.1,0.4-0.1,0.5c-0.4,1.7-0.8,3.4-1,5.2c-0.1,0.3,0.3,0.9,0.6,1.1c1.1,0.5,2.4,0.8,2.1,2.5c0,0.1,0.8,0.5,1.3,0.5
		c1.4,0.1,2.2,0.7,2.3,2.2c0,0.7,0.4,1.3,0.6,2c0.2,0,0.4,0,0.7,0c0.3-1.6,0.7-3.1,0.9-4.3c-1.6-0.6-2.8-1-3.6-1.3
		c2.1-3.1,1.7-6.4,2.2-8.7c-0.6-0.8-1-1.1-1.1-1.5c-0.1-0.5,0.3-1.2,0.2-1.7c-0.4-1-0.9-1.9-1.4-2.9c-0.5,0.3-1,0.6-1.5,1
		C355,360.8,354.3,360.2,353.6,359.6z M315.7,225.4c-0.8,0.5-2.2,0.9-2.3,1.6c-0.3,2-1.3,3.8-0.1,6.1c0.8,1.5,1.8,2,2.9,2
		c1.1,0.1,2.5-0.4,2.8-2c0.1-0.4,0.4-0.8,0.6-1.2C321,229,319.1,225.7,315.7,225.4z M187.8,340.2c0.3,0.3,0.6,0.6,0.9,0.9
		c0.2-0.6,0.6-1.1,0.7-1.7c0.2-1.5,1.5-1.6,2.6-1.8c0.3-0.1,0.8,0.4,1.2,0.6c-0.3,0.3-0.6,0.8-1,1c-0.3,0.2-0.9-0.1-1.2,0.1
		c-1,0.8-2,1.8-3.2,2.9c0,0.2,0.1,0.8,0.2,1.6c1.8-1.3,3.4-2.4,5-3.7c1-0.9,3.4-1,2.1-3.4c0-0.1,0.1-0.3,0.2-0.3
		c2.6-1.3,2-4.1,3.1-6.1c-0.5-0.4-0.9-0.8-1.5-1.3c-0.4,0.5-0.6,1-1,1.5c-1.5,2-2.8,4.5-4.8,5.7C189.2,337,188.7,338.6,187.8,340.2z
		 M348.5,382.6c0.2,0.6,0.4,1.2,0.5,1.7c0.1,0.5,0.3,1.1,0.1,1.6c-0.5,1.1-0.5,1.1,0.5,1.4c1.3,0.4,3-0.5,3.3-2
		c0.3-1.6,0.2-3.3,0.7-4.9c0.7-2.1,0-3.4-1.8-4.4c-0.1,0.1-0.2,0.3-0.3,0.4c-1.2,1.2-2.4,2.3,0.2,3.4c0.2,0.1,0.2,0.9,0.2,1.4
		c0,0.2-0.5,0.5-0.7,0.4c-1.3-0.5-2.5-1-3.7-1.6c0,0.8,0,2,0,3.4C347.9,383.2,348.2,382.9,348.5,382.6z M305.4,204.2
		c2.1-0.4,3.9-0.7,5.6-1c0.4,1.5,0.9,1.6,5,1c-0.1-0.6-0.2-1.2-0.4-2c1.3,0,2.5,0,3.9,0C315.6,198.6,309.9,199.4,305.4,204.2z
		 M254.3,208.2c-0.3-0.2-0.6-0.3-0.9-0.5c-0.8,1-2.1,2-2.3,3.1c-0.6,3.1-0.9,6.3-1,9.4c0,1.2,0.7,2.4,1.1,3.5c0.2,0,0.5-0.1,0.7-0.1
		c-1.2-3.8,0-7.1,1.4-10.5C254.1,211.6,254.1,209.8,254.3,208.2z M226,303.2c2.4-1.4,2.4-1.3,1.2-4c-0.2-0.5,0.1-1.1-0.1-1.6
		c-0.4-1-1-1.8-1.5-2.7c-0.6,0.6-1.5,1.2-1.7,1.9c-0.7,3.1,0.9,6,1.7,9C225.7,304.8,225.9,304,226,303.2z M220,370.8
		c0.2,0.1,0.4,0.3,0.5,0.4c0.7-0.8,1.8-1.6,1.9-2.5c0.6-3.7,1-7.5,1.4-11.3c0-0.5-0.2-0.9-0.2-1.4c-0.2,0-0.3,0-0.5,0
		c-0.1,1.2,0,2.7-1.8,2.7c-0.1,0-0.2,0.6-0.3,0.9c-0.1,0.8-0.2,1.6-0.2,2.5c0.3,0.1,0.7,0.2,0.6,0.2c-0.6,2.3-1.1,4.5-1.6,6.7
		c0.4,0.2,0.7,0.4,1.2,0.6C220.6,370,220.3,370.4,220,370.8z M277.6,339.9c0.5-3.9,1.1-7.7,1.6-11.6c0.2,0,0.3,0,0.5,0
		c0,1.3,0,2.6,0,3.9c0.4-0.3,0.4-0.5,0.5-0.7c0.1-2.4,0.1-4.9,0.4-7.3c0.2-1.6,0.5-3.5,3.1-3c0.3,0.1,0.8-0.4,1-0.5
		c-0.7-0.7-1.2-1.2-1.9-1.8C277.7,324.9,277.4,332.4,277.6,339.9z M205.1,375.7c0.8-1.2,3.2-1,2.6-3.3c0-0.2,0.2-0.5,0.3-0.6
		c1.2-0.4,1.1-1.2,0.9-2.1c-0.1-0.3,0.3-1,0.7-1.1c1-0.4,1.2-1.1,0.6-1.7c-0.3-0.3-1.5-0.4-1.9-0.1
		C205.6,369.1,204.7,372.1,205.1,375.7z M286.2,342.4c0.2,0,0.5-0.1,0.7-0.1c-0.3-4.3-0.5-8.5-0.8-12.8c0-0.1-0.5-0.3-0.8-0.4
		c-0.3,2.5-0.6,4.8-0.8,7.1c0,0.3,0.6,0.6,1,1c-0.2,0.3-0.6,0.8-0.8,1.1C285.2,339.8,285.7,341.1,286.2,342.4z M222.6,337.8
		c-0.1-0.1-0.2-0.2-0.2-0.3c-0.5,1-1.5,2-1.6,3c-0.3,3.7-0.4,7.4-0.5,11.1c0,0,0.1,0,0.6,0.2c0.4-1.8,1-3.6,1.2-5.4
		C222.4,343.5,222.4,340.7,222.6,337.8z M337.3,361.3c1.7,0.8,2.7-0.3,3.2-1.2c1-1.8,2-1.3,3.4-0.5c-0.4,0.2-0.6,0.4-0.7,0.4
		c0.4,0.6,0.9,1.1,1.4,1.8c0.2-0.8,0.3-1.4,0.5-2.1c0.1,0.1,0.3,0.3,0.4,0.4c0.3-0.2,0.7-0.5,1.4-1.1c-3.8-0.5-6.9-1.7-10.1-0.6
		c-0.2,0.3-0.4,0.5-0.6,0.8c0.7,0.3,1.4,0.5,2.1,0.7C337.8,360.6,337.6,360.9,337.3,361.3z M276.2,256.6c-0.1,0.1-0.1,0.3-0.2,0.4
		c2,1.4,3.9,2.8,5.9,4.2c-0.7-2.2,0.1-2.9,2.2-2.7c-0.4-0.3-0.8-0.5-1.1-0.6c-1.7-0.4-3.3-0.8-4.1-2.7c-0.2-0.4-1.3-0.4-1.9-0.7
		c0,0.2-0.1,0.3-0.1,0.5c0.3,0.5,0.7,1,1.2,1.7C277.2,256.8,276.7,256.7,276.2,256.6z M256,217.4c-2.3,2-2.6,3.7-1.1,6.2
		c0.9,1.5,1.4,1.8,3,1.1C255.4,222.8,257.4,219.7,256,217.4z M192.9,361.8c0.2,0,0.4,0.1,0.5,0.1c0.9-5.7,1.8-11.3,2.7-17
		C194.2,350.4,192.7,355.9,192.9,361.8z M339.2,374.1c2.3,1.1,2.3,1.1,2.8,4.1c0.3-0.5,0.5-0.9,0.8-1.4c0.7,0.6,1.3,1.1,2,1.7
		c1.3-3.8-2.4-3.8-3.6-5.7C340.4,373.3,339.9,373.7,339.2,374.1z M284.2,321.7c-0.5,1.3-1.1,2.4-1.4,3.6c-0.1,0.6,0.3,1.4,0.5,2.1
		c0.8-0.2,1.8-0.3,2.2-0.8C286.7,325.1,286,323,284.2,321.7z M313.5,211.5c-3.9-0.2-6.5,1.4-6.1,3.7
		C310.4,215.7,311.6,213.2,313.5,211.5z M222.4,335.2c2.3,0.3,4.8-3.4,4.3-6.5c-0.7,0.5-1.3,0.9-2,1.4c0.4,0.2,0.8,0.3,1.1,0.4
		c0.1,0.2,0.1,0.4,0.2,0.5c-1.3,0.6-2.5,1.3-3.7,1.9C222.3,333.6,222.4,334.3,222.4,335.2z M314.7,247c0.6-2.5,1.1-4.7,1.8-7.2
		C312.8,242.4,312.2,244.5,314.7,247z M281.6,139.6c0,0.2,0,0.4-0.1,0.6c3.5,0.5,7.1,0.9,10.8,1.4c-1-1.6-3.7-0.7-3.7-3.4
		c-0.2,1.9-1.3,1.8-2.7,1.6C284.5,139.6,283,139.6,281.6,139.6z M255.2,206.5c1.7,1.5,3.5,2.7,4.8,4.3c1.3,1.7,2.1,3.8,3,5.7
		C264.1,213.3,260.2,208.1,255.2,206.5z M261.1,333.3c-0.4-0.1-0.8-0.1-1.2-0.2c-0.4,1.7-0.9,3.3-1.1,5c-0.1,0.3,0.6,0.9,1,1.1
		c0.2,0.1,0.9-0.4,1-0.6C260.9,336.9,261,335.1,261.1,333.3z M362.7,366c-2,2-2.9,7.6-1.5,9.2C361.7,372,362.2,369,362.7,366z
		 M262.7,185.1c-0.7,2.1-3.4,4-0.8,6.1c0.8-2.1,1.6-4.3,2.4-6.6C263.6,184.8,263.1,185,262.7,185.1z M236.3,295.2
		c0.2,0,0.3,0,0.5-0.1c0.8-1.8,1.5-3.5,2.3-5.3c-0.1,0-0.1,0-0.2-0.1c-0.4,0.6-0.8,1.2-1.2,1.8c-0.1-0.1-0.3-0.1-0.4-0.2
		c0-2.4,0-4.8,0-7.2c-0.1,0-0.2,0-0.3,0C236.7,287.9,236.5,291.6,236.3,295.2z M362.3,296.5c0-0.1,0.1-0.2,0.1-0.3
		c-1.6-0.8-3.2-1.5-4.8-2.3c-0.1,0.1-0.2,0.3-0.2,0.4c0.9,1.5,1.9,2.9,3.2,4.9c0.3-1.2,0.4-2,0.6-3
		C361.4,296.4,361.9,296.5,362.3,296.5z M308.5,306.5c2.8-0.9,4.8-4.3,4.5-6.7C311.6,301.8,310.1,304,308.5,306.5z M324.6,148.8
		c-2.1-1.1-4.1-2.2-6.1-3.3c-0.1,0.1-0.2,0.3-0.3,0.4c2.3,1.5,4.6,3,7.1,4.5c-0.1-1-0.1-1.7-0.2-2.5
		C324.8,148.3,324.6,148.7,324.6,148.8z M364.5,313.4c-1.3,3.1-1.2,5.6,0.1,8c0.2,0,0.4,0,0.6-0.1
		C365,318.8,364.8,316.3,364.5,313.4z M255.3,190.6c0-2.2,0-3.8,0-5.7c-1.2,0.9-2.3,1.7-2,3.2c0.1,0.5,0.3,0.9,0.4,1.5
		c0.3-0.4,0.5-0.6,0.7-0.9C254.6,189.2,254.8,189.6,255.3,190.6z M259.5,229.8c0.6-1.1,1.1-2.2-0.3-2.9c-0.4-0.2-1.5,0-1.6,0.2
		C257.4,228.4,257.9,229.3,259.5,229.8z M211.7,287.1c-0.9,1.9-1.8,3.8-2.6,5.5C212.6,292,212.1,289.5,211.7,287.1z M311.6,209.3
		c-0.7-0.6-1.4-1.1-2.2-1.7c-0.2,0.6-0.8,1.2-0.7,1.6C309.2,210.5,310.2,210.5,311.6,209.3z M333.9,226.5c-0.1-0.2-0.1-0.5-0.2-0.7
		c-2.2,0.8-4.4,1.6-6.7,2.3c0.1,0.2,0.1,0.4,0.2,0.7C329.5,228,331.7,227.3,333.9,226.5z M279.8,369.1c-1.3-0.1-2.2,0.4-2.2,1.8
		c-0.1,1.4,0.4,2.4,2,2.7C279.9,372,277.3,370.4,279.8,369.1z M378.6,316.2c-0.2,0-0.5-0.1-0.7-0.1c-0.4,0.6-0.8,1.1-1.1,1.7
		c-0.2,0.3-0.1,0.8-0.1,1.2c0.5,0,1.3,0.1,1.3-0.1C378.3,318,378.4,317.1,378.6,316.2z M361.2,313.9c0,1.8,0,3.4,0,5
		C362.7,314.7,362.7,314.7,361.2,313.9z M228.6,313.5c-0.1-1.9-0.2-3.5-0.2-5c-0.1,0-0.2,0-0.3,0c-0.3,1-0.6,2-0.9,3.1
		C227.5,312,227.9,312.6,228.6,313.5z M277.2,253.3c-0.9-0.3-1.7-0.5-2.9-0.9C275.5,255,275.9,255.1,277.2,253.3z M281.5,161.4
		c0-0.2,0-0.4,0.1-0.6c-0.5-0.2-1.3-0.7-1.5-0.5c-0.4,0.3-0.6,1-0.9,1.6c0.1,0.1,0.2,0.2,0.4,0.4
		C280.2,161.9,280.8,161.7,281.5,161.4z M277.3,259.4c-0.2,0.1-0.4,0.2-0.6,0.4c0.8,1.1,1.6,2.1,2.5,3.2c0.2-0.2,0.4-0.3,0.7-0.5
		C279,261.4,278.2,260.4,277.3,259.4z M256.5,190.4c-1.8,1.6-0.9,2.9-0.9,4.1c0.2,0,0.3,0,0.5,0
		C256.3,193.3,256.4,192.1,256.5,190.4z M358.9,303.1c1.4-3.2,1.4-3.2-0.4-3.7C358.7,300.6,358.8,301.8,358.9,303.1z M338.5,332.4
		c-0.3,0-0.5-0.1-0.8-0.1c-0.2,1.1-0.4,2.2-0.6,3.3c0.3,0,0.5,0.1,0.8,0.1C338.1,334.6,338.3,333.5,338.5,332.4z M267,174.5
		c0,0.1,0.1,0.3,0.1,0.4c1.1-0.2,2.2-0.4,3.3-0.5c-0.1-0.5-0.2-0.8-0.2-1.2C269.2,173.6,268.1,174.1,267,174.5z M193.8,363.4
		c-0.1,0-0.2,0-0.4,0c0,1.3,0,2.6,0,3.9c0.2,0,0.4,0,0.6,0C193.9,365.9,193.8,364.7,193.8,363.4z"/>
	<path class="st0" d="M345.9,393c0.1-0.6,0.2-1.2,0.3-1.8c0.8-0.1,1.6-0.2,2-0.3c0.2-0.9,0.3-1.6,0.5-2.3c0.8,0.2,1.5,0.4,2.7,0.7
		c-0.8,0.7-1.1,1-1.3,1.1c0,1,0,1.8,0,2.7C348.7,393,347.3,393,345.9,393z"/>
	<path class="st0" d="M217.8,393c0.4-1.2,0.8-2.4,1.2-3.7c0.7,0.1,1.3,0.2,2.3,0.4c-0.3,1.1-0.6,2.2-0.9,3.3
		C219.5,393,218.7,393,217.8,393z"/>
	<path class="st0" d="M341.7,393c-0.6-0.7-1.3-1.4-1.9-2.1c0.9-0.1,1.8-0.1,2.6-0.2c0.2,0.8,0.3,1.5,0.5,2.2
		C342.5,393,342.1,393,341.7,393z"/>
	<path class="st0" d="M340,203.5c0.1,1.6,0.2,3.2,0.1,4.8c0,1.3-0.3,2.6-0.4,3.9c1.5,3.2,3.1,6.5,4.7,9.9c1,2.1,0.6,4.3-1.2,5.3
		c-3.1,1.7-3.1,4.4-3.3,7.2c-0.1,2-0.3,4-0.4,6.1c-0.1,2.1-1,4-1.6,6c-0.8,2.6-1.7,5.2-2,8.1c-0.3,3.3,0.6,7.2-2.2,10.1
		c-0.4,0.4-0.9,0.9-1.4,1.2c-1.3,0.7-1.3,0.7-1.4-0.8c0-0.3-0.5-0.7-0.8-0.8c-0.8-0.1-1.5,0-2.2,0c-0.9-1.1-1.8-2-2.5-3.1
		c-0.4-0.7-1.6-1.3-0.6-2.5c0.1-0.1-0.4-0.8-0.8-1c-0.9-0.6-1.9-1-3-1.6c-0.1-0.5-0.2-1.3-0.3-2c1.6-1.5,3.3-3,4.8-4.6
		c-0.1-0.1-0.3-0.3-0.4-0.4c0.6-0.1,1.2-0.3,1.5-0.4c0.5-1,1-1.8,1.4-2.6c-0.3-0.8-0.8-1.8-0.8-2.8c0.1-0.9,0.8-1.8,1.3-3.1
		c-1,0.2-1.4,0.3-2.4,0.5c0.7-1.2,0.9-2.2,1.6-2.5c1.4-0.6,2.2-1.5,2.6-3c0.4-1.4,1-2.9,1.7-4.1c0.4-0.6,1.4-0.9,2.2-1
		c2-0.1,3.8-0.5,5-2.2c0.4-0.5,0.9-1.2,0.8-1.7c-0.9-2.5,0.4-5.4-1.5-7.9c-0.7-0.9-0.3-2.7-1-3.8c-2.8-4.1-4.5-9-8.7-12
		c-1.5-1-3.3-1.6-4.8-2.5c-0.7-0.4-1.3-1.1-1.7-1.8c-0.7-1.1-1.3-1.8-2.8-1.9c-1.9-0.1-2.9-1.4-3.9-3.3c2.6,0.1,2.7-1.7,2.7-3.4
		c0-0.2-0.1-0.5-0.2-0.7c-0.5-1.2-1.5-2.5-1.3-3.5c0.6-2.4-0.7-3.9-1.9-5.4c-1.7-2.3-1.1-5.1,1.5-6c-0.5-0.4-0.9-0.7-1.8-1.3
		c1-0.6,1.8-1,2.9-1.6c0.1-0.6,0.3-1.7,0.6-3c0.8,0.3,1.5,0.6,2.6,1c-0.8,0.5-1.2,0.7-1.8,1.1c1.7,0.3,3.2,0.6,4.8,0.8
		c-0.1-1.1-0.2-2.1-0.4-3.5c0.5-0.7,1.7-1.7,0.4-3.1c0.5,0.3,1.1,0.6,1.7,1c0-0.3,0-0.6,0-0.8c0.1,0,0.3,0,0.3,0
		c0.7,0.5,1.3,1.1,1.9,1.5c0.4,0.3,0.9,0.3,1.4,0.5c0.1-0.5,0.4-1.1,0.3-1.5c-0.4-1.3-0.9-2.5-1.3-3.7c0.1-0.1,0.3-0.2,0.4-0.3
		c1.5,1.5,3,3.1,4.4,4.6c0.1-0.1,0.3-0.2,0.4-0.3c-0.9-1.4-1.8-2.7-2.7-4.1c0.1-0.1,0.3-0.2,0.4-0.3c0.3,0.2,0.7,0.4,1,0.6
		c0-0.1,0.1-0.3,0.1-0.3c-1-1.7-2.1-3.5-3.1-5.2c-0.1-0.2-0.3-0.5-0.5-0.7c-0.5-0.6-0.7-1.8-2-0.9c-0.2,0.2-1-0.1-1.4-0.4
		c-2.2-1.6-4.3-3.3-6.5-4.8c-1-0.7-2.1-1.4-3.3-1.7c-2.2-0.7-4.4-1.1-6.6-2c1,0,1.9,0,3.5,0c-0.8-0.6-1.1-0.9-1.5-1.1
		c0.6-0.3,1.1-0.5,1.6-0.7c0.1-0.3,0.1-0.5,0.2-0.8c1.6,1.2,3.2,2.4,4.8,3.7c0.2,0.1,0.3,0.3,0.5,0.4c2.3,1.3,4.6,2.5,6.8,3.9
		c1.7,1.1,1.7,1.2,2.8-0.9c0.3,0.8,0.5,1.4,0.6,1.8c2,0.2,2.7,1.6,3.3,3.2c0.2-0.3,0.4-0.5,0.5-0.6c1.4,1.5,2.9,3,4.2,4.6
		c0.5,0.6,0.4,1.6,0.8,2.3c0.9,1.4,1.9,2.7,2.8,4c0.2-0.1,0.4-0.3,0.5-0.4c0.2,0,0.3,0.1,0.5,0.1c-0.5,1.9-1,3.9-1.5,6.1
		c-1.5,0.8-2.6,3.3-2.1,5.6c0.5,2.3,1.6,4.6,1.5,6.8c-0.1,4.1,2.7,6.8,3.9,10.2c0.9,2.5,1,4.6-0.5,6.8
		C341.5,201.8,340.7,202.6,340,203.5c-0.7,0-1.4-0.1-2.1,0c-0.6,0.2-1.4,0.6-1.5,1.1c-0.2,0.7,0.1,1.5,0.2,2.3
		c0.7-1.2,0.1-3.1,2.5-2.5C339.3,204.4,339.7,203.8,340,203.5z"/>
	<path class="st0" d="M373.6,331.9c0.5-2.1,0.9-4,1.4-5.9c0.3-1.3,0.6-2.6,0.6-3.8c-0.1-1.6,0.9-1.8,2.6-2.4
		c-0.6,2.9-0.9,5.5-1.6,7.9c-0.6,2-1.6,3.8-0.7,6.2c0.7,1.8-0.3,2.9-2.4,2.8c2,1.1,1.5,2.6,1,4.1c-0.1,0.3-0.3,0.7-0.6,0.7
		c-1,0.2-0.9,0.6-0.4,1.4c0.3,0.6,0.1,1.4,0.1,2.4c-1.9-0.9-2.1-0.3-2.4,1.4c-0.6,3.5-2,6.8-2.8,10.2c-1.3,5.8-2.4,11.6-3.5,17.5
		c-0.2,0.9-0.1,1.8,0,2.6c0,1.2,0.8,2.5-1.3,2.8c-0.5,0.1-0.9,1.2-1.4,2c0.8-8.8,4.5-16.8,4.7-25.6c0.2-8.4,3-16.5,3.2-25.1
		C371.4,331.4,372.6,331.7,373.6,331.9z"/>
	<path class="st0" d="M197.4,374.3c1.3-3.6,2.6-7.2,3.7-10.8c0.8-2.5,1.3-5.2,2.2-7.7c1-2.8,0.7-6.2,3.3-8.4
		c0.2-0.2,0.3-0.6,0.3-0.9c0-3,1.8-5.3,3.2-7.8c0.2-0.4,0.3-0.9,0.2-1.3c-0.4-1.7,0.4-3,1.8-3.5c1.1-0.5,1.1-1.1,1.3-2
		c0.2-1.1,0.6-2.1,0.9-3.1c0.2,0,0.5,0.1,0.7,0.1c0.2,0.4,0.6,0.9,0.4,1.1c-1.6,2-0.1,5-2.6,6.9c-1.4,1.1-1.6,3.6-2.5,5.4
		c-1,1.7-0.7,3.7-1.3,5.4c-0.6,1.8-0.9,3.5-2.2,5.2c-1.4,1.9-1.8,4.7-2.3,7.2c-0.5,2.2-1.2,4.3-2.7,6.2c-0.9,1.1-0.9,2.8-1.4,4.3
		c-0.6,1.6-1,3.4-2.7,4.2C197.7,374.5,197.6,374.4,197.4,374.3z"/>
	<path class="st0" d="M271,232.9c-0.7-1.4-1.6-2.8-2-4.2c-0.8-2.8-1.3-5.7-2-8.5c-0.1-0.6-0.5-1.1-0.7-1.7c-1.8,1.5-2.1,4.7-0.8,6.5
		c0.7,1,1.6,2,0.6,3.2c-0.8-1.4-1.7-2.8-2.3-4.2c-0.3-0.8-0.2-1.7-0.2-2.6c0-2.7-0.4-5.5,3.1-7.2c0.6,0.3,1.7,1.4,2.7,1.4
		c3-0.1,2.2,2.1,2.7,3.6c0.2,0.5,0.5,0.9,0.8,1.3c0.8,1.3,1.5,2.6,2.3,3.9c-0.2,0.2-0.4,0.4-0.5,0.7c-0.7-0.1-1.3-0.2-2.4-0.4
		c-0.2,1.1-0.7,2.6-0.8,4c-0.1,1.4,0.2,2.8,0.3,4.2C271.5,232.8,271.2,232.9,271,232.9z"/>
	<path class="st0" d="M353.6,359.6c0.7,0.6,1.4,1.1,2.1,1.6c0.5-0.3,1-0.6,1.5-1c0.5,1,1.1,1.9,1.4,2.9c0.2,0.5-0.2,1.1-0.2,1.7
		c0.1,0.4,0.5,0.7,1.1,1.5c-0.6,2.4-0.1,5.6-2.2,8.7c0.9,0.3,2,0.7,3.6,1.3c-0.3,1.2-0.6,2.7-0.9,4.3c-0.2,0-0.4,0-0.7,0
		c-0.2-0.7-0.5-1.3-0.6-2c-0.1-1.5-0.9-2.1-2.3-2.2c-0.5,0-1.3-0.4-1.3-0.5c0.3-1.7-1-2-2.1-2.5c-0.3-0.2-0.7-0.8-0.6-1.1
		c0.3-1.7,0.7-3.4,1-5.2c0-0.2,0-0.5,0.1-0.5c2.5-1.5,0.3-3.1,0-4.6c-0.1-0.7-0.4-1.3-0.7-2C353.3,359.9,353.4,359.8,353.6,359.6z"
		/>
	<path class="st0" d="M347.6,289.2c0,0,0.1,0.1,0.2,0.2c0.3,0.8,0.6,1.6,0.8,2.1c0.9,0,1.7-0.2,2.3-0.1c0.3,0.1,0.6,0.9,0.6,1.4
		c0.1,1.3-0.2,2.5,0,3.8c0.3,1.8,1.4,2.3,3.1,1.4c-0.7,1.4-0.5,2.7,0.6,3.8c0.4,0.4,0.6,1.1,0.9,1.6c0.4,0.5,0.8,1.1,1.2,1.5
		c0.8,0.7,1.8,1.3,2.6,2c0.9,0.9,1.6,1.7,0.1,2.9c-0.5,0.4-0.1,1.8-0.1,2.8c0,0.7,0,1.3,0,2.2c-1.9-3.1-3.6-5.9-5.3-8.7
		c-1-1.6-2-3.2-3.2-4.7c-2.5-3.1-4-6.7-4.6-10.7C347,290.4,347.4,289.8,347.6,289.2z"/>
	<path class="st0" d="M315.7,225.4c3.4,0.3,5.4,3.6,3.9,6.4c-0.2,0.4-0.5,0.8-0.6,1.2c-0.2,1.7-1.6,2.1-2.8,2
		c-1.1-0.1-2.1-0.5-2.9-2c-1.2-2.3-0.2-4.1,0.1-6.1C313.5,226.4,314.9,226,315.7,225.4z"/>
	<path class="st0" d="M187.8,340.2c0.9-1.6,1.4-3.2,3.4-4.3c2-1.1,3.2-3.7,4.8-5.7c0.3-0.4,0.6-0.9,1-1.5c0.6,0.5,1,0.9,1.5,1.3
		c-1.1,2-0.6,4.8-3.1,6.1c-0.1,0-0.2,0.2-0.2,0.3c1.3,2.3-1.1,2.5-2.1,3.4c-1.5,1.3-3.2,2.4-5,3.7c-0.1-0.8-0.2-1.3-0.2-1.6
		c1.2-1.1,2.1-2,3.2-2.9c0.2-0.2,0.8,0.1,1.2-0.1c0.4-0.2,0.7-0.6,1-1c-0.4-0.2-0.8-0.6-1.2-0.6c-1.1,0.2-2.3,0.3-2.6,1.8
		c-0.1,0.6-0.5,1.2-0.7,1.7C188.4,340.8,188.1,340.5,187.8,340.2z"/>
	<path class="st0" d="M348.5,382.6c-0.3,0.3-0.7,0.6-1.2,1c0-1.4,0-2.6,0-3.4c1.2,0.5,2.5,1.1,3.7,1.6c0.2,0.1,0.7-0.3,0.7-0.4
		c0-0.5,0-1.3-0.2-1.4c-2.6-1.1-1.4-2.2-0.2-3.4c0.1-0.1,0.2-0.3,0.3-0.4c1.8,1,2.5,2.2,1.8,4.4c-0.5,1.5-0.3,3.3-0.7,4.9
		c-0.3,1.5-2,2.4-3.3,2c-1-0.3-1-0.3-0.5-1.4c0.2-0.4,0-1-0.1-1.6C348.9,383.8,348.7,383.3,348.5,382.6z"/>
	<path class="st0" d="M305.4,204.2c4.5-4.8,10.3-5.6,14.2-2c-1.4,0-2.6,0-3.9,0c0.2,0.8,0.3,1.4,0.4,2c-4.1,0.6-4.7,0.5-5-1
		C309.2,203.4,307.5,203.8,305.4,204.2z"/>
	<path class="st0" d="M342.4,345.2c-1-1.6-2.8-3-2-5.8c0.3,0.9,0.4,1.4,0.6,2.1c0.5-0.4,0.9-0.6,1.3-0.9c-1.8-2.1-0.7-12.2,1.1-13.3
		c0.2,2.1,0.4,4.3,0.6,6.6c0.2-0.1,0.3-0.1,0.5-0.2c-0.1,1.1,0.6,2.6-2,1.8c0.4,2.1,0.7,3.8,1.1,5.6c0,0.2,0.1,0.4,0.1,0.6
		C343.2,342.7,342.8,344,342.4,345.2L342.4,345.2z"/>
	<path class="st0" d="M254.3,208.2c-0.3,1.7-0.3,3.4-0.9,4.9c-1.4,3.4-2.5,6.8-1.4,10.5c-0.2,0-0.5,0.1-0.7,0.1
		c-0.4-1.2-1.2-2.4-1.1-3.5c0.1-3.2,0.4-6.3,1-9.4c0.2-1.1,1.5-2.1,2.3-3.1C253.7,207.8,254,208,254.3,208.2z"/>
	<path class="st0" d="M226,303.2c-0.2,0.9-0.3,1.7-0.4,2.5c-0.8-3-2.4-5.9-1.7-9c0.2-0.7,1.1-1.3,1.7-1.9c0.5,0.9,1.1,1.8,1.5,2.7
		c0.2,0.5-0.1,1.2,0.1,1.6C228.4,301.8,228.4,301.8,226,303.2z"/>
	<path class="st0" d="M220,370.8c0.3-0.4,0.6-0.8,1-1.2c-0.5-0.2-0.8-0.4-1.2-0.6c0.5-2.2,1.1-4.4,1.6-6.7c0,0-0.3-0.1-0.6-0.2
		c0.1-0.8,0.1-1.7,0.2-2.5c0-0.3,0.2-0.9,0.3-0.9c1.8,0,1.7-1.5,1.8-2.7c0.2,0,0.3,0,0.5,0c0.1,0.5,0.3,1,0.2,1.4
		c-0.4,3.8-0.7,7.5-1.4,11.3c-0.1,0.9-1.3,1.7-1.9,2.5C220.4,371,220.2,370.9,220,370.8z"/>
	<path class="st0" d="M277.6,339.9c-0.2-7.6,0.1-15,5.2-21.2c0.7,0.7,1.2,1.2,1.9,1.8c-0.3,0.2-0.7,0.6-1,0.5
		c-2.5-0.5-2.9,1.4-3.1,3c-0.3,2.4-0.3,4.9-0.4,7.3c0,0.2-0.1,0.5-0.5,0.7c0-1.3,0-2.6,0-3.9c-0.2,0-0.3,0-0.5,0
		C278.7,332.2,278.1,336.1,277.6,339.9z"/>
	<path class="st0" d="M205.1,375.7c-0.4-3.6,0.5-6.6,3.2-8.8c0.4-0.3,1.5-0.3,1.9,0.1c0.7,0.6,0.4,1.3-0.6,1.7
		c-0.3,0.1-0.7,0.8-0.7,1.1c0.2,1,0.3,1.8-0.9,2.1c-0.2,0.1-0.4,0.4-0.3,0.6C208.3,374.8,205.8,374.5,205.1,375.7z"/>
	<path class="st0" d="M354.7,298.1c-1.7,0.9-2.9,0.4-3.1-1.4c-0.2-1.2,0.1-2.5,0-3.8c0-0.5-0.3-1.3-0.6-1.4c-0.7-0.2-1.4,0-2.3,0.1
		c-0.2-0.5-0.5-1.3-0.8-2.1c0.5,0.2,1,0.4,1.6,0.6c0.1-0.3,0.2-0.6,0.3-0.9c0.9,1.4,2,2.3,3.7,0.8c0.1,0.7,0.1,1.4,0.2,2
		c0,0,0-0.1,0-0.1c0.1,1.9,0,3.8,1.3,5.4C354.8,297.6,354.8,297.8,354.7,298.1z"/>
	<path class="st0" d="M280.3,244.2c0.4,0.4,0.7,0.8,1.1,1.2c1.2,0.4,2.4,0.9,3.7,1.4c0,0.5-0.1,1.2-0.2,2.2
		c-0.7-0.1-1.4-0.3-2.1-0.4c-0.2,0.1-0.4,0.2-0.6,0.4c-0.5-0.3-0.9-0.9-1.4-0.9c-1.9,0-3.5-0.5-4.6-2.2c0,0,0,0.1,0,0.1
		c0.8-0.2,1.7-0.3,2.6-0.5c-0.1-0.4-0.3-0.9-0.5-1.8C279.1,243.8,279.7,244,280.3,244.2z"/>
	<path class="st0" d="M286.2,342.4c-0.5-1.3-0.9-2.6-1.5-4.1c0.2-0.3,0.5-0.8,0.8-1.1c-0.4-0.4-1-0.7-1-1c0.2-2.3,0.5-4.6,0.8-7.1
		c0.4,0.2,0.8,0.3,0.8,0.4c0.3,4.3,0.6,8.5,0.8,12.8C286.6,342.4,286.4,342.4,286.2,342.4z"/>
	<path class="st0" d="M224,291.7c-0.1-1.6-0.1-3.1-0.4-4.7c-0.4-2.6,0.6-4.2,4.2-5.9c-0.7,2-1.5,3.8-2,5.7c-0.3,0.9-1.5,2.3,0.5,2.9
		C226.3,291.3,225.8,292.4,224,291.7C223.9,291.7,224,291.7,224,291.7z"/>
	<path class="st0" d="M222.6,337.8c-0.1,2.9-0.2,5.7-0.5,8.6c-0.2,1.8-0.8,3.6-1.2,5.4c-0.5-0.2-0.6-0.2-0.6-0.2
		c0.2-3.7,0.2-7.4,0.5-11.1c0.1-1,1-2,1.6-3C222.4,337.6,222.5,337.7,222.6,337.8z"/>
	<path class="st0" d="M337.3,361.3c0.3-0.4,0.5-0.7,0.9-1.3c-0.6-0.2-1.3-0.5-2.1-0.7c0.2-0.3,0.4-0.5,0.6-0.8
		c3.2-1.1,6.3,0.2,10.1,0.6c-0.7,0.6-1.1,0.8-1.4,1.1c-0.1-0.1-0.3-0.3-0.4-0.4c-0.1,0.6-0.3,1.3-0.5,2.1c-0.5-0.7-1-1.3-1.4-1.8
		c0,0,0.3-0.2,0.7-0.4c-1.4-0.8-2.4-1.3-3.4,0.5C340,361,339,362.1,337.3,361.3z"/>
	<path class="st0" d="M276.2,256.6c0.5,0.1,1,0.1,1.8,0.2c-0.5-0.7-0.9-1.2-1.2-1.7c0-0.2,0.1-0.3,0.1-0.5c0.7,0.2,1.7,0.2,1.9,0.7
		c0.8,1.9,2.4,2.3,4.1,2.7c0.3,0.1,0.7,0.3,1.1,0.6c-2.1-0.2-3,0.5-2.2,2.7c-2-1.4-3.9-2.8-5.9-4.2
		C276,256.9,276.1,256.8,276.2,256.6z"/>
	<path class="st0" d="M256,217.4c1.4,2.4-0.6,5.4,1.9,7.3c-1.6,0.6-2.1,0.4-3-1.1C253.4,221,253.7,219.4,256,217.4z"/>
	<path class="st0" d="M192.9,361.8c-0.1-5.8,1.3-11.4,3.2-16.9c-0.9,5.7-1.8,11.3-2.7,17C193.2,361.8,193,361.8,192.9,361.8z"/>
	<path class="st0" d="M252.1,181.6c0-0.1,0-0.2,0-0.4c0.2-0.3,0.4-0.7,0.8-1.4c0.2,0.7,0.2,1,0.4,1.5c0.4-0.9,0.7-1.6,1.1-2.3
		c0.1,0,0.2,0,0.4,0.1c-0.1,1.3-0.1,2.8-0.5,4c-0.4,1.3-1.3,2.4-2.1,3.6C251.2,185.1,250.8,183.4,252.1,181.6z"/>
	<path class="st0" d="M339.2,374.1c0.6-0.4,1.2-0.8,1.9-1.3c1.2,1.9,4.9,1.9,3.6,5.7c-0.7-0.6-1.3-1.1-2-1.7
		c-0.3,0.5-0.5,0.9-0.8,1.4C341.5,375.2,341.5,375.2,339.2,374.1z"/>
	<path class="st0" d="M284.2,321.7c1.9,1.3,2.5,3.5,1.4,4.8c-0.4,0.5-1.5,0.5-2.2,0.8c-0.2-0.7-0.7-1.5-0.5-2.1
		C283,324.1,283.7,323,284.2,321.7z"/>
	<path class="st0" d="M313.5,211.5c-1.9,1.6-3.1,4.2-6.1,3.7C307,212.9,309.6,211.3,313.5,211.5z"/>
	<path class="st0" d="M222.4,335.2c0-0.8-0.1-1.6-0.1-2.3c1.2-0.6,2.5-1.2,3.7-1.9c-0.1-0.2-0.1-0.4-0.2-0.5
		c-0.4-0.1-0.7-0.3-1.1-0.4c0.7-0.5,1.3-0.9,2-1.4C227.2,331.7,224.7,335.4,222.4,335.2z"/>
	<path class="st0" d="M314.7,247c-2.5-2.5-1.9-4.5,1.8-7.2C315.8,242.3,315.3,244.5,314.7,247z"/>
	<path class="st0" d="M379,335.3c-0.1,1.2-0.1,2.3-0.4,3.5c-0.8,3.5-1.6,6.9-2.5,10.4c-0.2,0-0.4-0.1-0.5-0.1c0.1-0.5,0.1-1,0.2-1.5
		c0.5-2.4,0.9-4.8,1.4-7.2c0.3-1.6,0.8-3.1,1.2-4.6C378.4,335.5,378.8,335.5,379,335.3C379,335.3,379,335.3,379,335.3z"/>
	<path class="st0" d="M281.6,139.6c1.5,0.1,2.9,0.1,4.4,0.3c1.3,0.2,2.4,0.3,2.7-1.6c0,2.7,2.7,1.8,3.7,3.4c-3.7-0.5-7.3-1-10.8-1.4
		C281.5,140,281.5,139.8,281.6,139.6z"/>
	<path class="st0" d="M255.2,206.5c4.9,1.6,8.8,6.8,7.8,10c-1-1.9-1.7-4-3-5.7C258.8,209.2,256.9,208,255.2,206.5z"/>
	<path class="st0" d="M244.8,300.1c1.2-1.6,2.5-3.2,3.9-5.1c0.2,2.4-3,7.5-4.6,8C244.3,302,244.6,301,244.8,300.1
		C244.8,300,244.8,300.1,244.8,300.1z"/>
	<path class="st0" d="M261.1,333.3c-0.1,1.8-0.2,3.6-0.4,5.3c0,0.3-0.8,0.7-1,0.6c-0.4-0.2-1.1-0.8-1-1.1c0.3-1.7,0.7-3.3,1.1-5
		C260.3,333.2,260.7,333.3,261.1,333.3z"/>
	<path class="st0" d="M362.7,366c-0.5,3-1,5.9-1.5,9.2C359.8,373.6,360.7,368,362.7,366z"/>
	<path class="st0" d="M262.7,185.1c0.4-0.1,0.9-0.3,1.7-0.5c-0.8,2.3-1.7,4.5-2.4,6.6C259.4,189.1,262.1,187.2,262.7,185.1z"/>
	<path class="st0" d="M236.3,295.2c0.2-3.7,0.4-7.3,0.7-11c0.1,0,0.2,0,0.3,0c0,2.4,0,4.8,0,7.2c0.1,0.1,0.3,0.1,0.4,0.2
		c0.4-0.6,0.8-1.2,1.2-1.8c0.1,0,0.1,0,0.2,0.1c-0.8,1.8-1.5,3.5-2.3,5.3C236.6,295.2,236.4,295.2,236.3,295.2z"/>
	<path class="st0" d="M362.3,296.5c-0.4-0.1-0.9-0.2-1.2-0.2c-0.2,0.9-0.4,1.7-0.6,3c-1.3-2-2.2-3.5-3.2-4.9
		c0.1-0.1,0.2-0.3,0.2-0.4c1.6,0.8,3.2,1.5,4.8,2.3C362.3,296.4,362.3,296.4,362.3,296.5z"/>
	<path class="st0" d="M282.2,333.9c-0.2-0.8-0.5-1.6-0.6-2.5c-0.1-1.3,0-2.5,0-3.9c1.2,0.3,2.1,0.9,1.8,2.3
		C283.1,331.1,282.6,332.5,282.2,333.9L282.2,333.9z"/>
	<path class="st0" d="M319.1,303.3c0.3,0.5,0.5,1,0.9,1.7c-2.5-0.3-5-3-4.5-5c0.8,0.9,1.4,1.6,2.1,2.3
		C318,302.7,318.6,303,319.1,303.3C319.1,303.3,319.1,303.3,319.1,303.3z"/>
	<path class="st0" d="M308.5,306.5c1.7-2.5,3.1-4.7,4.5-6.7C313.2,302.2,311.2,305.6,308.5,306.5z"/>
	<path class="st0" d="M324.6,148.8c0.1-0.1,0.3-0.5,0.4-0.8c0.1,0.7,0.1,1.5,0.2,2.5c-2.4-1.6-4.7-3-7.1-4.5
		c0.1-0.1,0.2-0.3,0.3-0.4C320.5,146.6,322.5,147.7,324.6,148.8z"/>
	<path class="st0" d="M364.5,313.4c0.2,2.9,0.5,5.4,0.7,7.9c-0.2,0-0.4,0-0.6,0.1C363.3,319,363.3,316.5,364.5,313.4z"/>
	<path class="st0" d="M255.3,190.6c-0.5-0.9-0.7-1.3-0.9-1.8c-0.2,0.3-0.4,0.5-0.7,0.9c-0.2-0.6-0.4-1-0.4-1.5
		c-0.2-1.6,0.8-2.3,2-3.2C255.3,186.7,255.3,188.4,255.3,190.6z"/>
	<path class="st0" d="M259.5,229.8c-1.6-0.4-2.2-1.4-1.9-2.7c0-0.2,1.2-0.4,1.6-0.2C260.7,227.6,260.1,228.6,259.5,229.8z"/>
	<path class="st0" d="M211.7,287.1c0.4,2.4,0.9,4.9-2.6,5.5C210,290.8,210.8,289,211.7,287.1z"/>
	<path class="st0" d="M311.6,209.3c-1.4,1.2-2.4,1.2-2.8,0c-0.1-0.4,0.4-1.1,0.7-1.6C310.1,208.2,310.9,208.7,311.6,209.3z"/>
	<path class="st0" d="M333.9,226.5c-2.2,0.8-4.4,1.5-6.6,2.3c-0.1-0.2-0.1-0.4-0.2-0.7c2.2-0.8,4.4-1.6,6.7-2.3
		C333.8,226,333.9,226.3,333.9,226.5z"/>
	<path class="st0" d="M354.9,297.3c-1.4-1.6-1.3-3.5-1.3-5.4C355.7,293.3,355.3,295.3,354.9,297.3z"/>
	<path class="st0" d="M279.8,369.1c-2.6,1.3,0,3-0.2,4.5c-1.6-0.2-2.1-1.3-2-2.7C277.7,369.5,278.6,368.9,279.8,369.1z"/>
	<path class="st0" d="M378.6,316.2c-0.2,0.9-0.3,1.9-0.6,2.7c-0.1,0.2-0.9,0.1-1.3,0.1c0-0.4-0.1-0.9,0.1-1.2
		c0.3-0.6,0.7-1.2,1.1-1.7C378.1,316.1,378.4,316.2,378.6,316.2z"/>
	<path class="st0" d="M361.2,313.9c1.6,0.8,1.6,0.8,0,5C361.2,317.2,361.2,315.6,361.2,313.9z"/>
	<path class="st0" d="M342.3,345.2c1.3,2.1,1.4,3.8,0.2,4.7C341.9,348.3,341.4,346.8,342.3,345.2
		C342.4,345.2,342.3,345.2,342.3,345.2z"/>
	<path class="st0" d="M228.6,313.5c-0.7-0.9-1.1-1.5-1.4-1.9c0.3-1.1,0.6-2.1,0.9-3.1c0.1,0,0.2,0,0.3,0
		C228.4,310,228.5,311.6,228.6,313.5z"/>
	<path class="st0" d="M277.2,253.3c-1.2,1.8-1.6,1.7-2.9-0.9C275.5,252.8,276.3,253,277.2,253.3z"/>
	<path class="st0" d="M223.9,291.7c0.5,0.4,1,0.9,1.8,1.5c-0.8,0.5-1.5,0.9-2.2,1.4c-0.2-0.1-0.3-0.3-0.5-0.4
		C223.4,293.4,223.7,292.6,223.9,291.7C224,291.7,223.9,291.7,223.9,291.7z"/>
	<path class="st0" d="M281.5,161.4c-0.6,0.3-1.3,0.5-1.9,0.8c-0.1-0.1-0.2-0.2-0.4-0.4c0.3-0.6,0.4-1.3,0.9-1.6
		c0.2-0.2,1,0.3,1.5,0.5C281.5,161,281.5,161.2,281.5,161.4z"/>
	<path class="st0" d="M277.3,259.4c0.8,1,1.7,2,2.5,3c-0.2,0.2-0.4,0.3-0.7,0.5c-0.8-1.1-1.6-2.1-2.5-3.2
		C277,259.6,277.2,259.5,277.3,259.4z"/>
	<path class="st0" d="M282.2,333.8c0.3,1.3,0.5,2.7,0.9,4.4C281.4,336.5,281.2,334.9,282.2,333.8
		C282.2,333.9,282.2,333.8,282.2,333.8z"/>
	<path class="st0" d="M256.5,190.4c-0.2,1.7-0.3,2.9-0.4,4.1c-0.2,0-0.3,0-0.5,0C255.6,193.3,254.7,192,256.5,190.4z"/>
	<path class="st0" d="M358.9,303.1c-0.1-1.3-0.2-2.5-0.4-3.7C360.3,299.9,360.3,299.9,358.9,303.1z"/>
	<path class="st0" d="M338.5,332.4c-0.2,1.1-0.4,2.2-0.6,3.3c-0.3,0-0.5-0.1-0.8-0.1c0.2-1.1,0.4-2.2,0.6-3.3
		C338,332.3,338.3,332.3,338.5,332.4z"/>
	<path class="st0" d="M267,174.5c1.1-0.4,2.2-0.9,3.2-1.3c0.1,0.4,0.1,0.7,0.2,1.2c-1.1,0.2-2.2,0.4-3.3,0.5
		C267.1,174.8,267.1,174.7,267,174.5z"/>
	<path class="st0" d="M193.8,363.4c0.1,1.3,0.2,2.6,0.3,3.9c-0.2,0-0.4,0-0.6,0c0-1.3,0-2.6,0-3.9
		C193.5,363.4,193.6,363.4,193.8,363.4z"/>
	<path class="st0" d="M269.4,246.7c-0.4,0.7-0.6,1.3-0.7,1.5c1.1,0.6,2.1,1.2,3,1.7c-0.1,0.2-0.2,0.3-0.2,0.5
		c-0.7,0.2-1.4,0.3-2.2,0.5c0,1,1.7,2.1-0.2,3c-0.6-0.3-1.3-0.7-1.9-1.1C267.2,248.8,267.9,246.7,269.4,246.7z"/>
	<path class="st0" d="M243.7,188.3c1.8,2.2,2.4,4.5,1.7,7c-0.2,0-0.5,0.1-0.7,0.1C244.4,193,244.1,190.6,243.7,188.3z"/>
	<path class="st0" d="M276.1,245.8c1,1.7,2.7,2.2,4.6,2.2c0.5,0,0.9,0.6,1.4,0.9c-1.7-0.2-3.4-0.4-5.1-0.8
		C275.7,247.8,275.5,246.9,276.1,245.8z"/>
	<path class="st0" d="M175.7,323.8c0.6-1.8,1.3-3.6,1.9-5.4c1.4,2.3-0.9,3.7-1.1,5.6C176.2,324,175.9,323.9,175.7,323.8z"/>
	<path class="st0" d="M247,205.2c-0.1-1.8-0.2-3.5-0.3-5.7C248.8,201.7,247.9,203.5,247,205.2z"/>
	<path class="st0" d="M242.8,179.1c-0.6-4-0.5-4.4,1.7-4.7C243.9,176,243.4,177.6,242.8,179.1z"/>
	<path class="st0" d="M172.3,315.6c0.5-1.3,1-2.6,1.5-3.9c0.2,0.1,0.4,0.1,0.6,0.2c-0.4,1.3-0.7,2.6-1.1,3.9
		C172.9,315.8,172.6,315.7,172.3,315.6z"/>
	<path class="st0" d="M333.8,301.8c-1.1-7.9-2.3-15.8-3.5-23.7c1.9,0.2,1.9,2.1,2.3,4c0.5-0.6,0.9-1.1,1.6-1.9
		c0.2,0.9,0.3,1.5,0.5,2.6c0.4-1,0.6-1.5,0.9-2.3c0.4,0.3,1.2,0.5,1.2,0.8c0.1,3,2.4,3.9,4.5,5.1c0.2,0.1,0.3,0.2,0.3,0.7
		c-0.5-0.2-0.9-0.3-1.4-0.5c-0.5-0.2-1-0.5-1.3-0.7c-0.5,1.8-1,3.5-1.5,5.3c-0.1,0-0.2,0-0.3-0.1c-0.4-1.6-0.7-3.2-1.1-4.8
		c-0.2,0-0.4,0.1-0.6,0.1c0.2,1.6,0.2,3.3,0.6,4.9c0.5,1.6-0.2,2.9-0.7,4.3c-0.4,1.2-0.1,2.6-0.3,3.9c-0.1,0.8-0.5,1.5-0.8,2.2
		C334.2,301.9,334,301.8,333.8,301.8z"/>
	<path class="st0" d="M385.1,318.4c0.4,3.2,3.7,5.4,2.9,9.4C387.1,324.3,384.5,321.9,385.1,318.4z"/>
	<path class="st0" d="M323.9,291.5c-1.1-1.7-0.4-2.7,0.5-3.6c0.2-0.2,0.6-0.2,0.8-0.1c0.2,0.1,0.5,0.6,0.4,0.8
		C325.2,289.5,324.6,290.3,323.9,291.5z"/>
	<path class="st0" d="M327,288c-0.5-0.6-1.2-1.1-1.3-1.7c0-0.5,0.7-1.1,1.5-2.1c0.1,1.6,0.2,2.6,0.2,3.6
		C327.3,287.9,327.1,288,327,288z"/>
	<path class="st0" d="M366.1,296.7c2,0.4,3,1.5,3.1,3.7C368.1,299.1,367.1,297.9,366.1,296.7z"/>
	<path class="st0" d="M338.4,309.4c-0.3,0-0.9,0-0.9,0c-0.1-0.8-0.2-1.6-0.1-2.3c0-0.3,0.5-0.5,0.8-0.7
		C338.2,307.4,338.3,308.4,338.4,309.4C338.3,309.4,338.4,309.4,338.4,309.4z"/>
</g>
</svg>
