<?xml version="1.0" encoding="utf-8"?>
<!-- Generator: Adobe Illustrator 21.0.2, SVG Export Plug-In . SVG Version: 6.00 Build 0)  -->
<svg version="1.1" id="Layer_1" xmlns="http://www.w3.org/2000/svg" xmlns:xlink="http://www.w3.org/1999/xlink" x="0px" y="0px"
	 viewBox="0 0 1000 1000" style="enable-background:new 0 0 1000 1000;" xml:space="preserve">
<style type="text/css">
	.st0{enable-background:new    ;}
	.st1{fill:#F2F2F2;}
</style>
<g>
	<g class="st0">
		<path class="st1" d="M212.4,312.7V341h-12.7v-76.3h23.1c7.5,0,13.2,2.1,17,6.4c3.8,4.3,5.7,10.2,5.7,17.6s-2,13-6,17.4
			c-4,4.3-9.5,6.4-16.8,6.4h-10.2L212.4,312.7L212.4,312.7z M232.8,288.9c0-3.8-0.9-6.7-2.6-8.7s-4.6-3.1-8.6-3.1h-9.2v23.4h9.2
			C229,300.6,232.8,296.7,232.8,288.9z"/>
	</g>
	<g class="st0">
		<path class="st1" d="M387.1,421l-11.9-22.6l-15.6,3.2l-6.3-11.9l77.7-14.4l6.7,12.8l-55.8,55.8l-6.3-11.9L387.1,421z M395.7,412.6
			l24.2-23.3L387,396L395.7,412.6z"/>
	</g>
	<g class="st0">
		<path class="st1" d="M421.9,643.4l-9.6-7.3l10.7-13.9l-50.9-39l7.8-10.1l50.9,39l10.7-13.9l9.6,7.3L421.9,643.4z"/>
	</g>
	<g class="st0">
		<path class="st1" d="M213.5,680.9c1.7-3.2,4.1-5.8,7.5-7.6c3.2-1.8,7.2-2.8,11.8-2.6c4.4,0.2,8.6,1.2,11.9,3.1
			c3.5,2,6.3,4.6,8.3,8.1s3.2,7.6,3.4,12.2l-13.5-0.5c-0.2-3.1-1.2-5.7-2.9-7.8s-4-3.2-7-3.2c-2.6,0-4.7,0.8-6.1,2.3
			c-1.5,1.7-2.3,3.8-2.3,6.4c0,2.4,0.5,4.3,1.5,6c1.1,1.5,2.4,2.9,4.3,3.8c1.7,0.9,4.1,2.1,7.2,3.5c4,1.7,7.2,3.4,9.6,5
			c2.4,1.7,4.6,4,6.3,6.9c1.7,3.1,2.4,6.9,2.3,11.6c-0.2,6.6-2.3,11.6-6.3,15.3s-9.3,5.4-15.8,5.2c-6.7-0.2-12.1-2.3-15.9-6.3
			s-6-9.2-6.4-15.8l13.8,0.5c0.3,2.8,1.2,5,2.8,6.9c1.5,1.8,3.7,2.8,6.3,2.8c2.3,0,4.3-0.6,5.8-2s2.3-3.5,2.3-6.4
			c0-2.3-0.5-4.1-1.5-5.7c-1.1-1.5-2.4-2.8-4.1-3.7c-1.7-0.9-4-2.1-6.9-3.4c-4-1.8-7.3-3.5-9.8-5.2c-2.4-1.5-4.6-4-6.3-7
			c-1.7-3.1-2.4-7-2.3-11.9C210.9,687.7,211.8,684.1,213.5,680.9z"/>
	</g>
	<g class="st0">
		<path class="st1" d="M55.5,582.6l11.9,22.5l15.6-3.2l6.3,11.9l-77.6,14.5L5,615.5l55.7-56l6.3,11.9L55.5,582.6z M46.9,591
			l-24,23.4l32.9-6.7L46.9,591z"/>
	</g>
	<g class="st0">
		<path class="st1" d="M72.3,414.1c2.3,2.8,3.8,6,4.4,9.8c0.6,3.7,0,7.6-1.8,11.9c-1.8,4.1-4.3,7.5-7.3,9.9
			c-3.1,2.6-6.6,4.1-10.7,4.7c-4,0.6-8.3,0.2-12.5-1.4l5.4-12.4c2.9,0.9,5.8,1.1,8.3,0.2c2.6-0.8,4.4-2.6,5.7-5.4
			c1.1-2.4,1.1-4.6,0-6.6c-0.9-2-2.8-3.5-5.2-4.6c-2.1-0.9-4.3-1.2-6.1-0.8c-1.8,0.5-3.5,1.2-5.2,2.4c-1.5,1.2-3.5,3.1-5.8,5.4
			c-3.1,3.1-5.8,5.4-8.1,7c-2.4,1.7-5.4,2.8-8.7,3.2c-3.4,0.5-7.3-0.3-11.6-2.1c-6-2.6-9.9-6.4-11.9-11.6c-2-5-1.5-10.7,0.9-16.7
			c2.6-6.1,6.6-10.4,11.8-12.5c5.2-2.1,10.9-2.1,17-0.2l-5.4,12.5c-2.6-0.8-5-0.8-7.3,0s-3.8,2.3-4.9,4.9c-0.9,2.1-1.1,4.1-0.2,6.1
			c0.8,1.8,2.4,3.4,5,4.6c2,0.9,4,1.1,5.8,0.6s3.5-1.2,5-2.4c1.5-1.2,3.4-2.9,5.7-5.2c3.2-3.1,6-5.5,8.4-7.2s5.4-2.9,8.9-3.4
			s7.5,0.3,11.9,2.1C67,409.3,70,411.4,72.3,414.1z"/>
	</g>
	<circle class="st1" cx="21.4" cy="513.4" r="7"/>
	<circle class="st1" cx="113.3" cy="674.8" r="7"/>
	<circle class="st1" cx="348.6" cy="674.8" r="7"/>
	<circle class="st1" cx="435.6" cy="494.2" r="7"/>
	<circle class="st1" cx="322.9" cy="330.9" r="7"/>
	<circle class="st1" cx="112.4" cy="341" r="7"/>
</g>
</svg>
